<svg xmlns="http://www.w3.org/2000/svg">
<defs>
<font id="GT-Pressura-Regular" horiz-adv-x="550" >
  <font-face 
    font-family="GT-Pressura-Regular"
    font-weight="400"
    font-stretch="normal"
    units-per-em="1000"
    panose-1="2 0 5 6 2 0 0 2 0 4"
    ascent="800"
    descent="-200"
    x-height="500"
    cap-height="700"
    bbox="-174 -249 932 1065"
    underline-thickness="50"
    underline-position="-100"
    unicode-range="U+0020-FB04"
  />
<missing-glyph 
d="M184 120q-12 0 -18.5 -9t-9.5 -19.5t-12.5 -19.5t-27.5 -9q-21 0 -36.5 13.5t-15.5 31.5q0 22 21 44t21 53q0 17 -8 27.5t-20 10.5q-8 0 -15.5 -3.5t-14.5 -3.5q-14 0 -22 15.5t-8 36.5q0 14 9.5 26.5t23.5 12.5q7 0 14.5 -5.5t12.5 -5.5q13 0 20 13.5t7 26.5
q0 8 -5 24.5t-5 24.5q0 37 40 37q9 0 9 8q0 3 -4 11t-4 13t5.5 9.5t10.5 4.5q11 0 22 -17.5t20 -17.5q11 0 15 8.5t4.5 19t7.5 19t22 8.5q21 0 37 -24t35 -24q20 0 27.5 11t7.5 37q0 27 14.5 40t38.5 13q22 0 34.5 -13t12.5 -35q0 -18 -12 -31t-24 -21t-12 -17q0 -12 12 -22
t27 -16t27 -21t12 -37q0 -20 -16 -38t-16 -34q0 -26 44 -26q40 0 40 -45q0 -22 -15 -37t-37 -15q-15 0 -35 25t-37 25q-25 0 -25 -21q0 -10 10 -21t10 -28q0 -14 -9 -23.5t-26 -9.5q-10 0 -35 15t-45 15q-26 0 -26 -31q0 -27 -24 -27q-8 0 -13 7.5t-7 16.5t-10.5 16.5
t-23.5 7.5zM298 340q0 -16 12 -28t28 -12q17 0 30 12t13 28q0 17 -13.5 32t-29.5 15t-28 -15t-12 -32zM281 226q-26 0 -48 20q-5 5 -7 0q-1 -3 2 -7q18 -29 53 -29q30 0 44 34q2 4 -1 6t-5 -2q-12 -22 -38 -22zM214 335q0 21 14 21t14 -21t-14 -21t-14 21zM310 340
q0 21 14 21t14 -21t-14 -21t-14 21zM178 340q0 -21 10 -35.5t26 -14.5q17 0 28.5 14.5t11.5 35.5t-11.5 35.5t-28.5 14.5q-16 0 -26 -14.5t-10 -35.5zM85 520q0 14 8.5 24t20.5 10q10 0 17 -10t7 -24t-7 -24t-17 -10q-12 0 -20.5 10t-8.5 24z" />
    <glyph glyph-name="IJ" unicode="IJ" horiz-adv-x="504" 
d="M160 680v-660q0 -8 -6 -14t-14 -6h-55q-8 0 -14 6t-6 14v660q0 8 6 14t14 6h55q8 0 14 -6t6 -14zM240 87q50 0 82.5 32.5t32.5 90.5v470q0 8 6 14t14 6h55q8 0 14 -6t6 -14v-480q0 -92 -60.5 -150t-149.5 -58q-8 0 -14 6t-6 14v55q0 8 6 14t14 6z" />
    <glyph glyph-name="ij" unicode="ij" horiz-adv-x="439" 
d="M165 691v-69q0 -16 -16 -16h-68q-16 0 -16 16v69q0 6 4.5 11t11.5 5h68q7 0 11.5 -5t4.5 -11zM162 480v-460q0 -8 -6 -14t-14 -6h-52q-8 0 -14 6t-6 14v460q0 8 6 14t14 6h52q8 0 14 -6t6 -14zM277 -30v510q0 8 6 14t14 6h53q8 0 14 -6t6 -14v-510q0 -74 -52.5 -127
t-130.5 -53h-52q-8 0 -14 6t-6 14v50q0 8 6 14t14 6h52q38 0 64 25t26 65zM374 691v-69q0 -16 -16 -16h-68q-16 0 -16 16v69q0 6 4.5 11t11.5 5h68q7 0 11.5 -5t4.5 -11z" />
    <glyph glyph-name="napostrophe" unicode="&#x22;n" horiz-adv-x="515" 
d="M111 681v-61q0 -34 -20 -62l-32 -46q-10 -15 -26 -15h-9q-14 0 -19 11t1 22l31 57q3 5 -0.5 9t-8.5 4h-7q-8 0 -14 6t-6 14v61q0 8 6 14t14 6h70q8 0 14 -6t6 -14zM460 320v-300q0 -8 -6 -14t-14 -6h-50q-8 0 -14 6t-6 14v300q0 47 -31 73.5t-79 26.5q-47 0 -78.5 -26
t-31.5 -69v-305q0 -8 -6 -14t-14 -6h-50q-8 0 -14 6t-6 14v460q0 8 6 14t14 6h44q7 0 14 -7q14 -16 25 -16q9 0 38 16.5t69 16.5q85 0 137.5 -51.5t52.5 -138.5z" />
    <glyph glyph-name="f_f" unicode="ff" horiz-adv-x="684" 
d="M608 620h-10q-39 0 -67 -30.5t-28 -69.5v-15q0 -10 10 -10h102q8 0 14 -6t6 -14v-50q0 -8 -6 -14t-14 -6h-102q-10 0 -10 -10v-375q0 -8 -6 -14t-14 -6h-50q-8 0 -14 6t-6 14v375q0 10 -10 10h-193q-10 0 -10 -10v-375q0 -8 -6 -14t-14 -6h-50q-8 0 -14 6t-6 14v375
q0 10 -10 10h-75q-8 0 -14 6t-6 14v50q0 8 6 14t14 6h75q10 0 10 10v15q0 79 53 133t132 54h10q8 0 14 -6t6 -14v-47q0 -8 -6 -14t-14 -6h-10q-39 0 -67 -30.5t-28 -69.5v-15q0 -10 10 -10h193q10 0 10 10v15q0 79 53 133t132 54h10q8 0 14 -6t6 -14v-47q0 -8 -6 -14t-14 -6
z" />
    <glyph glyph-name="fi" unicode="fi" horiz-adv-x="541" 
d="M381 20v370q0 10 -10 10h-161q-10 0 -10 -10v-370q0 -8 -6 -14t-14 -6h-50q-8 0 -14 6t-6 14v370q0 10 -10 10h-75q-8 0 -14 6t-6 14v50q0 8 6 14t14 6h75q10 0 10 10v20q0 79 53 133t132 54h165q7 0 11.5 -5t4.5 -11v-55q0 -16 -16 -16h-165q-39 0 -67 -30.5t-28 -69.5
v-20q0 -10 10 -10h243q8 0 14 -6t6 -14v-450q0 -8 -6 -14t-14 -6h-52q-8 0 -14 6t-6 14z" />
    <glyph glyph-name="fl" unicode="fl" horiz-adv-x="557" 
d="M402 20v370q0 10 -10 10h-182q-10 0 -10 -10v-370q0 -8 -6 -14t-14 -6h-50q-8 0 -14 6t-6 14v370q0 10 -10 10h-75q-8 0 -14 6t-6 14v50q0 8 6 14t14 6h75q10 0 10 10v20q0 79 53 133t132 54h10q8 0 14 -6t6 -14v-47q0 -8 -6 -14t-14 -6h-10q-39 0 -67 -30.5t-28 -69.5
v-20q0 -10 10 -10h182q10 0 10 10v187q0 8 6 14t14 6h50q8 0 14 -6t6 -14v-667q0 -8 -6 -14t-14 -6h-50q-8 0 -14 6t-6 14z" />
    <glyph glyph-name=".notdef" 
d="M184 120q-12 0 -18.5 -9t-9.5 -19.5t-12.5 -19.5t-27.5 -9q-21 0 -36.5 13.5t-15.5 31.5q0 22 21 44t21 53q0 17 -8 27.5t-20 10.5q-8 0 -15.5 -3.5t-14.5 -3.5q-14 0 -22 15.5t-8 36.5q0 14 9.5 26.5t23.5 12.5q7 0 14.5 -5.5t12.5 -5.5q13 0 20 13.5t7 26.5
q0 8 -5 24.5t-5 24.5q0 37 40 37q9 0 9 8q0 3 -4 11t-4 13t5.5 9.5t10.5 4.5q11 0 22 -17.5t20 -17.5q11 0 15 8.5t4.5 19t7.5 19t22 8.5q21 0 37 -24t35 -24q20 0 27.5 11t7.5 37q0 27 14.5 40t38.5 13q22 0 34.5 -13t12.5 -35q0 -18 -12 -31t-24 -21t-12 -17q0 -12 12 -22
t27 -16t27 -21t12 -37q0 -20 -16 -38t-16 -34q0 -26 44 -26q40 0 40 -45q0 -22 -15 -37t-37 -15q-15 0 -35 25t-37 25q-25 0 -25 -21q0 -10 10 -21t10 -28q0 -14 -9 -23.5t-26 -9.5q-10 0 -35 15t-45 15q-26 0 -26 -31q0 -27 -24 -27q-8 0 -13 7.5t-7 16.5t-10.5 16.5
t-23.5 7.5zM298 340q0 -16 12 -28t28 -12q17 0 30 12t13 28q0 17 -13.5 32t-29.5 15t-28 -15t-12 -32zM281 226q-26 0 -48 20q-5 5 -7 0q-1 -3 2 -7q18 -29 53 -29q30 0 44 34q2 4 -1 6t-5 -2q-12 -22 -38 -22zM214 335q0 21 14 21t14 -21t-14 -21t-14 21zM310 340
q0 21 14 21t14 -21t-14 -21t-14 21zM178 340q0 -21 10 -35.5t26 -14.5q17 0 28.5 14.5t11.5 35.5t-11.5 35.5t-28.5 14.5q-16 0 -26 -14.5t-10 -35.5zM85 520q0 14 8.5 24t20.5 10q10 0 17 -10t7 -24t-7 -24t-17 -10q-12 0 -20.5 10t-8.5 24z" />
    <glyph glyph-name=".null" horiz-adv-x="0" 
 />
    <glyph glyph-name="nonmarkingreturn" horiz-adv-x="333" 
 />
    <glyph glyph-name="space" unicode=" " horiz-adv-x="230" 
 />
    <glyph glyph-name="exclam" unicode="!" horiz-adv-x="263" 
d="M179 680v-470q0 -8 -6 -14t-14 -6h-56q-8 0 -14 6t-6 14v470q0 8 6 14t14 6h56q8 0 14 -6t6 -14zM193 103v-83q0 -8 -6 -14t-14 -6h-83q-8 0 -14 6t-6 14v83q0 8 6 14t14 6h83q8 0 14 -6t6 -14z" />
    <glyph glyph-name="quotedbl" unicode="&#x22;" horiz-adv-x="407" 
d="M77 440h-14q-14 0 -19 11t1 22l46 84q3 5 -0.5 9t-8.5 4h-17q-8 0 -14 6t-6 14v90q0 8 6 14t14 6h90q8 0 14 -6t6 -14v-90q0 -34 -20 -62l-52 -73q-10 -15 -26 -15zM277 440h-14q-14 0 -19 11t1 22l46 84q3 5 -0.5 9t-8.5 4h-17q-8 0 -14 6t-6 14v90q0 8 6 14t14 6h90
q8 0 14 -6t6 -14v-90q0 -34 -20 -62l-52 -73q-10 -15 -26 -15z" />
    <glyph glyph-name="numbersign" unicode="#" horiz-adv-x="577" 
d="M331 250l32 180q2 10 -8 10h-96q-10 0 -12 -10l-32 -180q-2 -10 8 -10h96q10 0 12 10zM133 250l32 180q2 10 -8 10h-50q-8 0 -13 6t-4 14l6 37q4 20 24 20h50q10 0 12 10l27 153q4 20 23 20h42q8 0 13 -6t4 -14l-27 -153q-2 -10 8 -10h96q10 0 12 10l27 153q4 20 23 20
h42q8 0 13 -6t4 -14l-27 -153q-2 -10 8 -10h50q8 0 13 -6t3 -14l-6 -37q-4 -20 -23 -20h-50q-10 0 -12 -10l-32 -180q-2 -10 8 -10h50q8 0 13 -6t3 -14l-6 -37q-4 -20 -23 -20h-50q-10 0 -12 -10l-24 -133q-4 -20 -23 -20h-42q-8 0 -13 6t-4 14l24 133q2 10 -8 10h-91
q-15 0 -17 -10l-24 -133q-4 -20 -23 -20h-42q-8 0 -13 6t-4 14l24 133q2 10 -8 10h-50q-8 0 -13 6t-4 14l6 37q4 20 24 20h50q10 0 12 10z" />
    <glyph glyph-name="dollar" unicode="$" horiz-adv-x="510" 
d="M307 704q67 -16 110 -67.5t43 -116.5v-13q0 -8 -6 -14t-14 -6h-55q-8 0 -14 6t-6 14v13q0 46 -33 69.5t-77 23.5q-49 0 -80 -25.5t-30 -67.5q0 -14 3 -26.5t9.5 -22t12 -16.5t17.5 -13.5t18.5 -10t22 -8t22 -6t24 -5.5t21.5 -5q86 -19 135.5 -72.5t49.5 -134.5
q0 -80 -49.5 -134.5t-123.5 -69.5q-10 -3 -10 -10v-36q0 -8 -6 -14t-14 -6h-45q-8 0 -14 6t-6 14v36q0 7 -10 10q-76 19 -124 75t-48 129v16q0 8 6 14t14 6h56q8 0 14 -6t6 -14v-16q0 -49 36.5 -81t92.5 -32t92.5 32.5t36.5 80.5q0 27 -9 47t-19.5 31.5t-38 22t-43.5 15
t-58 13.5q-76 17 -121.5 64.5t-45.5 126.5q0 71 43.5 119.5t109.5 64.5q10 3 10 10v36q0 8 6 14t14 6h45q8 0 14 -6t6 -14v-36q0 -7 10 -10z" />
    <glyph glyph-name="percent" unicode="%" horiz-adv-x="647" 
d="M575 672l-426 -657q-9 -15 -21 -15h-40q-10 0 -16 9t0 19l427 657q9 15 22 15h38q10 0 16 -9t0 -19zM177 454q16 0 28 10.5t14 27.5q6 42 0 86q-2 15 -13 25.5t-29 10.5q-37 0 -42 -36q-5 -44 0 -86q2 -16 13 -27t29 -11zM177 690q45 0 75.5 -28.5t36.5 -76.5
q6 -50 0 -100q-5 -44 -35 -74.5t-77 -30.5q-45 0 -76 28.5t-37 76.5q-6 50 0 100q6 43 36 74t77 31zM471 84q16 0 28 10.5t14 27.5q6 36 0 86q-2 15 -13 25.5t-29 10.5q-37 0 -42 -36q-5 -44 0 -86q2 -16 13 -27t29 -11zM471 320q45 0 75.5 -28.5t36.5 -76.5q6 -50 0 -100
q-5 -44 -35 -74.5t-77 -30.5q-45 0 -76 28.5t-37 76.5q-6 50 0 100q6 43 36 74t77 31z" />
    <glyph glyph-name="ampersand" unicode="&#x26;" horiz-adv-x="605" 
d="M132 369q10 9 0 24q-46 65 -46 124q0 82 50.5 132.5t137.5 50.5q79 0 128 -51t49 -132v-15q0 -8 -6 -14t-14 -6h-51q-8 0 -14 6t-6 14v15q0 45 -22.5 71.5t-64.5 26.5q-49 0 -73 -26.5t-24 -71.5q0 -11 5.5 -26t13 -28t19 -29.5t19 -26t19 -23.5t13.5 -16l133 -163
q6 -6 9 1q4 24 4 94q0 8 6 14t14 6h45q8 0 14 -6t6 -14q0 -112 -17 -158q-4 -11 2 -17l77 -88q9 -10 3.5 -23.5t-21.5 -13.5h-49q-12 0 -22 10l-37 40q-7 7 -14 0q-63 -58 -150 -58q-93 0 -155.5 62t-62.5 149q0 86 82 166zM268 82q51 0 87 31q6 6 2 10l-155 188q-3 4 -7 0
q-52 -52 -52 -108q0 -50 35.5 -85.5t89.5 -35.5z" />
    <glyph glyph-name="quotesingle" unicode="'" horiz-adv-x="207" 
d="M82 570h-17q-8 0 -14 6t-6 14v90q0 8 6 14t14 6h90q8 0 14 -6t6 -14v-90q0 -34 -20 -62l-52 -73q-10 -15 -26 -15h-14q-14 0 -19 11t1 22l46 84q3 5 -0.5 9t-8.5 4z" />
    <glyph glyph-name="parenleft" unicode="(" horiz-adv-x="341" 
d="M291 -2h18q8 0 14 -6t6 -14v-48q0 -8 -6 -14t-14 -6h-18q-90 0 -151.5 57t-73.5 153q-8 61 -8 195.5t8 194.5q10 87 70.5 148.5t154.5 61.5h12q8 0 14 -6t6 -14v-48q0 -8 -6 -14t-14 -6h-12q-49 0 -87.5 -34t-47.5 -88q-10 -62 -10 -195t10 -195q7 -48 43.5 -85t91.5 -37
z" />
    <glyph glyph-name="parenright" unicode=")" horiz-adv-x="341" 
d="M30 -2h18q55 0 91.5 37t43.5 85q10 62 10 195.5t-10 194.5q-9 54 -47.5 88t-87.5 34h-12q-8 0 -14 6t-6 14v48q0 8 6 14t14 6h12q94 0 154.5 -61.5t70.5 -148.5q7 -60 7 -194.5t-7 -195.5q-12 -96 -73.5 -153t-151.5 -57h-18q-8 0 -14 6t-6 14v48q0 8 6 14t14 6z" />
    <glyph glyph-name="asterisk" unicode="*" horiz-adv-x="362" 
d="M260 492l-40 24l2 -46q0 -8 -6 -14t-14 -6h-42q-8 0 -14 6t-6 14l1 47l-39 -25q-7 -4 -15 -2t-12 10l-21 36q-11 16 7 27l41 22l-41 22q-7 4 -9.5 12t2.5 15l21 37q10 17 27 7l39 -25l-1 47q0 8 6 14t14 6h42q8 0 14 -6t6 -14l-2 -47l40 25q7 4 15 2t12 -10l21 -36
q11 -16 -7 -27l-42 -22l42 -22q7 -4 9.5 -12t-2.5 -15l-21 -37q-10 -17 -27 -7z" />
    <glyph glyph-name="plus" unicode="+" horiz-adv-x="540" 
d="M214 204h-144q-8 0 -14 6t-6 14v52q0 8 6 14t14 6h144q10 0 10 10v144q0 8 6 14t14 6h52q8 0 14 -6t6 -14v-144q0 -10 10 -10h144q8 0 14 -6t6 -14v-52q0 -8 -6 -14t-14 -6h-144q-10 0 -10 -10v-144q0 -8 -6 -14t-14 -6h-52q-8 0 -14 6t-6 14v144q0 10 -10 10z" />
    <glyph glyph-name="comma" unicode="," horiz-adv-x="284" 
d="M103 -130q-14 0 -19 11t1 22l46 84q3 5 -0.5 9t-8.5 4h-17q-8 0 -14 6t-6 14v90q0 8 6 14t14 6h90q8 0 14 -6t6 -14v-90q0 -34 -20 -62l-52 -73q-10 -15 -26 -15h-14z" />
    <glyph glyph-name="hyphen" unicode="-" horiz-adv-x="453" 
d="M90 321h273q8 0 14 -6t6 -14v-68q0 -8 -6 -14t-14 -6h-273q-8 0 -14 6t-6 14v68q0 8 6 14t14 6z" />
    <glyph glyph-name="period" unicode="." horiz-adv-x="283" 
d="M205 110v-90q0 -8 -6 -14t-14 -6h-90q-8 0 -14 6t-6 14v90q0 8 6 14t14 6h90q8 0 14 -6t6 -14z" />
    <glyph glyph-name="slash" unicode="/" horiz-adv-x="458" 
d="M405 682l-264 -679q-5 -15 -21 -15h-52q-10 0 -15 8.5t-1 19.5l266 679q5 15 19 15h52q10 0 15 -8.5t1 -19.5z" />
    <glyph glyph-name="zero" unicode="0" horiz-adv-x="520" 
d="M260 82q51 0 84 31.5t41 86.5q9 63 9 150t-9 150q-7 50 -37.5 83.5t-87.5 34.5q-50 0 -84 -31.5t-41 -86.5q-8 -63 -8 -150t8 -150q7 -50 38 -84t87 -34zM260 708q90 0 146.5 -55.5t68.5 -152.5q7 -62 7 -150t-7 -150q-10 -89 -65.5 -148.5t-149.5 -59.5
q-90 0 -146.5 55.5t-68.5 152.5q-7 61 -7 150.5t7 149.5q11 89 66 148.5t149 59.5z" />
    <glyph glyph-name="one" unicode="1" horiz-adv-x="363" 
d="M278 700q8 0 14 -6t6 -14v-660q0 -8 -6 -14t-14 -6h-53q-8 0 -14 6t-6 14v549q0 4 -3.5 5.5t-5.5 -1.5l-141 -129q-7 -6 -14.5 -3t-7.5 11v61q0 22 11 33l152 145q9 9 20 9h62z" />
    <glyph glyph-name="two" unicode="2" horiz-adv-x="462" 
d="M130 517v-15q0 -8 -6 -14t-14 -6h-52q-20 0 -20 20v15q0 80 55 135.5t135 55.5t134 -55t54 -136q0 -109 -76 -197l-188 -215q-4 -5 -1.5 -10.5t9.5 -5.5h252q20 0 20 -20v-49q0 -20 -20 -20h-362q-8 0 -14 6t-6 14v65q0 16 9 25l226 260q62 71 62 147q0 43 -28 72t-71 29
q-39 0 -68.5 -30.5t-29.5 -70.5z" />
    <glyph glyph-name="three" unicode="3" horiz-adv-x="486" 
d="M125 205v-7q0 -46 32.5 -78.5t83.5 -32.5q50 0 82.5 32.5t32.5 78.5q0 50 -26.5 85.5t-86.5 35.5h-12q-8 0 -14 6t-6 14v53q0 8 6 14t14 6h12q48 0 73 31.5t25 73.5q0 39 -28.5 67.5t-71.5 28.5q-44 0 -72.5 -28.5t-28.5 -67.5v-15q0 -8 -6 -14t-14 -6h-54q-8 0 -14 6
t-6 14v15q0 80 56.5 135.5t138.5 55.5t138.5 -55.5t56.5 -135.5q0 -85 -58 -137q-14 -12 -1 -24q74 -64 74 -158q0 -86 -61.5 -146t-148.5 -60q-88 0 -149.5 60t-61.5 146v7q0 8 6 14t14 6h55q8 0 14 -6t6 -14z" />
    <glyph glyph-name="four" unicode="4" horiz-adv-x="491" 
d="M127 215h169q10 0 10 10v314q0 4 -3 4.5t-5 -2.5l-175 -318q-5 -8 4 -8zM31 232l259 454q8 14 21 14h62q8 0 14 -6t6 -14v-455q0 -10 10 -10h48q8 0 14 -6t6 -14v-45q0 -8 -6 -14t-14 -6h-48q-10 0 -10 -10v-100q0 -8 -6 -14t-14 -6h-47q-8 0 -14 6t-6 14v100
q0 10 -10 10h-261q-8 0 -14 6t-6 14v44q0 12 16 38z" />
    <glyph glyph-name="five" unicode="5" horiz-adv-x="500" 
d="M50 175q0 20 20 20h51q8 0 14 -6t6 -14q0 -40 33.5 -66.5t79.5 -26.5q54 0 85.5 41t31.5 106t-31.5 106t-85.5 41q-30 0 -54 -16.5t-36 -43.5q-5 -11 -19 -11h-54q-8 0 -14 6t-6 14v355q0 8 6 14t14 6h323q8 0 14 -6t6 -14v-50q0 -8 -6 -14t-14 -6h-248q-10 0 -10 -10
v-150q0 -9 6 -12t16 4q30 24 76 24q91 0 148.5 -69.5t57.5 -167.5q0 -99 -56.5 -168t-149.5 -69q-81 0 -142.5 53t-61.5 130z" />
    <glyph glyph-name="six" unicode="6" horiz-adv-x="506" 
d="M260 452q83 0 141 -59.5t64 -145.5q2 -24 0 -52q-5 -86 -63 -144.5t-142 -58.5q-85 0 -142 59t-68 149q-7 62 -7 150t7 150q10 90 65 149t139 59q80 0 136 -55.5t56 -135.5q0 -8 -6 -14t-14 -6h-52q-8 0 -14 6t-6 14q0 41 -26.5 71t-73.5 30q-50 0 -76.5 -27.5
t-37.5 -84.5q-8 -39 -6 -86q0 -6 5 -8.5t11 1.5q52 39 110 39zM148 194q6 -48 35.5 -79t76.5 -31t76.5 31t35.5 79q3 29 0 54q-6 48 -35.5 80t-76.5 32q-48 0 -77 -29t-35 -83q-3 -25 0 -54z" />
    <glyph glyph-name="seven" unicode="7" horiz-adv-x="420" 
d="M66 24l245 576q4 10 -7 10h-274q-8 0 -14 6t-6 14v50q0 8 6 14t14 6h360q8 0 14 -6t6 -14v-67q0 -9 -5 -20l-242 -578q-7 -15 -19 -15h-60q-12 0 -16.5 8t-1.5 16z" />
    <glyph glyph-name="eight" unicode="8" horiz-adv-x="520" 
d="M260 84q54 0 89.5 32.5t35.5 81.5t-35.5 82.5t-89.5 33.5q-55 0 -90 -33.5t-35 -82.5t35 -81.5t90 -32.5zM260 414q50 0 81 29.5t31 73.5t-31 72.5t-81 28.5t-81 -28.5t-31 -72.5t31 -73.5t81 -29.5zM404 356q74 -64 74 -158q0 -87 -62.5 -146.5t-155.5 -59.5
t-155.5 59.5t-62.5 146.5q0 94 74 158q12 11 -1 24q-57 57 -57 137q0 81 57.5 136t145.5 55q87 0 144.5 -55t57.5 -136t-58 -137q-13 -13 -1 -24z" />
    <glyph glyph-name="nine" unicode="9" horiz-adv-x="501" 
d="M353 506q-6 48 -35.5 79t-76.5 31t-76.5 -31t-35.5 -79q-3 -29 0 -54q6 -48 35.5 -80t76.5 -32q48 0 77 29t35 83q3 25 0 54zM245 82q96 0 121 118q7 34 7 83q0 7 -5.5 9t-12.5 -3q-51 -41 -114 -41q-83 0 -141 59.5t-64 145.5q-2 24 0 52q5 86 63 144.5t142 58.5
q85 0 142 -59t68 -149q7 -62 7 -150t-7 -150q-10 -89 -66 -148.5t-140 -59.5q-81 0 -142 56t-61 135q0 8 6 14t14 6h52q8 0 14 -6t6 -14q0 -38 34.5 -69.5t76.5 -31.5z" />
    <glyph glyph-name="colon" unicode=":" horiz-adv-x="283" 
d="M213 110v-90q0 -8 -6 -14t-14 -6h-90q-8 0 -14 6t-6 14v90q0 8 6 14t14 6h90q8 0 14 -6t6 -14zM213 470v-90q0 -8 -6 -14t-14 -6h-90q-8 0 -14 6t-6 14v90q0 8 6 14t14 6h90q8 0 14 -6t6 -14z" />
    <glyph glyph-name="semicolon" unicode=";" horiz-adv-x="284" 
d="M213 470v-90q0 -8 -6 -14t-14 -6h-90q-8 0 -14 6t-6 14v90q0 8 6 14t14 6h90q8 0 14 -6t6 -14zM101 -130q-14 0 -19 11t1 22l46 84q3 5 -0.5 9t-8.5 4h-17q-8 0 -14 6t-6 14v90q0 8 6 14t14 6h90q8 0 14 -6t6 -14v-90q0 -34 -20 -62l-52 -73q-10 -15 -26 -15h-14z" />
    <glyph glyph-name="less" unicode="&#x3c;" horiz-adv-x="480" 
d="M148 246l267 -146q15 -9 15 -21v-60q0 -11 -7.5 -16.5t-15.5 -2.5l-362 204q-15 8 -15 22v49q0 14 15 22l362 203q7 4 15 -2t8 -17v-60q0 -12 -15 -21l-267 -146q-3 -1 -3 -4t3 -4z" />
    <glyph glyph-name="equal" unicode="=" horiz-adv-x="540" 
d="M470 296h-400q-8 0 -14 6t-6 14v52q0 8 6 14t14 6h400q8 0 14 -6t6 -14v-52q0 -8 -6 -14t-14 -6zM470 112h-400q-8 0 -14 6t-6 14v52q0 8 6 14t14 6h400q8 0 14 -6t6 -14v-52q0 -8 -6 -14t-14 -6z" />
    <glyph glyph-name="greater" unicode="&#x3e;" horiz-adv-x="480" 
d="M65 100l267 146q8 4 0 8l-267 146q-15 9 -15 21v60q0 11 8 17t15 2l362 -203q15 -8 15 -22v-49q0 -14 -15 -22l-362 -204q-7 -4 -15 2t-8 17v60q0 12 15 21z" />
    <glyph glyph-name="question" unicode="?" horiz-adv-x="465" 
d="M328 517q0 42 -26 71.5t-70 29.5q-41 0 -68.5 -31t-27.5 -70v-15q0 -8 -6 -14t-14 -6h-51q-8 0 -14 6t-6 14v15q0 81 53.5 137t133.5 56q81 0 134.5 -54t53.5 -139q0 -93 -89 -161q-5 -4 -17 -12.5t-18 -13t-13.5 -12.5t-11 -17.5t-3.5 -20.5v-70q0 -8 -6 -14t-14 -6h-51
q-8 0 -14 6t-6 14v84q0 40 18 61q19 22 49.5 43t42.5 33q41 41 41 86zM285 103v-83q0 -8 -6 -14t-14 -6h-83q-8 0 -14 6t-6 14v83q0 8 6 14t14 6h83q8 0 14 -6t6 -14z" />
    <glyph glyph-name="at" unicode="@" horiz-adv-x="815" 
d="M492 217v113q0 35 -22 53.5t-56 18.5q-47 0 -72.5 -39t-25.5 -94q0 -53 23.5 -91t74.5 -38q34 0 56 20t22 57zM520 3q10 4 17 -0.5t7 -14.5v-28q0 -3 -0.5 -6t-2.5 -5.5t-2.5 -4t-4 -3.5t-4.5 -3t-6 -4l-4 -2q-39 -22 -106 -22q-157 0 -255.5 103.5t-98.5 256.5
q0 159 99 264.5t256 105.5q151 0 245.5 -92t94.5 -243q0 -109 -39 -172t-101 -63q-35 0 -66 20q-24 16 -57 0q-40 -20 -78 -20q-95 0 -140 55.5t-45 143.5q0 89 50.5 146.5t134.5 57.5q70 0 112.5 -39.5t42.5 -103.5v-140q0 -23 11 -36.5t30 -13.5q65 0 65 165
q0 117 -68 190t-192 73q-114 0 -192 -85t-78 -214q0 -120 75.5 -203.5t193.5 -83.5q61 0 106 21z" />
    <glyph glyph-name="A" unicode="A" horiz-adv-x="488" 
d="M182 275h124q11 0 8 11l-65 279q-1 6 -4 6h-2q-3 0 -4 -6l-65 -279q-3 -11 8 -11zM390 15l-44 153q-3 14 -19 14h-166q-14 0 -19 -14l-44 -153q-5 -15 -19 -15h-55q-11 0 -16.5 6t-3.5 14l186 665q3 15 19 15h70q16 0 19 -15l186 -665q2 -8 -3.5 -14t-16.5 -6h-55
q-14 0 -19 15z" />
    <glyph glyph-name="B" unicode="B" horiz-adv-x="505" 
d="M270 322h-102q-4 2 -7 -1.5t-3 -8.5v-207q0 -10 10 -10h102q47 0 81 32t34 77q0 51 -33.5 84.5t-81.5 33.5zM270 700q82 0 139 -53t57 -133q0 -37 -15 -74t-42 -61q-14 -12 0 -22q31 -25 51 -68t20 -85q0 -86 -61.5 -145t-148.5 -59h-185q-8 0 -14 6t-6 14v660q0 8 6 14
t14 6h185zM168 412h102q47 0 74 28.5t27 73.5q0 42 -30 66.5t-71 24.5h-102q-10 0 -10 -10v-173q0 -10 10 -10z" />
    <glyph glyph-name="C" unicode="C" horiz-adv-x="543" 
d="M503 214v-14q0 -85 -64 -146.5t-161 -61.5q-91 0 -152 56t-73 152q-7 61 -7 150.5t7 149.5q10 87 70.5 147.5t154.5 60.5t159.5 -57t65.5 -151v-14q0 -8 -6 -14t-14 -6h-55q-8 0 -14 6t-6 14v14q0 46 -36 79t-94 34q-51 0 -87 -30t-43 -83q-8 -62 -8 -150.5t8 -149.5
q6 -47 40.5 -80t89.5 -33q53 0 91.5 30.5t38.5 82.5v14q0 8 6 14t14 6h55q8 0 14 -6t6 -14z" />
    <glyph glyph-name="D" unicode="D" horiz-adv-x="538" 
d="M275 605h-105q-10 0 -10 -10v-490q0 -10 10 -10h105q44 0 77 34t38 81q8 60 8 140t-8 140q-5 47 -38 81t-77 34zM85 700h190q85 0 142 -60t68 -150q17 -133 0 -280q-10 -89 -67.5 -149.5t-142.5 -60.5h-190q-8 0 -14 6t-6 14v660q0 8 6 14t14 6z" />
    <glyph glyph-name="E" unicode="E" horiz-adv-x="470" 
d="M160 300v-195q0 -10 10 -10h240q8 0 14 -6t6 -14v-55q0 -8 -6 -14t-14 -6h-325q-8 0 -14 6t-6 14v660q0 8 6 14t14 6h323q8 0 14 -6t6 -14v-55q0 -8 -6 -14t-14 -6h-238q-10 0 -10 -10v-180q0 -10 10 -10h227q8 0 14 -6t6 -14v-55q0 -8 -6 -14t-14 -6h-227q-10 0 -10 -10
z" />
    <glyph glyph-name="F" unicode="F" horiz-adv-x="448" 
d="M170 310q-10 0 -10 -10v-280q0 -8 -6 -14t-14 -6h-55q-8 0 -14 6t-6 14v660q0 8 6 14t14 6h323q8 0 14 -6t6 -14v-55q0 -8 -6 -14t-14 -6h-238q-10 0 -10 -10v-180q0 -10 10 -10h227q8 0 14 -6t6 -14v-55q0 -8 -6 -14t-14 -6h-227z" />
    <glyph glyph-name="G" unicode="G" horiz-adv-x="546" 
d="M408 200v84q0 10 -10 10h-91q-8 0 -14 6t-6 14v55q0 8 6 14t14 6h176q8 0 14 -6t6 -14v-169q0 -88 -63.5 -148t-161.5 -60q-91 0 -152 56t-73 152q-7 61 -7 150.5t7 149.5q10 87 70.5 147.5t154.5 60.5t159.5 -57t65.5 -151v-14q0 -8 -6 -14t-14 -6h-55q-8 0 -14 6t-6 14
v14q0 46 -36 79t-94 34q-51 0 -87 -30t-43 -83q-8 -62 -8 -150.5t8 -149.5q6 -47 40.5 -80t89.5 -33t92.5 29t37.5 84z" />
    <glyph glyph-name="H" unicode="H" horiz-adv-x="560" 
d="M400 680q0 8 6 14t14 6h55q8 0 14 -6t6 -14v-660q0 -8 -6 -14t-14 -6h-55q-8 0 -14 6t-6 14v280q0 10 -10 10h-220q-10 0 -10 -10v-280q0 -8 -6 -14t-14 -6h-55q-8 0 -14 6t-6 14v660q0 8 6 14t14 6h55q8 0 14 -6t6 -14v-265q0 -10 10 -10h220q10 0 10 10v265z" />
    <glyph glyph-name="I" unicode="I" horiz-adv-x="225" 
d="M160 680v-660q0 -8 -6 -14t-14 -6h-55q-8 0 -14 6t-6 14v660q0 8 6 14t14 6h55q8 0 14 -6t6 -14z" />
    <glyph glyph-name="J" unicode="J" horiz-adv-x="479" 
d="M5 200v14q0 8 6 14t14 6h55q8 0 14 -6t6 -14v-14q0 -47 34 -80t81 -33q50 0 82.5 32.5t32.5 90.5v470q0 8 6 14t14 6h55q8 0 14 -6t6 -14v-480q0 -92 -60.5 -150t-149.5 -58q-87 0 -148.5 60.5t-61.5 147.5z" />
    <glyph glyph-name="K" unicode="K" horiz-adv-x="499" 
d="M380 10l-212 265q-2 2 -5 2t-3 -4v-253q0 -8 -6 -14t-14 -6h-55q-8 0 -14 6t-6 14v660q0 8 6 14t14 6h55q8 0 14 -6t6 -14v-240q0 -4 3 -4t5 2l194 252q8 10 22 10h55q14 0 19.5 -12.5t-2.5 -23.5l-228 -291q-10 -14 -1 -24l256 -312q9 -10 3.5 -23.5t-21.5 -13.5h-63
q-12 0 -22 10z" />
    <glyph glyph-name="L" unicode="L" horiz-adv-x="424" 
d="M160 680v-575q0 -10 10 -10h224q8 0 14 -6t6 -14v-55q0 -8 -6 -14t-14 -6h-309q-8 0 -14 6t-6 14v660q0 8 6 14t14 6h55q8 0 14 -6t6 -14z" />
    <glyph glyph-name="M" unicode="M" horiz-adv-x="702" 
d="M208 683l138 -494q2 -5 5 -5t5 5l138 494q4 17 21 17h102q8 0 14 -6t6 -14v-660q0 -8 -6 -14t-14 -6h-53q-8 0 -14 6t-6 14v500q0 6 -5 5q-2 -1 -3 -3l-143 -505q-6 -17 -21 -17h-42q-15 0 -21 17l-143 505q-1 5 -6 2q-2 -1 -2 -4v-500q0 -8 -6 -14t-14 -6h-53
q-8 0 -14 6t-6 14v660q0 8 6 14t14 6h102q17 0 21 -17z" />
    <glyph glyph-name="N" unicode="N" 
d="M465 0h-83q-15 0 -21 17l-197 495q-2 3 -5 2.5t-3 -4.5v-490q0 -8 -6 -14t-14 -6h-51q-8 0 -14 6t-6 14v660q0 8 6 14t14 6h83q15 0 21 -17l197 -493q2 -3 5 -2.5t3 4.5v488q0 8 6 14t14 6h51q8 0 14 -6t6 -14v-660q0 -8 -6 -14t-14 -6z" />
    <glyph glyph-name="O" unicode="O" horiz-adv-x="556" 
d="M278 87q51 0 87 30t43 83q9 63 8.5 150t-8.5 150q-6 48 -40 80.5t-90 32.5q-51 0 -87 -30t-43 -83q-8 -62 -8 -150.5t8 -149.5q6 -47 40.5 -80t89.5 -33zM278 708q91 0 152 -56t73 -152q7 -62 7 -150t-7 -150q-10 -87 -70 -147.5t-155 -60.5q-91 0 -152 56t-73 152
q-7 61 -7 150.5t7 149.5q10 87 70.5 147.5t154.5 60.5z" />
    <glyph glyph-name="P" unicode="P" horiz-adv-x="485" 
d="M85 700h180q87 0 148.5 -61.5t61.5 -148.5t-61.5 -148.5t-148.5 -61.5h-95q-10 0 -10 -10v-250q0 -8 -6 -14t-14 -6h-55q-8 0 -14 6t-6 14v660q0 8 6 14t14 6zM265 605h-95q-10 0 -10 -10v-210q0 -10 10 -10h95q47 0 81 34t34 81t-34 81t-81 34z" />
    <glyph glyph-name="Q" unicode="Q" horiz-adv-x="556" 
d="M278 87q51 0 87 30t43 83q9 63 8.5 150t-8.5 150q-6 48 -40 80t-90 33q-51 0 -87 -30t-43 -83q-8 -62 -8 -150.5t8 -149.5q6 -47 40.5 -80t89.5 -33zM439 59q-6 -6 -3 -14l53 -107q5 -10 -0.5 -19t-15.5 -9h-61q-12 0 -20 15l-37 71q-5 8 -24 2q-24 -6 -53 -6
q-91 0 -152 56t-73 152q-7 61 -7 150.5t7 149.5q10 87 70.5 147.5t154.5 60.5q91 0 152 -56t73 -152q7 -62 7 -150t-7 -150q-9 -83 -64 -141z" />
    <glyph glyph-name="R" unicode="R" horiz-adv-x="520" 
d="M231 280h-61q-10 0 -10 -10v-250q0 -8 -6 -14t-14 -6h-55q-8 0 -14 6t-6 14v660q0 8 6 14t14 6h180q87 0 148.5 -61.5t61.5 -148.5q0 -56 -28.5 -103.5t-75.5 -75.5q-28 -16 -17 -38l118 -243q6 -11 0.5 -20.5t-19.5 -9.5h-56q-19 0 -29 20l-118 248q-6 12 -19 12z
M265 605h-95q-10 0 -10 -10v-210q0 -10 10 -10h95q47 0 81 34t34 81t-34 81t-81 34z" />
    <glyph glyph-name="S" unicode="S" horiz-adv-x="510" 
d="M384 200q0 27 -9 47t-19.5 31.5t-38 22t-43.5 15t-58 13.5q-77 17 -122 65t-45 126q0 86 62 137t144 51q88 0 146.5 -55t58.5 -133v-13q0 -8 -6 -14t-14 -6h-55q-8 0 -14 6t-6 14v13q0 46 -33 69.5t-77 23.5q-49 0 -79.5 -25.5t-30.5 -67.5q0 -18 4 -33t15 -25.5
t18.5 -17.5t27 -13.5t26.5 -9t31 -8t28 -6.5q185 -45 185 -207q0 -93 -67 -150.5t-158 -57.5q-96 0 -160.5 61t-64.5 147v16q0 8 6 14t14 6h56q8 0 14 -6t6 -14v-16q0 -49 36.5 -81t92.5 -32t92.5 32.5t36.5 80.5z" />
    <glyph glyph-name="T" unicode="T" horiz-adv-x="424" 
d="M270 605q-10 0 -10 -10v-575q0 -8 -6 -14t-14 -6h-55q-8 0 -14 6t-6 14v575q0 10 -10 10h-133q-8 0 -14 6t-6 14v55q0 8 6 14t14 6h380q8 0 14 -6t6 -14v-55q0 -8 -6 -14t-14 -6h-132z" />
    <glyph glyph-name="U" unicode="U" horiz-adv-x="558" 
d="M504 680v-480q0 -89 -66.5 -148.5t-158.5 -59.5q-97 0 -161 59t-64 149v480q0 8 6 14t14 6h55q8 0 14 -6t6 -14v-480q0 -56 38 -84.5t92 -28.5q57 0 93.5 32.5t36.5 80.5v480q0 8 6 14t14 6h55q8 0 14 -6t6 -14z" />
    <glyph glyph-name="V" unicode="V" horiz-adv-x="501" 
d="M495 677l-187 -662q-4 -15 -19 -15h-78q-15 0 -19 15l-186 661q-3 8 2.5 16t16.5 8h60q15 0 19 -15l139 -533q1 -6 6 -6h2q5 0 6 6l139 533q4 15 19 15h61q11 0 16 -7t3 -16z" />
    <glyph glyph-name="W" unicode="W" horiz-adv-x="719" 
d="M262 15q-3 -15 -19 -15h-85q-16 0 -19 15l-133 665q-2 8 3.5 14t16.5 6h54q16 0 19 -15l98 -513q1 -6 6 -6h2q5 0 6 6l86 513q3 15 19 15h70q16 0 19 -15l94 -513q1 -6 6 -6h2q5 0 6 6l107 513q3 15 19 15h54q11 0 16.5 -6t3.5 -14l-142 -665q-3 -15 -19 -15h-85
q-16 0 -19 15l-92 499q-1 4 -4 4t-4 -4z" />
    <glyph glyph-name="X" unicode="X" horiz-adv-x="499" 
d="M245 263l-124 -248q-7 -15 -21 -15h-66q-10 0 -15.5 9t-0.5 19l171 334q5 8 1 14l-157 296q-5 10 0.5 19t15.5 9h64q12 0 19 -15l113 -217q4 -10 8 0l113 217q7 15 19 15h64q10 0 15.5 -9t0.5 -19l-157 -296q-4 -6 1 -14l172 -334q5 -10 -0.5 -19t-15.5 -9h-68
q-13 0 -20 15l-124 248q-4 10 -8 0z" />
    <glyph glyph-name="Y" unicode="Y" horiz-adv-x="458" 
d="M113 685l113 -311q4 -10 8 0l111 311q5 15 19 15h66q10 0 15 -8.5t1 -19.5l-168 -431v-221q0 -8 -6 -14t-14 -6h-56q-8 0 -14 6t-6 14v220l-170 432q-4 11 1 19.5t15 8.5h66q14 0 19 -15z" />
    <glyph glyph-name="Z" unicode="Z" horiz-adv-x="480" 
d="M431 592l-290 -489q-6 -10 6 -10h279q8 0 14 -6t6 -14v-53q0 -8 -6 -14t-14 -6h-372q-8 0 -14 6t-6 14v75q0 8 5 16l294 487q6 10 -6 10h-263q-8 0 -14 6t-6 14v52q0 8 6 14t14 6h352q8 0 14 -6t6 -14v-72q0 -8 -5 -16z" />
    <glyph glyph-name="bracketleft" unicode="[" horiz-adv-x="292" 
d="M157 623v-616q0 -10 10 -10h95q8 0 14 -6t6 -14v-47q0 -8 -6 -14t-14 -6h-172q-8 0 -14 6t-6 14v770q0 8 6 14t14 6h170q8 0 14 -6t6 -14v-47q0 -8 -6 -14t-14 -6h-93q-10 0 -10 -10z" />
    <glyph glyph-name="backslash" unicode="\" horiz-adv-x="458" 
d="M317 3l-264 679q-4 11 1 19.5t15 8.5h52q14 0 19 -15l266 -679q4 -11 -1 -19.5t-15 -8.5h-52q-16 0 -21 15z" />
    <glyph glyph-name="bracketright" unicode="]" horiz-adv-x="292" 
d="M30 -3h95q10 0 10 10v616q0 10 -10 10h-93q-8 0 -14 6t-6 14v47q0 8 6 14t14 6h170q8 0 14 -6t6 -14v-770q0 -8 -6 -14t-14 -6h-172q-8 0 -14 6t-6 14v47q0 8 6 14t14 6z" />
    <glyph glyph-name="asciicircum" unicode="^" horiz-adv-x="508" 
d="M248 650l-50 -49q-16 -16 -31 -16h-59q-9 0 -12.5 8.5t1.5 12.5l108 112q12 12 30 12h42q17 0 29 -12l108 -112q5 -4 1.5 -12.5t-12.5 -8.5h-59q-15 0 -31 16l-51 49q-7 7 -14 0z" />
    <glyph glyph-name="underscore" unicode="_" horiz-adv-x="610" 
d="M40 0h530q8 0 14 -6t6 -14v-35q0 -8 -6 -14t-14 -6h-530q-8 0 -14 6t-6 14v35q0 8 6 14t14 6z" />
    <glyph glyph-name="grave" unicode="`" horiz-adv-x="297" 
d="M64 730h79q15 0 26 -16l76 -109q4 -6 -0.5 -13t-13.5 -7h-40q-18 0 -30 12l-108 112q-5 5 -1.5 13t12.5 8z" />
    <glyph glyph-name="a" unicode="a" horiz-adv-x="487" 
d="M338 220h-130q-75 0 -75 -69q0 -37 23 -57.5t66 -20.5q67 0 96.5 26t29.5 79v32q0 10 -10 10zM247 430q-33 0 -63 -15.5t-30 -47.5q0 -17 -23 -17h-45q-20 0 -20 20q0 65 55.5 102.5t125.5 37.5q183 0 183 -160v-330q0 -8 -6 -14t-14 -6h-34q-8 0 -14 7q-1 2 -5 8.5
t-7 9.5t-8 3q-6 0 -20 -9.5t-39.5 -19t-57.5 -9.5q-88 0 -135 46t-47 114q0 65 44.5 108.5t120.5 43.5h122q10 0 10 10v38q0 39 -25 59.5t-68 20.5z" />
    <glyph glyph-name="b" unicode="b" horiz-adv-x="505" 
d="M145 320q-5 -70 0 -140q3 -42 34 -71t81 -29t81 29t34 71q5 70 0 140q-3 42 -34 71t-81 29t-81 -29t-34 -71zM270 -10q-43 0 -73 16.5t-39 16.5q-11 0 -25 -16q-7 -7 -14 -7h-34q-8 0 -14 6t-6 14v667q0 8 6 14t14 6h50q8 0 14 -6t6 -14v-177q0 -25 22 -25q7 0 37 12.5
t56 12.5q77 0 130.5 -55t59.5 -135q5 -70 0 -140q-6 -80 -59.5 -135t-130.5 -55z" />
    <glyph glyph-name="c" unicode="c" horiz-adv-x="478" 
d="M347 163q0 17 19 17h52q8 0 14 -6t6 -14q0 -73 -54.5 -121.5t-138.5 -48.5q-87 0 -140.5 54t-59.5 136q-5 70 0 140q6 82 59.5 136t140.5 54q84 0 138.5 -48.5t54.5 -121.5q0 -20 -17 -20h-54q-19 0 -19 16q0 36 -28.5 60t-74.5 24q-49 0 -78 -29t-32 -71q-5 -70 0 -140
q3 -42 32 -71t78 -29q45 0 73.5 23.5t28.5 59.5z" />
    <glyph glyph-name="d" unicode="d" horiz-adv-x="505" 
d="M130 320q-5 -70 0 -140q3 -42 34 -71t81 -29t81 29t34 71q5 70 0 140q-3 42 -34 71t-81 29t-81 -29t-34 -71zM235 -10q-77 0 -130.5 55t-59.5 135q-5 70 0 140q6 80 59.5 135t130.5 55q26 0 56 -12.5t37 -12.5q22 0 22 25v177q0 8 6 14t14 6h50q8 0 14 -6t6 -14v-667
q0 -8 -6 -14t-14 -6h-34q-7 0 -14 7q-14 16 -25 16q-9 0 -39 -16.5t-73 -16.5z" />
    <glyph glyph-name="e" unicode="e" horiz-adv-x="492" 
d="M251 420q-51 0 -83 -31t-32 -78q0 -10 10 -10h208q10 0 10 10q0 50 -32.5 79.5t-80.5 29.5zM430 221h-286q-10 0 -10 -10q0 -66 31 -98.5t85 -32.5q38 0 66 17.5t37 45.5q5 17 23 17h51q20 0 17 -20q-9 -66 -63 -108t-131 -42q-87 0 -143 54.5t-62 135.5q-5 70 0 140
q6 81 62 135.5t143 54.5q91 0 145.5 -53.5t54.5 -146.5v-69q0 -8 -6 -14t-14 -6z" />
    <glyph glyph-name="f" unicode="f" horiz-adv-x="342" 
d="M305 620h-10q-39 0 -67 -30.5t-28 -69.5v-15q0 -10 10 -10h102q8 0 14 -6t6 -14v-50q0 -8 -6 -14t-14 -6h-102q-10 0 -10 -10v-375q0 -8 -6 -14t-14 -6h-50q-8 0 -14 6t-6 14v375q0 10 -10 10h-75q-8 0 -14 6t-6 14v50q0 8 6 14t14 6h75q10 0 10 10v15q0 79 53 133
t132 54h10q8 0 14 -6t6 -14v-47q0 -8 -6 -14t-14 -6z" />
    <glyph glyph-name="g" unicode="g" horiz-adv-x="502" 
d="M360 180q5 70 0 140q-3 42 -34 71t-81 29t-81 -29t-34 -71q-5 -70 0 -140q3 -42 34 -71t81 -29t81 29t34 71zM235 510q43 0 73 -16.5t39 -16.5q11 0 25 16q7 7 14 7h34q8 0 14 -6t6 -14v-510q0 -74 -52.5 -127t-130.5 -53q-70 0 -121 36t-61 101q-3 23 18 23h48
q13 0 17.5 -4t7.5 -13q0 -1 0.5 -1.5t0.5 -1.5q20 -50 90 -50q39 0 66 25t27 65v22q0 25 -22 23q-6 0 -36 -12.5t-57 -12.5q-77 0 -130.5 55t-59.5 135q-5 70 0 140q6 80 59.5 135t130.5 55z" />
    <glyph glyph-name="h" unicode="h" horiz-adv-x="514" 
d="M369 20v300q0 40 -31 70t-76 30q-46 0 -76.5 -27.5t-30.5 -67.5v-305q0 -8 -6 -14t-14 -6h-50q-8 0 -14 6t-6 14v667q0 8 6 14t14 6h50q8 0 14 -6t6 -14v-181q0 -8 6 -14.5t16 -6.5q7 0 36.5 12.5t55.5 12.5q79 0 134.5 -55.5t55.5 -134.5v-300q0 -8 -6 -14t-14 -6h-50
q-8 0 -14 6t-6 14z" />
    <glyph glyph-name="i" unicode="i" horiz-adv-x="230" 
d="M165 691v-69q0 -16 -16 -16h-68q-16 0 -16 16v69q0 6 4.5 11t11.5 5h68q7 0 11.5 -5t4.5 -11zM162 480v-460q0 -8 -6 -14t-14 -6h-52q-8 0 -14 6t-6 14v460q0 8 6 14t14 6h52q8 0 14 -6t6 -14z" />
    <glyph glyph-name="j" unicode="j" horiz-adv-x="249" 
d="M87 -30v510q0 8 6 14t14 6h53q8 0 14 -6t6 -14v-510q0 -74 -52.5 -127t-130.5 -53h-52q-8 0 -14 6t-6 14v50q0 8 6 14t14 6h52q38 0 64 25t26 65zM184 691v-69q0 -16 -16 -16h-68q-16 0 -16 16v69q0 6 4.5 11t11.5 5h68q7 0 11.5 -5t4.5 -11z" />
    <glyph glyph-name="k" unicode="k" horiz-adv-x="439" 
d="M404 467l-181 -193q-11 -11 0 -24l200 -217q9 -10 3.5 -21.5t-19.5 -11.5h-67q-11 0 -26 15l-151 164q-2 2 -5 2t-3 -4v-157q0 -8 -6 -14t-14 -6h-50q-8 0 -14 6t-6 14v667q0 8 6 14t14 6h50q8 0 14 -6t6 -14v-348q0 -4 3 -4.5t5 2.5l143 150q13 13 25 13h57
q15 0 19.5 -13t-3.5 -20z" />
    <glyph glyph-name="l" unicode="l" horiz-adv-x="220" 
d="M155 687v-667q0 -8 -6 -14t-14 -6h-50q-8 0 -14 6t-6 14v667q0 8 6 14t14 6h50q8 0 14 -6t6 -14z" />
    <glyph glyph-name="m" unicode="m" horiz-adv-x="769" 
d="M624 20v300q0 41 -26.5 70.5t-70.5 29.5q-43 0 -69 -29t-26 -66v-305q0 -8 -6 -14t-14 -6h-49q-8 0 -14 6t-6 14v300q0 40 -27.5 70t-68.5 30q-43 0 -70 -29t-27 -66v-305q0 -8 -6 -14t-14 -6h-50q-8 0 -14 6t-6 14v460q0 8 6 14t14 6h44q7 0 14 -7q14 -16 25 -16
q12 0 43.5 16.5t65.5 16.5q24 0 48 -9.5t33.5 -16.5t27.5 -22q19 -16 39 0q59 48 117 48q84 0 130.5 -52t46.5 -138v-300q0 -8 -6 -14t-14 -6h-50q-8 0 -14 6t-6 14z" />
    <glyph glyph-name="n" unicode="n" horiz-adv-x="515" 
d="M460 320v-300q0 -8 -6 -14t-14 -6h-50q-8 0 -14 6t-6 14v300q0 47 -31 73.5t-79 26.5q-47 0 -78.5 -26t-31.5 -69v-305q0 -8 -6 -14t-14 -6h-50q-8 0 -14 6t-6 14v460q0 8 6 14t14 6h44q7 0 14 -7q14 -16 25 -16q9 0 38 16.5t69 16.5q85 0 137.5 -51.5t52.5 -138.5z" />
    <glyph glyph-name="o" unicode="o" horiz-adv-x="500" 
d="M135 320q-5 -70 0 -140q3 -42 34 -71t81 -29t81 29t34 71q5 70 0 140q-3 42 -34 71t-81 29t-81 -29t-34 -71zM45 180q-5 70 0 140q6 81 62 135.5t143 54.5t143 -54.5t62 -135.5q5 -70 0 -140q-6 -81 -62 -135.5t-143 -54.5t-143 54.5t-62 135.5z" />
    <glyph glyph-name="p" unicode="p" horiz-adv-x="502" 
d="M372 180q5 70 0 140q-3 42 -34 71t-81 29t-81 -29t-34 -71q-5 -70 0 -140q3 -42 34 -71t81 -29t81 29t34 71zM267 510q77 0 130.5 -55t59.5 -135q5 -70 0 -140q-6 -80 -59.5 -135t-130.5 -55q-26 0 -56 12.5t-37 12.5q-22 0 -22 -25v-170q0 -8 -6 -14t-14 -6h-50
q-8 0 -14 6t-6 14v660q0 8 6 14t14 6h34q7 0 14 -7q14 -16 25 -16q9 0 39 16.5t73 16.5z" />
    <glyph glyph-name="q" unicode="q" horiz-adv-x="502" 
d="M360 180q5 70 0 140q-3 42 -34 71t-81 29t-81 -29t-34 -71q-5 -70 0 -140q3 -42 34 -71t81 -29t81 29t34 71zM235 510q43 0 73 -16.5t39 -16.5q11 0 25 16q7 7 14 7h34q8 0 14 -6t6 -14v-660q0 -8 -6 -14t-14 -6h-50q-8 0 -14 6t-6 14v170q0 25 -22 25q-7 0 -37 -12.5
t-56 -12.5q-77 0 -130.5 55t-59.5 135q-5 70 0 140q6 80 59.5 135t130.5 55z" />
    <glyph glyph-name="r" unicode="r" horiz-adv-x="345" 
d="M320 411h-20q-65 0 -107.5 -37t-42.5 -114v-240q0 -8 -6 -14t-14 -6h-50q-8 0 -14 6t-6 14v460q0 8 6 14t14 6h34q16 0 20 -20q1 -3 1.5 -8.5t1.5 -9.5t3 -8.5t5 -6.5t7 -2q8 0 23 13.5t46.5 27.5t78.5 14h20q8 0 14 -6t6 -14v-49q0 -8 -6 -14t-14 -6z" />
    <glyph glyph-name="s" unicode="s" horiz-adv-x="459" 
d="M413 360q0 -8 -6 -14t-14 -6h-50q-8 0 -14 6t-6 14q0 28 -23 46.5t-70 18.5q-43 0 -65.5 -18t-22.5 -42q0 -27 22.5 -40t65.5 -21q23 -4 29.5 -5t28.5 -6t30.5 -8.5t27.5 -10.5t27 -14.5t21 -18.5t18.5 -24t10 -30t4.5 -37q0 -76 -57 -118t-140 -42q-82 0 -140 41
t-58 119v13q0 8 6 14t14 6h50q8 0 14 -6t6 -14v-13q0 -40 32.5 -57t75.5 -17q107 0 107 74q0 15 -7.5 25.5t-25 17.5t-32.5 11t-42 10q-33 7 -51.5 11.5t-47 16.5t-43.5 26t-27 39.5t-12 57.5q0 65 54.5 105t126.5 40q74 0 128.5 -41t54.5 -109z" />
    <glyph glyph-name="t" unicode="t" horiz-adv-x="360" 
d="M205 495h115q8 0 14 -6t6 -14v-50q0 -8 -6 -14t-14 -6h-115q-10 0 -10 -10v-235q0 -73 80 -73h55q8 0 14 -6t6 -14v-47q0 -8 -6 -14t-14 -6h-55q-170 0 -170 160v235q0 10 -10 10h-70q-8 0 -14 6t-6 14v50q0 8 6 14t14 6h70q10 0 10 10v155q0 8 6 14t14 6h50q8 0 14 -6
t6 -14v-155q0 -10 10 -10z" />
    <glyph glyph-name="u" unicode="u" horiz-adv-x="515" 
d="M55 180v300q0 8 6 14t14 6h50q8 0 14 -6t6 -14v-300q0 -44 29.5 -72t80.5 -28q47 0 78.5 26t31.5 69v305q0 8 6 14t14 6h50q8 0 14 -6t6 -14v-460q0 -8 -6 -14t-14 -6h-44q-7 0 -14 7q-14 16 -25 16q-9 0 -36.5 -16.5t-70.5 -16.5q-84 0 -137 53.5t-53 136.5z" />
    <glyph glyph-name="v" unicode="v" horiz-adv-x="470" 
d="M242 152l116 333q5 15 19 15h62q11 0 16.5 -7.5t2.5 -15.5l-176 -462q-6 -15 -19 -15h-55q-13 0 -19 15l-177 462q-3 8 2.5 15.5t16.5 7.5h62q14 0 19 -15l116 -333q2 -5 7 -5t7 5z" />
    <glyph glyph-name="w" unicode="w" horiz-adv-x="668" 
d="M111 485l77 -324q2 -6 7 -6t6 6l88 324q4 15 19 15h52q15 0 19 -15l88 -324q1 -6 6 -6t7 6l77 324q4 15 19 15h57q11 0 16 -7.5t3 -15.5l-130 -462q-4 -15 -19 -15h-55q-14 0 -19 15l-91 330q-1 3 -4 3t-4 -3l-91 -330q-5 -15 -19 -15h-55q-15 0 -19 15l-130 462
q-2 8 3 15.5t16 7.5h57q15 0 19 -15z" />
    <glyph glyph-name="x" unicode="x" horiz-adv-x="462" 
d="M336 10l-101 170q-4 8 -8 0l-101 -170q-6 -10 -22 -10h-58q-14 0 -19 10.5t3 22.5l141 224q4 7 1 13l-125 197q-8 12 -3 22.5t19 10.5h56q16 0 22 -10l86 -145q4 -8 8 0l86 145q6 10 22 10h56q14 0 19 -10.5t-3 -22.5l-125 -197q-3 -6 1 -13l141 -224q8 -12 3 -22.5
t-19 -10.5h-58q-16 0 -22 10z" />
    <glyph glyph-name="y" unicode="y" horiz-adv-x="462" 
d="M106 485l123 -325q4 -10 8 0l116 325q5 15 19 15h59q11 0 16.5 -7.5t2.5 -15.5l-254 -662q-5 -15 -19 -15h-54q-11 0 -16.5 7.5t-2.5 15.5l74 204q3 8 1 13l-172 437q-3 8 2.5 15.5t16.5 7.5h61q14 0 19 -15z" />
    <glyph glyph-name="z" unicode="z" horiz-adv-x="460" 
d="M43 110l263 294q3 4 1.5 7t-6.5 3h-241q-8 0 -14 6t-6 14v46q0 8 6 14t14 6h340q8 0 14 -6t6 -14v-57q0 -17 -20 -41l-252 -286q-3 -4 -1.5 -7t6.5 -3h257q8 0 14 -6t6 -14v-46q0 -8 -6 -14t-14 -6h-360q-8 0 -14 6t-6 14v59q0 16 13 31z" />
    <glyph glyph-name="braceleft" unicode="{" horiz-adv-x="346" 
d="M294 -2h22q8 0 14 -6t6 -14v-48q0 -8 -6 -14t-14 -6h-22q-95 0 -150 61.5t-55 148.5v135q0 12 -18 20l-11 5q-20 8 -20 20v40q0 12 20 20l11 5q18 8 18 20v125q0 87 55 148.5t150 61.5h12q8 0 14 -6t6 -14v-48q0 -8 -6 -14t-14 -6h-12q-50 0 -82.5 -33.5t-32.5 -88.5
v-125q0 -40 -41 -65q41 -25 41 -65v-135q0 -55 32.5 -88.5t82.5 -33.5z" />
    <glyph glyph-name="bar" unicode="|" horiz-adv-x="225" 
d="M155 700v-750q0 -8 -6 -14t-14 -6h-45q-8 0 -14 6t-6 14v750q0 8 6 14t14 6h45q8 0 14 -6t6 -14z" />
    <glyph glyph-name="braceright" unicode="}" horiz-adv-x="346" 
d="M30 -2h22q50 0 82.5 33.5t32.5 88.5v135q0 40 41 65q-41 25 -41 65v125q0 55 -32.5 88.5t-82.5 33.5h-12q-8 0 -14 6t-6 14v48q0 8 6 14t14 6h12q95 0 150 -61.5t55 -148.5v-125q0 -12 18 -20l11 -5q20 -8 20 -20v-40q0 -12 -20 -20l-11 -5q-18 -8 -18 -20v-135
q0 -87 -55 -148.5t-150 -61.5h-22q-8 0 -14 6t-6 14v48q0 8 6 14t14 6z" />
    <glyph glyph-name="asciitilde" unicode="~" horiz-adv-x="548" 
d="M161 235q-17 0 -35.5 -8t-26.5 -18q-5 -6 -12 -8t-12 3t-5 14v50q0 27 26.5 44t64.5 17q52 0 112.5 -22.5t115.5 -22.5q17 0 35.5 8t26.5 18q5 6 12 8t12 -3t5 -14v-50q0 -27 -26.5 -44t-64.5 -17q-51 0 -112 22.5t-116 22.5z" />
    <glyph glyph-name="exclamdown" unicode="&#xa1;" horiz-adv-x="263" 
d="M159 -190h-56q-8 0 -14 6t-6 14v470q0 8 6 14t14 6h56q8 0 14 -6t6 -14v-470q0 -8 -6 -14t-14 -6zM70 407v83q0 8 6 14t14 6h83q8 0 14 -6t6 -14v-83q0 -8 -6 -14t-14 -6h-83q-8 0 -14 6t-6 14z" />
    <glyph glyph-name="cent" unicode="&#xa2;" horiz-adv-x="478" 
d="M300 504q63 -17 100.5 -61t37.5 -103q0 -20 -17 -20h-54q-19 0 -19 16q0 36 -28.5 60t-74.5 24q-49 0 -78 -29t-32 -71q-5 -70 0 -140q3 -42 32 -71t78 -29q45 0 73.5 23.5t28.5 59.5q0 17 19 17h52q8 0 14 -6t6 -14q0 -60 -37.5 -104.5t-100.5 -59.5q-10 -3 -10 -10v-36
q0 -8 -6 -14t-14 -6h-45q-8 0 -14 6t-6 14v35q0 7 -10 10q-66 15 -105.5 65.5t-44.5 119.5q-5 70 0 140q5 69 44.5 119t104.5 65q11 3 11 10v36q0 8 6 14t14 6h45q8 0 14 -6t6 -14v-36q0 -7 10 -10z" />
    <glyph glyph-name="sterling" unicode="&#xa3;" horiz-adv-x="525" 
d="M475 540v-10q0 -8 -6 -14t-14 -6h-54q-8 0 -14 6t-6 14v10q0 32 -22 53.5t-54 21.5t-53 -21.5t-21 -53.5v-127q0 -10 10 -10h136q8 0 14 -6t6 -14v-51q0 -8 -6 -14t-14 -6h-136q-10 0 -10 -12v-90q0 -82 -24 -107q-3 -3 -2 -5.5t6 -2.5h254q8 0 14 -6t6 -14v-55
q0 -8 -6 -14t-14 -6h-404q-9 0 -15 6t-6 14v55q0 8 6 14t14 6h5q31 0 51 31.5t20 83.5v90q0 12 -10 12h-57q-8 0 -14 6t-6 14v51q0 8 6 14t14 6h57q10 0 10 10v127q0 71 49.5 120.5t119.5 49.5q71 0 120.5 -50t49.5 -120z" />
    <glyph glyph-name="currency" unicode="&#xa4;" horiz-adv-x="664" 
d="M550 51q-15 -13 -28 0l-75 74q-53 -33 -115 -33q-63 0 -116 33l-75 -75q-14 -14 -27 1l-37 37q-15 13 -1 27l75 75q-35 54 -35 118q0 63 33 115l-72 73q-13 13 0 28l37 37q15 13 28 0l72 -72q54 35 118 35q63 0 117 -35l74 73q14 14 27 -1l37 -37q15 -13 1 -27l-74 -73
q34 -55 34 -116q0 -65 -36 -118l75 -74q13 -13 0 -28zM332 182q52 0 89 37t37 89t-37 89t-89 37t-89 -37t-37 -89t37 -89t89 -37z" />
    <glyph glyph-name="yen" unicode="&#xa5;" horiz-adv-x="458" 
d="M409 364h-76q-7 0 -9 -5l-13 -37q-2 -4 0 -8t7 -4h91q8 0 14 -6t6 -14v-43q0 -8 -6 -14t-14 -6h-121q-10 0 -10 -10v-197q0 -8 -6 -14t-14 -6h-56q-8 0 -14 6t-6 14v197q0 10 -10 10h-123q-8 0 -14 6t-6 14v43q0 8 6 14t14 6h92q5 0 7 4t0 8l-13 37q-2 5 -9 5h-77
q-8 0 -14 6t-6 14v44q0 8 6 14t14 6h39q11 0 7 12l-83 212q-4 11 1 19.5t15 8.5h66q14 0 19 -15l113 -311q4 -10 8 0l111 311q5 15 19 15h66q10 0 15 -8.5t1 -19.5l-82 -212q-4 -12 7 -12h38q8 0 14 -6t6 -14v-44q0 -8 -6 -14t-14 -6z" />
    <glyph glyph-name="brokenbar" unicode="&#xa6;" horiz-adv-x="216" 
d="M151 687v-267q0 -8 -6 -14t-14 -6h-46q-8 0 -14 6t-6 14v267q0 8 6 14t14 6h46q8 0 14 -6t6 -14zM151 287v-267q0 -8 -6 -14t-14 -6h-46q-8 0 -14 6t-6 14v267q0 8 6 14t14 6h46q8 0 14 -6t6 -14z" />
    <glyph glyph-name="section" unicode="&#xa7;" horiz-adv-x="530" 
d="M178 242l150 -126q8 -10 20 0q41 33 41 68q0 33 -30 58l-151 130q-10 8 -20 0q-41 -36 -41 -71q0 -32 31 -59zM127 427q13 9 2 23q-32 44 -32 93q0 73 54 117t125 44q75 0 124.5 -45.5t49.5 -120.5v-18q0 -8 -6 -14t-14 -6h-54q-8 0 -14 6t-6 14v18q0 32 -22 53t-58 21
q-35 0 -57 -17t-22 -48q0 -44 33 -71l189 -162q38 -32 50.5 -61.5t12.5 -71.5q0 -75 -69 -128q-12 -9 -1 -23q27 -34 27 -87q0 -71 -54 -114t-125 -43q-76 0 -127 43t-51 122v29q0 8 6 14t14 6h54q8 0 14 -6t6 -14v-29q0 -74 84 -74q78 0 78 66q0 33 -37 65l-172 148
q-46 40 -61 73t-15 76q0 67 74 122z" />
    <glyph glyph-name="dieresis" unicode="&#xa8;" horiz-adv-x="398" 
d="M164 691v-69q0 -16 -16 -16h-68q-16 0 -16 16v69q0 6 4.5 11t11.5 5h68q7 0 11.5 -5t4.5 -11zM335 691v-69q0 -16 -16 -16h-68q-16 0 -16 16v69q0 6 4.5 11t11.5 5h68q7 0 11.5 -5t4.5 -11z" />
    <glyph glyph-name="copyright" unicode="&#xa9;" horiz-adv-x="780" 
d="M40 350q0 145 102.5 247.5t247.5 102.5t247.5 -102.5t102.5 -247.5t-102.5 -247.5t-247.5 -102.5t-247.5 102.5t-102.5 247.5zM390 620q-112 0 -191 -79t-79 -191t79 -191t191 -79t191 79t79 191t-79 191t-191 79zM544 274q0 -59 -44.5 -98.5t-111.5 -39.5
q-71 0 -114 43.5t-48 110.5q-3 57 0 114q6 66 48.5 110t113.5 44q67 0 111.5 -39.5t44.5 -98.5q0 -16 -13 -16h-54q-16 0 -16 12q0 59 -73 59t-80 -71q-2 -57 0 -114q7 -71 80 -71q72 0 72 58q0 13 16 13h52q16 0 16 -16z" />
    <glyph glyph-name="ordfeminine" unicode="&#xaa;" horiz-adv-x="313" 
d="M202 558h-55q-37 0 -37 -28q0 -27 44 -27q21 0 37 10.5t16 30.5v9q0 5 -5 5zM162 655q-43 0 -43 -19q0 -8 -11 -8h-37q-10 0 -10 10q0 33 29.5 51.5t71.5 18.5q41 0 71 -23.5t30 -66.5v-155q0 -10 -10 -10h-27q-4 0 -7 3q-8 11 -10 11q-1 0 -21 -9.5t-42 -9.5
q-45 0 -70.5 23t-25.5 57t22.5 58.5t64.5 24.5h61q5 0 5 5v9q0 30 -41 30z" />
    <glyph glyph-name="guillemotleft" unicode="&#xab;" horiz-adv-x="492" 
d="M56 274l96 161q9 15 25 15h45q15 0 20 -9t-4 -24l-85 -145q-8 -11 0 -24l85 -145q9 -15 4 -24t-20 -9h-45q-16 0 -25 15l-96 161q-9 14 0 28zM234 274l96 161q9 15 25 15h45q15 0 20 -9t-4 -24l-85 -145q-8 -11 0 -24l85 -145q9 -15 4 -24t-20 -9h-45q-16 0 -25 15
l-96 161q-9 14 0 28z" />
    <glyph glyph-name="logicalnot" unicode="&#xac;" horiz-adv-x="530" 
d="M390 110v90q0 10 -10 10h-310q-8 0 -14 6t-6 14v50q0 8 6 14t14 6h390q8 0 14 -6t6 -14v-170q0 -8 -6 -14t-14 -6h-50q-8 0 -14 6t-6 14z" />
    <glyph glyph-name="registered" unicode="&#xae;" horiz-adv-x="780" 
d="M40 350q0 145 102.5 247.5t247.5 102.5t247.5 -102.5t102.5 -247.5t-102.5 -247.5t-247.5 -102.5t-247.5 102.5t-102.5 247.5zM390 620q-112 0 -191 -79t-79 -191t79 -191t191 -79t191 79t79 191t-79 191t-191 79zM349 365h66q23 0 40 17t17 40t-17 40t-40 17h-66
q-8 0 -8 -8v-98q0 -8 8 -8zM483 310q-2 -1 -6.5 -3.5t-6 -3.5t-4 -3t-2.5 -4t1 -4.5t3 -6.5l67 -115q5 -9 1 -16.5t-16 -7.5h-44q-13 0 -23 16l-68 117q-4 10 -15 10h-21q-8 0 -8 -8v-119q0 -16 -16 -16h-44q-6 0 -11 4.5t-5 11.5v377q0 7 5 11.5t11 4.5h134
q55 0 93.5 -38.5t38.5 -93.5q0 -75 -64 -113z" />
    <glyph glyph-name="macron" unicode="&#xaf;" horiz-adv-x="402" 
d="M80 694h242q8 0 14 -6t6 -14v-38q0 -8 -6 -14t-14 -6h-242q-8 0 -14 6t-6 14v38q0 8 6 14t14 6z" />
    <glyph glyph-name="degree" unicode="&#xb0;" horiz-adv-x="370" 
d="M36 585q0 62 43.5 105t105.5 43q61 0 104.5 -43.5t43.5 -104.5q0 -62 -43 -105.5t-105 -43.5t-105.5 43.5t-43.5 105.5zM117 585q0 -28 20 -48t48 -20t48 20t20 48t-20 48t-48 20t-48 -20t-20 -48z" />
    <glyph glyph-name="plusminus" unicode="&#xb1;" horiz-adv-x="540" 
d="M214 372h-144q-8 0 -14 6t-6 14v52q0 8 6 14t14 6h144q10 0 10 10v144q0 8 6 14t14 6h52q8 0 14 -6t6 -14v-144q0 -10 10 -10h144q8 0 14 -6t6 -14v-52q0 -8 -6 -14t-14 -6h-144q-10 0 -10 -10v-144q0 -8 -6 -14t-14 -6h-52q-8 0 -14 6t-6 14v144q0 10 -10 10zM73 92h394
q8 0 14 -6t6 -14v-52q0 -8 -6 -14t-14 -6h-394q-8 0 -14 6t-6 14v52q0 8 6 14t14 6z" />
    <glyph glyph-name="acute" unicode="&#xb4;" horiz-adv-x="297" 
d="M154 730h79q9 0 12.5 -8t-1.5 -13l-108 -112q-12 -12 -30 -12h-40q-9 0 -13.5 7t-0.5 13l76 109q11 16 26 16z" />
    <glyph glyph-name="uni00B5" unicode="&#xb5;" horiz-adv-x="522" 
d="M62 -180v660q0 8 6 14t14 6h50q8 0 14 -6t6 -14v-300q0 -43 31.5 -71.5t78.5 -28.5t78.5 26t31.5 69v305q0 8 6 14t14 6h50q8 0 14 -6t6 -14v-460q0 -8 -6 -14t-14 -6h-44q-7 0 -14 7q-14 16 -25 16q-9 0 -36.5 -16.5t-70.5 -16.5q-34 0 -78 29q-7 5 -15.5 1.5
t-8.5 -14.5v-186q0 -8 -6 -14t-14 -6h-48q-8 0 -14 6t-6 14z" />
    <glyph glyph-name="paragraph" unicode="&#xb6;" 
d="M220 350q0 10 -10 10q-66 0 -113 50.5t-47 119.5q0 70 50 120t120 50h240q8 0 14 -6t6 -14v-760q0 -8 -6 -14t-14 -6h-40q-8 0 -14 6t-6 14v695q0 10 -10 10h-80q-10 0 -10 -10v-695q0 -8 -6 -14t-14 -6h-40q-8 0 -14 6t-6 14v430z" />
    <glyph glyph-name="periodcentered" unicode="&#xb7;" horiz-adv-x="435" 
d="M300 335v-140q0 -8 -6 -14t-14 -6h-140q-8 0 -14 6t-6 14v140q0 8 6 14t14 6h140q8 0 14 -6t6 -14z" />
    <glyph glyph-name="cedilla" unicode="&#xb8;" horiz-adv-x="500" 
d="M243 -45h53q20 0 16 -18l-28 -121q-4 -16 -19 -16h-63q-9 0 -13.5 5.5t-2.5 12.5l38 121q4 16 19 16z" />
    <glyph glyph-name="ordmasculine" unicode="&#xba;" horiz-adv-x="330" 
d="M50 552q-3 29 0 51q6 52 39.5 80t75.5 28t75.5 -28t39.5 -80q3 -22 0 -51q-6 -49 -40 -78t-75 -29t-75 29t-40 78zM165 508q22 0 36.5 11.5t18.5 30.5q4 30 0 52q-8 46 -55 46t-55 -46q-4 -22 0 -52q4 -19 18.5 -30.5t36.5 -11.5z" />
    <glyph glyph-name="guillemotright" unicode="&#xbb;" horiz-adv-x="492" 
d="M340 435l96 -161q9 -14 0 -28l-96 -161q-9 -15 -25 -15h-45q-15 0 -19.5 8.5t3.5 24.5l85 145q8 13 0 24l-85 145q-8 16 -3.5 24.5t19.5 8.5h45q16 0 25 -15zM162 435l96 -161q9 -14 0 -28l-96 -161q-9 -15 -25 -15h-45q-15 0 -19.5 8.5t3.5 24.5l85 145q8 13 0 24
l-85 145q-8 16 -3.5 24.5t19.5 8.5h45q16 0 25 -15z" />
    <glyph glyph-name="onequarter" unicode="&#xbc;" horiz-adv-x="639" 
d="M212 691v-330q0 -10 -10 -10h-47q-10 0 -10 10v247q0 2 -1.5 3t-2.5 -1l-85 -76q-3 -3 -7 -1.5t-4 5.5v58q0 14 10 21l86 79q7 5 10 5h51q10 0 10 -10zM580 672l-426 -657q-9 -15 -21 -15h-40q-10 0 -16 9t0 19l427 657q9 15 22 15h38q10 0 16 -9t0 -19zM430 131
q-4 -4 2 -4h74q5 0 5 5v117q0 2 -1.5 2.5t-2.5 -1.5zM364 136l139 207q4 7 11 7h51q10 0 10 -10v-208q0 -5 5 -5h24q10 0 10 -10v-42q0 -10 -10 -10h-24q-5 0 -5 -5v-50q0 -10 -10 -10h-44q-10 0 -10 10v50q0 5 -5 5h-140q-10 0 -10 10v42q0 5 8 19z" />
    <glyph glyph-name="onehalf" unicode="&#xbd;" horiz-adv-x="660" 
d="M55 617l86 79q7 5 10 5h51q10 0 10 -10v-330q0 -10 -10 -10h-47q-10 0 -10 10v247q0 2 -1.5 3t-2.5 -1l-85 -76q-3 -3 -7 -1.5t-4 5.5v58q0 14 10 21zM559 255q0 19 -12.5 29.5t-28.5 10.5q-14 0 -26.5 -10t-12.5 -28v-12q0 -10 -10 -10h-46q-10 0 -10 10v17q0 40 32 68
t73 28t73.5 -28t32.5 -68q0 -55 -48 -108l-75 -82q-2 -2 -1 -5t5 -3h115q10 0 10 -10v-44q0 -10 -10 -10h-206q-10 0 -10 10v44q0 8 5 13l118 122q32 33 32 66zM580 672l-426 -657q-9 -15 -21 -15h-40q-10 0 -16 9t0 19l427 657q9 15 22 15h38q10 0 16 -9t0 -19z" />
    <glyph glyph-name="threequarters" unicode="&#xbe;" horiz-adv-x="649" 
d="M580 672l-426 -657q-9 -15 -21 -15h-40q-10 0 -16 9t0 19l427 657q9 15 22 15h38q10 0 16 -9t0 -19zM430 131q-4 -4 2 -4h74q5 0 5 5v117q0 2 -1.5 2.5t-2.5 -1.5zM364 136l139 207q4 7 11 7h51q10 0 10 -10v-208q0 -5 5 -5h24q10 0 10 -10v-42q0 -10 -10 -10h-24
q-5 0 -5 -5v-50q0 -10 -10 -10h-44q-10 0 -10 10v50q0 5 -5 5h-140q-10 0 -10 10v42q0 5 8 19zM88 461v-13q0 -17 15 -28t33 -11q21 0 34 13.5t13 31.5q0 19 -11.5 34t-34.5 15h-6q-10 0 -10 10v42q0 10 10 10h6q39 0 39 47q0 14 -11.5 25.5t-28.5 11.5q-16 0 -28.5 -11
t-12.5 -26v-17q0 -10 -10 -10h-47q-10 0 -10 10v17q0 40 33 68t75 28t74.5 -28t32.5 -68q0 -49 -32 -72q-6 -5 0 -9q40 -28 40 -77q0 -46 -31 -77.5t-84 -31.5q-45 0 -80.5 30t-35.5 73v13q0 10 10 10h48q10 0 10 -10z" />
    <glyph glyph-name="questiondown" unicode="&#xbf;" horiz-adv-x="465" 
d="M137 -7q0 -42 26 -71.5t70 -29.5q41 0 68.5 31t27.5 70v15q0 8 6 14t14 6h51q8 0 14 -6t6 -14v-15q0 -81 -53.5 -137t-133.5 -56q-81 0 -134.5 54t-53.5 139q0 93 89 161q5 4 17 12.5t18 13t13.5 12.5t11 17.5t3.5 20.5v70q0 8 6 14t14 6h51q8 0 14 -6t6 -14v-84
q0 -40 -18 -61q-19 -22 -49.5 -43t-42.5 -33q-41 -41 -41 -86zM180 407v83q0 8 6 14t14 6h83q8 0 14 -6t6 -14v-83q0 -8 -6 -14t-14 -6h-83q-8 0 -14 6t-6 14z" />
    <glyph glyph-name="Agrave" unicode="&#xc0;" horiz-adv-x="488" 
d="M182 275h124q11 0 8 11l-65 279q-1 6 -4 6h-2q-3 0 -4 -6l-65 -279q-3 -11 8 -11zM390 15l-44 153q-3 14 -19 14h-166q-14 0 -19 -14l-44 -153q-5 -15 -19 -15h-55q-11 0 -16.5 6t-3.5 14l186 665q3 15 19 15h70q16 0 19 -15l186 -665q2 -8 -3.5 -14t-16.5 -6h-55
q-14 0 -19 15zM137 895h79q15 0 26 -16l76 -109q4 -6 -0.5 -13t-13.5 -7h-40q-18 0 -30 12l-108 112q-5 4 -1.5 12.5t12.5 8.5z" />
    <glyph glyph-name="Aacute" unicode="&#xc1;" horiz-adv-x="488" 
d="M182 275h124q11 0 8 11l-65 279q-1 6 -4 6h-2q-3 0 -4 -6l-65 -279q-3 -11 8 -11zM390 15l-44 153q-3 14 -19 14h-166q-14 0 -19 -14l-44 -153q-5 -15 -19 -15h-55q-11 0 -16.5 6t-3.5 14l186 665q3 15 19 15h70q16 0 19 -15l186 -665q2 -8 -3.5 -14t-16.5 -6h-55
q-14 0 -19 15zM279 895h79q9 0 12.5 -8.5t-1.5 -12.5l-108 -112q-12 -12 -30 -12h-40q-9 0 -13.5 7t-0.5 13l76 109q11 16 26 16z" />
    <glyph glyph-name="Acircumflex" unicode="&#xc2;" horiz-adv-x="488" 
d="M182 275h124q11 0 8 11l-65 279q-1 6 -4 6h-2q-3 0 -4 -6l-65 -279q-3 -11 8 -11zM390 15l-44 153q-3 14 -19 14h-166q-14 0 -19 -14l-44 -153q-5 -15 -19 -15h-55q-11 0 -16.5 6t-3.5 14l186 665q3 15 19 15h70q16 0 19 -15l186 -665q2 -8 -3.5 -14t-16.5 -6h-55
q-14 0 -19 15zM237 816l-50 -49q-16 -16 -31 -16h-59q-9 0 -12.5 8.5t1.5 12.5l108 112q12 12 30 12h42q17 0 29 -12l108 -112q5 -4 1.5 -12.5t-12.5 -8.5h-59q-15 0 -31 16l-51 49q-7 7 -14 0z" />
    <glyph glyph-name="Atilde" unicode="&#xc3;" horiz-adv-x="488" 
d="M182 275h124q11 0 8 11l-65 279q-1 6 -4 6h-2q-3 0 -4 -6l-65 -279q-3 -11 8 -11zM390 15l-44 153q-3 14 -19 14h-166q-14 0 -19 -14l-44 -153q-5 -15 -19 -15h-55q-11 0 -16.5 6t-3.5 14l186 665q3 15 19 15h70q16 0 19 -15l186 -665q2 -8 -3.5 -14t-16.5 -6h-55
q-14 0 -19 15zM314 840q29 0 46 21q6 8 15.5 4t9.5 -18v-40q0 -20 -21 -35.5t-50 -15.5q-32 0 -68.5 12.5t-71.5 12.5q-28 0 -46 -21q-6 -8 -15.5 -3.5t-9.5 17.5v40q0 20 21 35.5t50 15.5q32 0 69 -12.5t71 -12.5z" />
    <glyph glyph-name="Adieresis" unicode="&#xc4;" horiz-adv-x="488" 
d="M182 275h124q11 0 8 11l-65 279q-1 6 -4 6h-2q-3 0 -4 -6l-65 -279q-3 -11 8 -11zM390 15l-44 153q-3 14 -19 14h-166q-14 0 -19 -14l-44 -153q-5 -15 -19 -15h-55q-11 0 -16.5 6t-3.5 14l186 665q3 15 19 15h70q16 0 19 -15l186 -665q2 -8 -3.5 -14t-16.5 -6h-55
q-14 0 -19 15zM208 835v-69q0 -16 -16 -16h-68q-16 0 -16 16v69q0 6 4.5 11t11.5 5h68q7 0 11.5 -5t4.5 -11zM379 835v-69q0 -16 -16 -16h-68q-16 0 -16 16v69q0 6 4.5 11t11.5 5h68q7 0 11.5 -5t4.5 -11z" />
    <glyph glyph-name="Aring" unicode="&#xc5;" horiz-adv-x="488" 
d="M182 275h124q11 0 8 11l-65 279q-1 6 -4 6h-2q-3 0 -4 -6l-65 -279q-3 -11 8 -11zM390 15l-44 153q-3 14 -19 14h-166q-14 0 -19 -14l-44 -153q-5 -15 -19 -15h-55q-11 0 -16.5 6t-3.5 14l186 665q3 15 19 15h70q16 0 19 -15l186 -665q2 -8 -3.5 -14t-16.5 -6h-55
q-14 0 -19 15zM134 840q0 46 32 78t78 32t78 -32t32 -78t-32 -78t-78 -32t-78 32t-32 78zM204 840q0 -17 11.5 -28.5t28.5 -11.5t28.5 11.5t11.5 28.5t-11.5 28.5t-28.5 11.5t-28.5 -11.5t-11.5 -28.5z" />
    <glyph glyph-name="AE" unicode="&#xc6;" horiz-adv-x="723" 
d="M221 700h440q8 0 14 -6t6 -14v-55q0 -8 -6 -14t-14 -6h-238q-10 0 -10 -10v-180q0 -10 10 -10h227q8 0 14 -6t6 -14v-55q0 -8 -6 -14t-14 -6h-227q-10 0 -10 -10v-195q0 -10 10 -10h240q8 0 14 -6t6 -14v-55q0 -8 -6 -14t-14 -6h-325q-8 0 -14 6t-6 14v146q0 16 -19 16
h-138q-16 0 -19 -14l-44 -153q-3 -15 -19 -15h-55q-11 0 -16.5 6t-3.5 14l183 654q2 9 11 17.5t23 8.5zM318 595q0 10 -10 10h-43q-11 0 -13 -10l-78 -309q-3 -11 8 -11h126q10 0 10 11v309z" />
    <glyph glyph-name="Ccedilla" unicode="&#xc7;" horiz-adv-x="543" 
d="M503 214v-14q0 -85 -64 -146.5t-161 -61.5q-91 0 -152 56t-73 152q-7 61 -7 150.5t7 149.5q10 87 70.5 147.5t154.5 60.5t159.5 -57t65.5 -151v-14q0 -8 -6 -14t-14 -6h-55q-8 0 -14 6t-6 14v14q0 46 -36 79t-94 34q-51 0 -87 -30t-43 -83q-8 -62 -8 -150.5t8 -149.5
q6 -47 40.5 -80t89.5 -33q53 0 91.5 30.5t38.5 82.5v14q0 8 6 14t14 6h55q8 0 14 -6t6 -14zM246 -45h53q20 0 16 -18l-28 -121q-4 -16 -19 -16h-63q-9 0 -13.5 5.5t-2.5 12.5l38 121q4 16 19 16z" />
    <glyph glyph-name="Egrave" unicode="&#xc8;" horiz-adv-x="470" 
d="M160 300v-195q0 -10 10 -10h240q8 0 14 -6t6 -14v-55q0 -8 -6 -14t-14 -6h-325q-8 0 -14 6t-6 14v660q0 8 6 14t14 6h323q8 0 14 -6t6 -14v-55q0 -8 -6 -14t-14 -6h-238q-10 0 -10 -10v-180q0 -10 10 -10h227q8 0 14 -6t6 -14v-55q0 -8 -6 -14t-14 -6h-227q-10 0 -10 -10
zM120 895h79q15 0 26 -16l76 -109q4 -6 -0.5 -13t-13.5 -7h-40q-18 0 -30 12l-108 112q-5 4 -1.5 12.5t12.5 8.5z" />
    <glyph glyph-name="Eacute" unicode="&#xc9;" horiz-adv-x="470" 
d="M160 300v-195q0 -10 10 -10h240q8 0 14 -6t6 -14v-55q0 -8 -6 -14t-14 -6h-325q-8 0 -14 6t-6 14v660q0 8 6 14t14 6h323q8 0 14 -6t6 -14v-55q0 -8 -6 -14t-14 -6h-238q-10 0 -10 -10v-180q0 -10 10 -10h227q8 0 14 -6t6 -14v-55q0 -8 -6 -14t-14 -6h-227q-10 0 -10 -10
zM284 895h79q9 0 12.5 -8.5t-1.5 -12.5l-108 -112q-12 -12 -30 -12h-40q-9 0 -13.5 7t-0.5 13l76 109q11 16 26 16z" />
    <glyph glyph-name="Ecircumflex" unicode="&#xca;" horiz-adv-x="470" 
d="M160 300v-195q0 -10 10 -10h240q8 0 14 -6t6 -14v-55q0 -8 -6 -14t-14 -6h-325q-8 0 -14 6t-6 14v660q0 8 6 14t14 6h323q8 0 14 -6t6 -14v-55q0 -8 -6 -14t-14 -6h-238q-10 0 -10 -10v-180q0 -10 10 -10h227q8 0 14 -6t6 -14v-55q0 -8 -6 -14t-14 -6h-227q-10 0 -10 -10
zM239 815l-50 -49q-16 -16 -31 -16h-59q-9 0 -12.5 8t1.5 13l108 112q12 12 30 12h42q17 0 29 -12l108 -112q5 -5 1.5 -13t-12.5 -8h-59q-15 0 -31 16l-51 49q-7 7 -14 0z" />
    <glyph glyph-name="Edieresis" unicode="&#xcb;" horiz-adv-x="470" 
d="M160 300v-195q0 -10 10 -10h240q8 0 14 -6t6 -14v-55q0 -8 -6 -14t-14 -6h-325q-8 0 -14 6t-6 14v660q0 8 6 14t14 6h323q8 0 14 -6t6 -14v-55q0 -8 -6 -14t-14 -6h-238q-10 0 -10 -10v-180q0 -10 10 -10h227q8 0 14 -6t6 -14v-55q0 -8 -6 -14t-14 -6h-227q-10 0 -10 -10
zM207 835v-69q0 -16 -16 -16h-68q-16 0 -16 16v69q0 6 4.5 11t11.5 5h68q7 0 11.5 -5t4.5 -11zM378 835v-69q0 -16 -16 -16h-68q-16 0 -16 16v69q0 6 4.5 11t11.5 5h68q7 0 11.5 -5t4.5 -11z" />
    <glyph glyph-name="Igrave" unicode="&#xcc;" horiz-adv-x="225" 
d="M160 680v-660q0 -8 -6 -14t-14 -6h-55q-8 0 -14 6t-6 14v660q0 8 6 14t14 6h55q8 0 14 -6t6 -14zM2 895h79q15 0 26 -16l76 -109q4 -6 -0.5 -13t-13.5 -7h-40q-18 0 -30 12l-108 112q-5 4 -1.5 12.5t12.5 8.5z" />
    <glyph glyph-name="Iacute" unicode="&#xcd;" horiz-adv-x="225" 
d="M160 680v-660q0 -8 -6 -14t-14 -6h-55q-8 0 -14 6t-6 14v660q0 8 6 14t14 6h55q8 0 14 -6t6 -14zM158 895h79q9 0 12.5 -8.5t-1.5 -12.5l-108 -112q-12 -12 -30 -12h-40q-9 0 -13.5 7t-0.5 13l76 109q11 16 26 16z" />
    <glyph glyph-name="Icircumflex" unicode="&#xce;" horiz-adv-x="225" 
d="M160 680v-660q0 -8 -6 -14t-14 -6h-55q-8 0 -14 6t-6 14v660q0 8 6 14t14 6h55q8 0 14 -6t6 -14zM105 815l-50 -49q-16 -16 -31 -16h-59q-9 0 -12.5 8t1.5 13l108 112q12 12 30 12h42q17 0 29 -12l108 -112q5 -5 1.5 -13t-12.5 -8h-59q-15 0 -31 16l-51 49q-7 7 -14 0z
" />
    <glyph glyph-name="Idieresis" unicode="&#xcf;" horiz-adv-x="225" 
d="M160 680v-660q0 -8 -6 -14t-14 -6h-55q-8 0 -14 6t-6 14v660q0 8 6 14t14 6h55q8 0 14 -6t6 -14zM77 835v-69q0 -16 -16 -16h-68q-16 0 -16 16v69q0 6 4.5 11t11.5 5h68q7 0 11.5 -5t4.5 -11zM248 835v-69q0 -16 -16 -16h-68q-16 0 -16 16v69q0 6 4.5 11t11.5 5h68
q7 0 11.5 -5t4.5 -11z" />
    <glyph glyph-name="Eth" unicode="&#xd0;" horiz-adv-x="538" 
d="M160 300v-195q0 -10 10 -10h105q44 0 77 34t38 81q8 60 8 140t-8 140q-5 47 -38 81t-77 34h-105q-10 0 -10 -10v-180q0 -10 10 -10h100q8 0 14 -6t6 -14v-55q0 -8 -6 -14t-14 -6h-100q-10 0 -10 -10zM85 700h190q85 0 142 -60t68 -150q17 -133 0 -280
q-10 -89 -67.5 -149.5t-142.5 -60.5h-190q-8 0 -14 6t-6 14v280q0 10 -10 10h-32q-8 0 -14 6t-6 14v55q0 8 6 14t14 6h32q10 0 10 10v265q0 8 6 14t14 6z" />
    <glyph glyph-name="Ntilde" unicode="&#xd1;" 
d="M465 0h-83q-15 0 -21 17l-197 495q-2 3 -5 2.5t-3 -4.5v-490q0 -8 -6 -14t-14 -6h-51q-8 0 -14 6t-6 14v660q0 8 6 14t14 6h83q15 0 21 -17l197 -493q2 -3 5 -2.5t3 4.5v488q0 8 6 14t14 6h51q8 0 14 -6t6 -14v-660q0 -8 -6 -14t-14 -6zM344 840q29 0 46 21q6 8 15.5 4
t9.5 -18v-40q0 -20 -21 -35.5t-50 -15.5q-32 0 -69 12.5t-71 12.5q-28 0 -46 -21q-6 -8 -15.5 -3.5t-9.5 17.5v40q0 20 21 35.5t50 15.5q32 0 69 -12.5t71 -12.5z" />
    <glyph glyph-name="Ograve" unicode="&#xd2;" horiz-adv-x="556" 
d="M278 87q51 0 87 30t43 83q9 63 8.5 150t-8.5 150q-6 48 -40 80.5t-90 32.5q-51 0 -87 -30t-43 -83q-8 -62 -8 -150.5t8 -149.5q6 -47 40.5 -80t89.5 -33zM278 708q91 0 152 -56t73 -152q7 -62 7 -150t-7 -150q-10 -87 -70 -147.5t-155 -60.5q-91 0 -152 56t-73 152
q-7 61 -7 150.5t7 149.5q10 87 70.5 147.5t154.5 60.5zM153 895h79q15 0 26 -16l76 -109q4 -6 -0.5 -13t-13.5 -7h-40q-18 0 -30 12l-108 112q-5 4 -1.5 12.5t12.5 8.5z" />
    <glyph glyph-name="Oacute" unicode="&#xd3;" horiz-adv-x="556" 
d="M278 87q51 0 87 30t43 83q9 63 8.5 150t-8.5 150q-6 48 -40 80.5t-90 32.5q-51 0 -87 -30t-43 -83q-8 -62 -8 -150.5t8 -149.5q6 -47 40.5 -80t89.5 -33zM278 708q91 0 152 -56t73 -152q7 -62 7 -150t-7 -150q-10 -87 -70 -147.5t-155 -60.5q-91 0 -152 56t-73 152
q-7 61 -7 150.5t7 149.5q10 87 70.5 147.5t154.5 60.5zM323 895h79q9 0 12.5 -8.5t-1.5 -12.5l-108 -112q-12 -12 -30 -12h-40q-9 0 -13.5 7t-0.5 13l76 109q11 16 26 16z" />
    <glyph glyph-name="Ocircumflex" unicode="&#xd4;" horiz-adv-x="556" 
d="M278 87q51 0 87 30t43 83q9 63 8.5 150t-8.5 150q-6 48 -40 80.5t-90 32.5q-51 0 -87 -30t-43 -83q-8 -62 -8 -150.5t8 -149.5q6 -47 40.5 -80t89.5 -33zM278 708q91 0 152 -56t73 -152q7 -62 7 -150t-7 -150q-10 -87 -70 -147.5t-155 -60.5q-91 0 -152 56t-73 152
q-7 61 -7 150.5t7 149.5q10 87 70.5 147.5t154.5 60.5zM271 815l-50 -49q-16 -16 -31 -16h-59q-9 0 -12.5 8t1.5 13l108 112q12 12 30 12h42q17 0 29 -12l108 -112q5 -5 1.5 -13t-12.5 -8h-59q-15 0 -31 16l-51 49q-7 7 -14 0z" />
    <glyph glyph-name="Otilde" unicode="&#xd5;" horiz-adv-x="556" 
d="M278 87q51 0 87 30t43 83q9 63 8.5 150t-8.5 150q-6 48 -40 80.5t-90 32.5q-51 0 -87 -30t-43 -83q-8 -62 -8 -150.5t8 -149.5q6 -47 40.5 -80t89.5 -33zM278 708q91 0 152 -56t73 -152q7 -62 7 -150t-7 -150q-10 -87 -70 -147.5t-155 -60.5q-91 0 -152 56t-73 152
q-7 61 -7 150.5t7 149.5q10 87 70.5 147.5t154.5 60.5zM348 840q29 0 46 21q6 8 15.5 4t9.5 -18v-40q0 -20 -21 -35.5t-50 -15.5q-32 0 -69 12.5t-71 12.5q-28 0 -46 -21q-6 -8 -15.5 -3.5t-9.5 17.5v40q0 20 21 35.5t50 15.5q32 0 69 -12.5t71 -12.5z" />
    <glyph glyph-name="Odieresis" unicode="&#xd6;" horiz-adv-x="556" 
d="M278 87q51 0 87 30t43 83q9 63 8.5 150t-8.5 150q-6 48 -40 80.5t-90 32.5q-51 0 -87 -30t-43 -83q-8 -62 -8 -150.5t8 -149.5q6 -47 40.5 -80t89.5 -33zM278 708q91 0 152 -56t73 -152q7 -62 7 -150t-7 -150q-10 -87 -70 -147.5t-155 -60.5q-91 0 -152 56t-73 152
q-7 61 -7 150.5t7 149.5q10 87 70.5 147.5t154.5 60.5zM242 835v-69q0 -16 -16 -16h-68q-16 0 -16 16v69q0 6 4.5 11t11.5 5h68q7 0 11.5 -5t4.5 -11zM413 835v-69q0 -16 -16 -16h-68q-16 0 -16 16v69q0 6 4.5 11t11.5 5h68q7 0 11.5 -5t4.5 -11z" />
    <glyph glyph-name="multiply" unicode="&#xd7;" horiz-adv-x="482" 
d="M94 66l-37 37q-14 14 0 28l112 112q7 7 0 14l-113 113q-14 14 0 28l37 37q14 14 28 0l113 -113q7 -7 14 0l112 112q14 14 28 0l37 -37q14 -14 0 -28l-112 -112q-7 -7 0 -14l113 -113q14 -14 0 -28l-37 -37q-14 -14 -28 0l-113 113q-7 7 -14 0l-112 -112q-14 -14 -28 0z
" />
    <glyph glyph-name="Oslash" unicode="&#xd8;" horiz-adv-x="556" 
d="M521 672l-45 -71q-3 -5 0 -11q20 -39 27 -90q7 -62 7 -150t-7 -150q-10 -87 -70 -147.5t-155 -60.5q-77 0 -132 39q-7 4 -11 -2l-9 -14q-9 -15 -21 -15h-52q-10 0 -16 9t0 19l41 66q6 9 0 18q-19 42 -25 88q-7 61 -7 150.5t7 149.5q10 87 70.5 147.5t154.5 60.5
q78 0 134 -41q6 -6 11 2l11 16q9 15 19 15h52q10 0 16 -9.5t0 -18.5zM278 613q-51 0 -87 -30t-43 -83q-16 -128 -3 -276q0 -6 2.5 -7.5t7.5 5.5q52 85 122 202t88 148q5 9 -1 12q-36 29 -86 29zM408 200q18 120 3 275q0 2 -1 3.5t-3.5 1t-4.5 -4.5l-206 -347q-6 -11 2 -17
q32 -24 80 -24q51 0 86.5 30t43.5 83z" />
    <glyph glyph-name="Ugrave" unicode="&#xd9;" horiz-adv-x="558" 
d="M504 680v-480q0 -89 -66.5 -148.5t-158.5 -59.5q-97 0 -161 59t-64 149v480q0 8 6 14t14 6h55q8 0 14 -6t6 -14v-480q0 -56 38 -84.5t92 -28.5q57 0 93.5 32.5t36.5 80.5v480q0 8 6 14t14 6h55q8 0 14 -6t6 -14zM154 895h79q15 0 26 -16l76 -109q4 -6 -0.5 -13t-13.5 -7
h-40q-18 0 -30 12l-108 112q-5 4 -1.5 12.5t12.5 8.5z" />
    <glyph glyph-name="Uacute" unicode="&#xda;" horiz-adv-x="558" 
d="M504 680v-480q0 -89 -66.5 -148.5t-158.5 -59.5q-97 0 -161 59t-64 149v480q0 8 6 14t14 6h55q8 0 14 -6t6 -14v-480q0 -56 38 -84.5t92 -28.5q57 0 93.5 32.5t36.5 80.5v480q0 8 6 14t14 6h55q8 0 14 -6t6 -14zM324 895h79q9 0 12.5 -8.5t-1.5 -12.5l-108 -112
q-12 -12 -30 -12h-40q-9 0 -13.5 7t-0.5 13l76 109q11 16 26 16z" />
    <glyph glyph-name="Ucircumflex" unicode="&#xdb;" horiz-adv-x="558" 
d="M504 680v-480q0 -89 -66.5 -148.5t-158.5 -59.5q-97 0 -161 59t-64 149v480q0 8 6 14t14 6h55q8 0 14 -6t6 -14v-480q0 -56 38 -84.5t92 -28.5q57 0 93.5 32.5t36.5 80.5v480q0 8 6 14t14 6h55q8 0 14 -6t6 -14zM271 815l-50 -49q-16 -16 -31 -16h-59q-9 0 -12.5 8
t1.5 13l108 112q12 12 30 12h42q17 0 29 -12l108 -112q5 -5 1.5 -13t-12.5 -8h-59q-15 0 -31 16l-51 49q-7 7 -14 0z" />
    <glyph glyph-name="Udieresis" unicode="&#xdc;" horiz-adv-x="558" 
d="M504 680v-480q0 -89 -66.5 -148.5t-158.5 -59.5q-97 0 -161 59t-64 149v480q0 8 6 14t14 6h55q8 0 14 -6t6 -14v-480q0 -56 38 -84.5t92 -28.5q57 0 93.5 32.5t36.5 80.5v480q0 8 6 14t14 6h55q8 0 14 -6t6 -14zM245 835v-69q0 -16 -16 -16h-68q-16 0 -16 16v69
q0 6 4.5 11t11.5 5h68q7 0 11.5 -5t4.5 -11zM416 835v-69q0 -16 -16 -16h-68q-16 0 -16 16v69q0 6 4.5 11t11.5 5h68q7 0 11.5 -5t4.5 -11z" />
    <glyph glyph-name="Yacute" unicode="&#xdd;" horiz-adv-x="458" 
d="M113 685l113 -311q4 -10 8 0l111 311q5 15 19 15h66q10 0 15 -8.5t1 -19.5l-168 -431v-221q0 -8 -6 -14t-14 -6h-56q-8 0 -14 6t-6 14v220l-170 432q-4 11 1 19.5t15 8.5h66q14 0 19 -15zM284 895h79q9 0 12.5 -8.5t-1.5 -12.5l-108 -112q-12 -12 -30 -12h-40
q-9 0 -13.5 7t-0.5 13l76 109q11 16 26 16z" />
    <glyph glyph-name="Thorn" unicode="&#xde;" horiz-adv-x="510" 
d="M465 380v-50q0 -87 -61.5 -148.5t-148.5 -61.5h-85q-10 0 -10 -10v-90q0 -8 -6 -14t-14 -6h-55q-8 0 -14 6t-6 14v660q0 8 6 14t14 6h55q8 0 14 -6t6 -14v-80q0 -10 10 -10h85q87 0 148.5 -61.5t61.5 -148.5zM370 330v50q0 47 -34 81t-81 34h-85q-10 0 -10 -10v-260
q0 -10 10 -10h85q47 0 81 34t34 81z" />
    <glyph glyph-name="germandbls" unicode="&#xdf;" horiz-adv-x="517" 
d="M262 0h-20q-8 0 -14 6t-6 14v50q0 8 6 14t14 6h20q51 0 85.5 31.5t34.5 76.5q0 49 -29 86t-89 37h-12q-8 0 -14 6t-6 14v49q0 8 6 14t14 6h12q49 0 76 31t27 76q0 43 -29 73t-76 30t-76 -30t-29 -73v-497q0 -8 -6 -14t-14 -6h-52q-8 0 -14 6t-6 14v497q0 80 57.5 136.5
t139.5 56.5t138.5 -56.5t56.5 -136.5q0 -79 -58 -137q-13 -13 -1 -24q74 -64 74 -158q0 -85 -61 -141.5t-149 -56.5z" />
    <glyph glyph-name="agrave" unicode="&#xe0;" horiz-adv-x="487" 
d="M338 220h-130q-75 0 -75 -69q0 -37 23 -57.5t66 -20.5q67 0 96.5 26t29.5 79v32q0 10 -10 10zM247 430q-33 0 -63 -15.5t-30 -47.5q0 -17 -23 -17h-45q-20 0 -20 20q0 65 55.5 102.5t125.5 37.5q183 0 183 -160v-330q0 -8 -6 -14t-14 -6h-34q-8 0 -14 7q-1 2 -5 8.5
t-7 9.5t-8 3q-6 0 -20 -9.5t-39.5 -19t-57.5 -9.5q-88 0 -135 46t-47 114q0 65 44.5 108.5t120.5 43.5h122q10 0 10 10v38q0 39 -25 59.5t-68 20.5zM159 730h79q15 0 26 -16l76 -109q4 -6 -0.5 -13t-13.5 -7h-40q-18 0 -30 12l-108 112q-5 5 -1.5 13t12.5 8z" />
    <glyph glyph-name="aacute" unicode="&#xe1;" horiz-adv-x="487" 
d="M338 220h-130q-75 0 -75 -69q0 -37 23 -57.5t66 -20.5q67 0 96.5 26t29.5 79v32q0 10 -10 10zM247 430q-33 0 -63 -15.5t-30 -47.5q0 -17 -23 -17h-45q-20 0 -20 20q0 65 55.5 102.5t125.5 37.5q183 0 183 -160v-330q0 -8 -6 -14t-14 -6h-34q-8 0 -14 7q-1 2 -5 8.5
t-7 9.5t-8 3q-6 0 -20 -9.5t-39.5 -19t-57.5 -9.5q-88 0 -135 46t-47 114q0 65 44.5 108.5t120.5 43.5h122q10 0 10 10v38q0 39 -25 59.5t-68 20.5zM289 730h79q9 0 12.5 -8t-1.5 -13l-108 -112q-12 -12 -30 -12h-40q-9 0 -13.5 7t-0.5 13l76 109q11 16 26 16z" />
    <glyph glyph-name="acircumflex" unicode="&#xe2;" horiz-adv-x="487" 
d="M338 220h-130q-75 0 -75 -69q0 -37 23 -57.5t66 -20.5q67 0 96.5 26t29.5 79v32q0 10 -10 10zM247 430q-33 0 -63 -15.5t-30 -47.5q0 -17 -23 -17h-45q-20 0 -20 20q0 65 55.5 102.5t125.5 37.5q183 0 183 -160v-330q0 -8 -6 -14t-14 -6h-34q-8 0 -14 7q-1 2 -5 8.5
t-7 9.5t-8 3q-6 0 -20 -9.5t-39.5 -19t-57.5 -9.5q-88 0 -135 46t-47 114q0 65 44.5 108.5t120.5 43.5h122q10 0 10 10v38q0 39 -25 59.5t-68 20.5zM241 650l-50 -49q-16 -16 -31 -16h-59q-9 0 -12.5 8.5t1.5 12.5l108 112q12 12 30 12h42q17 0 29 -12l108 -112
q5 -4 1.5 -12.5t-12.5 -8.5h-59q-15 0 -31 16l-51 49q-7 7 -14 0z" />
    <glyph glyph-name="atilde" unicode="&#xe3;" horiz-adv-x="487" 
d="M338 220h-130q-75 0 -75 -69q0 -37 23 -57.5t66 -20.5q67 0 96.5 26t29.5 79v32q0 10 -10 10zM247 430q-33 0 -63 -15.5t-30 -47.5q0 -17 -23 -17h-45q-20 0 -20 20q0 65 55.5 102.5t125.5 37.5q183 0 183 -160v-330q0 -8 -6 -14t-14 -6h-34q-8 0 -14 7q-1 2 -5 8.5
t-7 9.5t-8 3q-6 0 -20 -9.5t-39.5 -19t-57.5 -9.5q-88 0 -135 46t-47 114q0 65 44.5 108.5t120.5 43.5h122q10 0 10 10v38q0 39 -25 59.5t-68 20.5zM324 684q29 0 46 21q6 8 15.5 4t9.5 -18v-40q0 -20 -21 -35.5t-50 -15.5q-32 0 -69 12.5t-71 12.5q-28 0 -46 -21
q-6 -8 -15.5 -3.5t-9.5 17.5v40q0 20 21 35.5t50 15.5q32 0 69 -12.5t71 -12.5z" />
    <glyph glyph-name="adieresis" unicode="&#xe4;" horiz-adv-x="487" 
d="M338 220h-130q-75 0 -75 -69q0 -37 23 -57.5t66 -20.5q67 0 96.5 26t29.5 79v32q0 10 -10 10zM247 430q-33 0 -63 -15.5t-30 -47.5q0 -17 -23 -17h-45q-20 0 -20 20q0 65 55.5 102.5t125.5 37.5q183 0 183 -160v-330q0 -8 -6 -14t-14 -6h-34q-8 0 -14 7q-1 2 -5 8.5
t-7 9.5t-8 3q-6 0 -20 -9.5t-39.5 -19t-57.5 -9.5q-88 0 -135 46t-47 114q0 65 44.5 108.5t120.5 43.5h122q10 0 10 10v38q0 39 -25 59.5t-68 20.5zM218 691v-69q0 -16 -16 -16h-68q-16 0 -16 16v69q0 6 4.5 11t11.5 5h68q7 0 11.5 -5t4.5 -11zM389 691v-69q0 -16 -16 -16
h-68q-16 0 -16 16v69q0 6 4.5 11t11.5 5h68q7 0 11.5 -5t4.5 -11z" />
    <glyph glyph-name="aring" unicode="&#xe5;" horiz-adv-x="487" 
d="M338 220h-130q-75 0 -75 -69q0 -37 23 -57.5t66 -20.5q67 0 96.5 26t29.5 79v32q0 10 -10 10zM247 430q-33 0 -63 -15.5t-30 -47.5q0 -17 -23 -17h-45q-20 0 -20 20q0 65 55.5 102.5t125.5 37.5q183 0 183 -160v-330q0 -8 -6 -14t-14 -6h-34q-8 0 -14 7q-1 2 -5 8.5
t-7 9.5t-8 3q-6 0 -20 -9.5t-39.5 -19t-57.5 -9.5q-88 0 -135 46t-47 114q0 65 44.5 108.5t120.5 43.5h122q10 0 10 10v38q0 39 -25 59.5t-68 20.5zM144 670q0 46 32 78t78 32t78 -32t32 -78t-32 -78t-78 -32t-78 32t-32 78zM214 670q0 -17 11.5 -28.5t28.5 -11.5t28.5 11.5
t11.5 28.5t-11.5 28.5t-28.5 11.5t-28.5 -11.5t-11.5 -28.5z" />
    <glyph glyph-name="ae" unicode="&#xe6;" horiz-adv-x="794" 
d="M353 211q0 10 -10 10h-135q-37 0 -56 -18.5t-19 -51.5q0 -37 23 -57.5t66 -20.5q131 0 131 105v33zM417 451q54 59 135 59q84 0 142 -58.5t58 -141.5v-69q-2 -20 -20 -20h-286q-10 0 -10 -10q0 -66 31 -98.5t85 -32.5q38 0 66 17.5t37 45.5q5 17 23 17h51q20 0 17 -20
q-9 -66 -63 -108t-131 -42q-84 0 -140 51q-19 16 -38 -1q-59 -50 -149 -50q-88 0 -135 46t-47 114q0 65 44.5 108t120.5 43h127q10 0 10 10v34q0 41 -27.5 63t-68.5 22q-34 0 -64.5 -14.5t-30.5 -48.5q0 -17 -23 -17h-45q-20 0 -20 20q0 65 56 102.5t127 37.5q43 0 81.5 -18
t56.5 -41q5 -7 14 -7t16 7zM553 420q-51 0 -83 -31t-32 -78q0 -10 10 -10h208q10 0 10 10q0 50 -32.5 79.5t-80.5 29.5z" />
    <glyph glyph-name="ccedilla" unicode="&#xe7;" horiz-adv-x="478" 
d="M347 163q0 17 19 17h52q8 0 14 -6t6 -14q0 -73 -54.5 -121.5t-138.5 -48.5q-87 0 -140.5 54t-59.5 136q-5 70 0 140q6 82 59.5 136t140.5 54q84 0 138.5 -48.5t54.5 -121.5q0 -20 -17 -20h-54q-19 0 -19 16q0 36 -28.5 60t-74.5 24q-49 0 -78 -29t-32 -71q-5 -70 0 -140
q3 -42 32 -71t78 -29q45 0 73.5 23.5t28.5 59.5zM214 -45h53q20 0 16 -18l-28 -121q-4 -16 -19 -16h-63q-9 0 -13.5 5.5t-2.5 12.5l38 121q4 16 19 16z" />
    <glyph glyph-name="egrave" unicode="&#xe8;" horiz-adv-x="492" 
d="M251 420q-51 0 -83 -31t-32 -78q0 -10 10 -10h208q10 0 10 10q0 50 -32.5 79.5t-80.5 29.5zM430 221h-286q-10 0 -10 -10q0 -66 31 -98.5t85 -32.5q38 0 66 17.5t37 45.5q5 17 23 17h51q20 0 17 -20q-9 -66 -63 -108t-131 -42q-87 0 -143 54.5t-62 135.5q-5 70 0 140
q6 81 62 135.5t143 54.5q91 0 145.5 -53.5t54.5 -146.5v-69q0 -8 -6 -14t-14 -6zM141 730h79q15 0 26 -16l76 -109q4 -6 -0.5 -13t-13.5 -7h-40q-18 0 -30 12l-108 112q-5 5 -1.5 13t12.5 8z" />
    <glyph glyph-name="eacute" unicode="&#xe9;" horiz-adv-x="492" 
d="M251 420q-51 0 -83 -31t-32 -78q0 -10 10 -10h208q10 0 10 10q0 50 -32.5 79.5t-80.5 29.5zM430 221h-286q-10 0 -10 -10q0 -66 31 -98.5t85 -32.5q38 0 66 17.5t37 45.5q5 17 23 17h51q20 0 17 -20q-9 -66 -63 -108t-131 -42q-87 0 -143 54.5t-62 135.5q-5 70 0 140
q6 81 62 135.5t143 54.5q91 0 145.5 -53.5t54.5 -146.5v-69q0 -8 -6 -14t-14 -6zM291 730h79q9 0 12.5 -8t-1.5 -13l-108 -112q-12 -12 -30 -12h-40q-9 0 -13.5 7t-0.5 13l76 109q11 16 26 16z" />
    <glyph glyph-name="ecircumflex" unicode="&#xea;" horiz-adv-x="492" 
d="M251 420q-51 0 -83 -31t-32 -78q0 -10 10 -10h208q10 0 10 10q0 50 -32.5 79.5t-80.5 29.5zM430 221h-286q-10 0 -10 -10q0 -66 31 -98.5t85 -32.5q38 0 66 17.5t37 45.5q5 17 23 17h51q20 0 17 -20q-9 -66 -63 -108t-131 -42q-87 0 -143 54.5t-62 135.5q-5 70 0 140
q6 81 62 135.5t143 54.5q91 0 145.5 -53.5t54.5 -146.5v-69q0 -8 -6 -14t-14 -6zM249 650l-50 -49q-16 -16 -31 -16h-59q-9 0 -12.5 8.5t1.5 12.5l108 112q12 12 30 12h42q17 0 29 -12l108 -112q5 -4 1.5 -12.5t-12.5 -8.5h-59q-15 0 -31 16l-51 49q-7 7 -14 0z" />
    <glyph glyph-name="edieresis" unicode="&#xeb;" horiz-adv-x="492" 
d="M251 420q-51 0 -83 -31t-32 -78q0 -10 10 -10h208q10 0 10 10q0 50 -32.5 79.5t-80.5 29.5zM430 221h-286q-10 0 -10 -10q0 -66 31 -98.5t85 -32.5q38 0 66 17.5t37 45.5q5 17 23 17h51q20 0 17 -20q-9 -66 -63 -108t-131 -42q-87 0 -143 54.5t-62 135.5q-5 70 0 140
q6 81 62 135.5t143 54.5q91 0 145.5 -53.5t54.5 -146.5v-69q0 -8 -6 -14t-14 -6zM220 691v-69q0 -16 -16 -16h-68q-16 0 -16 16v69q0 6 4.5 11t11.5 5h68q7 0 11.5 -5t4.5 -11zM391 691v-69q0 -16 -16 -16h-68q-16 0 -16 16v69q0 6 4.5 11t11.5 5h68q7 0 11.5 -5t4.5 -11z
" />
    <glyph glyph-name="igrave" unicode="&#xec;" horiz-adv-x="230" 
d="M11 730h79q15 0 26 -16l76 -109q4 -6 -0.5 -13t-13.5 -7h-40q-18 0 -30 12l-108 112q-5 5 -1.5 13t12.5 8zM162 480v-460q0 -8 -6 -14t-14 -6h-52q-8 0 -14 6t-6 14v460q0 8 6 14t14 6h52q8 0 14 -6t6 -14z" />
    <glyph glyph-name="iacute" unicode="&#xed;" horiz-adv-x="230" 
d="M151 730h79q9 0 12.5 -8t-1.5 -13l-108 -112q-12 -12 -30 -12h-40q-9 0 -13.5 7t-0.5 13l76 109q11 16 26 16zM162 480v-460q0 -8 -6 -14t-14 -6h-52q-8 0 -14 6t-6 14v460q0 8 6 14t14 6h52q8 0 14 -6t6 -14z" />
    <glyph glyph-name="icircumflex" unicode="&#xee;" horiz-adv-x="230" 
d="M162 480v-460q0 -8 -6 -14t-14 -6h-52q-8 0 -14 6t-6 14v460q0 8 6 14t14 6h52q8 0 14 -6t6 -14zM108 650l-50 -49q-16 -16 -31 -16h-59q-9 0 -12.5 8.5t1.5 12.5l108 112q12 12 30 12h42q17 0 29 -12l108 -112q5 -4 1.5 -12.5t-12.5 -8.5h-59q-15 0 -31 16l-51 49
q-7 7 -14 0z" />
    <glyph glyph-name="idieresis" unicode="&#xef;" horiz-adv-x="230" 
d="M80 691v-69q0 -16 -16 -16h-68q-16 0 -16 16v69q0 6 4.5 11t11.5 5h68q7 0 11.5 -5t4.5 -11zM251 691v-69q0 -16 -16 -16h-68q-16 0 -16 16v69q0 6 4.5 11t11.5 5h68q7 0 11.5 -5t4.5 -11zM162 480v-460q0 -8 -6 -14t-14 -6h-52q-8 0 -14 6t-6 14v460q0 8 6 14t14 6h52
q8 0 14 -6t6 -14z" />
    <glyph glyph-name="eth" unicode="&#xf0;" horiz-adv-x="493" 
d="M243 80q50 0 81 29t34 71q3 45 0 90q-3 42 -34 71t-81 29t-81 -29t-34 -71q-3 -45 0 -90q3 -42 34 -71t81 -29zM237 606q-15 4 -35 4h-36q-8 0 -14 6t-6 14v50q0 8 6 14t14 6h36q81 0 132 -37q5 -2 9 1l71 41q8 5 16.5 0.5t8.5 -14.5v-41q0 -16 -13 -24l-31 -19
q-8 -6 -5 -10q33 -63 50 -177q18 -120 3 -240q-10 -83 -62 -136.5t-138 -53.5q-87 0 -143 54.5t-62 135.5q-3 45 0 90q6 81 62 135.5t143 54.5q45 0 87 -24q4 -2 6.5 -2t3.5 1.5t1 4.5q-6 63 -27 101q-5 9 -10 4l-73 -41q-8 -5 -18 -1t-10 15v31q0 21 15 28l24 12q6 4 4 9.5
t-9 7.5z" />
    <glyph glyph-name="ntilde" unicode="&#xf1;" horiz-adv-x="515" 
d="M460 320v-300q0 -8 -6 -14t-14 -6h-50q-8 0 -14 6t-6 14v300q0 47 -31 73.5t-79 26.5q-47 0 -78.5 -26t-31.5 -69v-305q0 -8 -6 -14t-14 -6h-50q-8 0 -14 6t-6 14v460q0 8 6 14t14 6h44q7 0 14 -7q14 -16 25 -16q9 0 38 16.5t69 16.5q85 0 137.5 -51.5t52.5 -138.5z
M327 684q29 0 46 21q6 8 15.5 4t9.5 -18v-40q0 -20 -21 -35.5t-50 -15.5q-31 0 -68 12.5t-72 12.5q-28 0 -46 -21q-6 -8 -15.5 -3.5t-9.5 17.5v40q0 20 21 35.5t50 15.5q31 0 68 -12.5t72 -12.5z" />
    <glyph glyph-name="ograve" unicode="&#xf2;" horiz-adv-x="500" 
d="M135 320q-5 -70 0 -140q3 -42 34 -71t81 -29t81 29t34 71q5 70 0 140q-3 42 -34 71t-81 29t-81 -29t-34 -71zM45 180q-5 70 0 140q6 81 62 135.5t143 54.5t143 -54.5t62 -135.5q5 -70 0 -140q-6 -81 -62 -135.5t-143 -54.5t-143 54.5t-62 135.5zM125 730h79q15 0 26 -16
l76 -109q4 -6 -0.5 -13t-13.5 -7h-40q-18 0 -30 12l-108 112q-5 5 -1.5 13t12.5 8z" />
    <glyph glyph-name="oacute" unicode="&#xf3;" horiz-adv-x="500" 
d="M135 320q-5 -70 0 -140q3 -42 34 -71t81 -29t81 29t34 71q5 70 0 140q-3 42 -34 71t-81 29t-81 -29t-34 -71zM45 180q-5 70 0 140q6 81 62 135.5t143 54.5t143 -54.5t62 -135.5q5 -70 0 -140q-6 -81 -62 -135.5t-143 -54.5t-143 54.5t-62 135.5zM295 730h79q9 0 12.5 -8
t-1.5 -13l-108 -112q-12 -12 -30 -12h-40q-9 0 -13.5 7t-0.5 13l76 109q11 16 26 16z" />
    <glyph glyph-name="ocircumflex" unicode="&#xf4;" horiz-adv-x="500" 
d="M135 320q-5 -70 0 -140q3 -42 34 -71t81 -29t81 29t34 71q5 70 0 140q-3 42 -34 71t-81 29t-81 -29t-34 -71zM45 180q-5 70 0 140q6 81 62 135.5t143 54.5t143 -54.5t62 -135.5q5 -70 0 -140q-6 -81 -62 -135.5t-143 -54.5t-143 54.5t-62 135.5zM243 650l-50 -49
q-16 -16 -31 -16h-59q-9 0 -12.5 8.5t1.5 12.5l108 112q12 12 30 12h42q17 0 29 -12l108 -112q5 -4 1.5 -12.5t-12.5 -8.5h-59q-15 0 -31 16l-51 49q-7 7 -14 0z" />
    <glyph glyph-name="otilde" unicode="&#xf5;" horiz-adv-x="500" 
d="M135 320q-5 -70 0 -140q3 -42 34 -71t81 -29t81 29t34 71q5 70 0 140q-3 42 -34 71t-81 29t-81 -29t-34 -71zM45 180q-5 70 0 140q6 81 62 135.5t143 54.5t143 -54.5t62 -135.5q5 -70 0 -140q-6 -81 -62 -135.5t-143 -54.5t-143 54.5t-62 135.5zM320 684q29 0 46 21
q6 8 15.5 4t9.5 -18v-40q0 -20 -21 -35.5t-50 -15.5q-32 0 -69 12.5t-71 12.5q-28 0 -46 -21q-6 -8 -15.5 -3.5t-9.5 17.5v40q0 20 21 35.5t50 15.5q31 0 68.5 -12.5t71.5 -12.5z" />
    <glyph glyph-name="odieresis" unicode="&#xf6;" horiz-adv-x="500" 
d="M135 320q-5 -70 0 -140q3 -42 34 -71t81 -29t81 29t34 71q5 70 0 140q-3 42 -34 71t-81 29t-81 -29t-34 -71zM45 180q-5 70 0 140q6 81 62 135.5t143 54.5t143 -54.5t62 -135.5q5 -70 0 -140q-6 -81 -62 -135.5t-143 -54.5t-143 54.5t-62 135.5zM214 691v-69
q0 -16 -16 -16h-68q-16 0 -16 16v69q0 6 4.5 11t11.5 5h68q7 0 11.5 -5t4.5 -11zM385 691v-69q0 -16 -16 -16h-68q-16 0 -16 16v69q0 6 4.5 11t11.5 5h68q7 0 11.5 -5t4.5 -11z" />
    <glyph glyph-name="divide" unicode="&#xf7;" horiz-adv-x="520" 
d="M470 277v-55q0 -8 -6 -14t-14 -6h-380q-8 0 -14 6t-6 14v55q0 8 6 14t14 6h380q8 0 14 -6t6 -14zM328 103v-83q0 -8 -6 -14t-14 -6h-83q-8 0 -14 6t-6 14v83q0 8 6 14t14 6h83q8 0 14 -6t6 -14zM225 490h83q8 0 14 -6t6 -14v-83q0 -8 -6 -14t-14 -6h-83q-8 0 -14 6t-6 14
v83q0 8 6 14t14 6z" />
    <glyph glyph-name="oslash" unicode="&#xf8;" horiz-adv-x="500" 
d="M250 510q71 0 121 -36q5 -3 9 1l9 10q12 15 24 15h47q10 0 15.5 -10.5t-1.5 -19.5l-42 -51q-4 -5 -1 -14q21 -50 24 -85q5 -70 0 -140q-6 -81 -62 -135.5t-143 -54.5q-74 0 -127 40q-6 3 -9 -1l-11 -14q-12 -15 -25 -15h-48q-10 0 -16 11t2 21l49 58q4 5 1 11
q-18 36 -21 79q-5 70 0 140q6 81 62 135.5t143 54.5zM250 80q50 0 81 29t34 71q6 88 0 140q0 4 -2.5 6.5t-6.5 -1.5l-176 -215q-5 -7 1 -10q28 -20 69 -20zM250 420q-50 0 -81 -29t-34 -71q-5 -65 0 -134q0 -2 2 -3t5 1l172 210q5 7 -1 10q-29 16 -63 16z" />
    <glyph glyph-name="ugrave" unicode="&#xf9;" horiz-adv-x="515" 
d="M55 180v300q0 8 6 14t14 6h50q8 0 14 -6t6 -14v-300q0 -44 29.5 -72t80.5 -28q47 0 78.5 26t31.5 69v305q0 8 6 14t14 6h50q8 0 14 -6t6 -14v-460q0 -8 -6 -14t-14 -6h-44q-7 0 -14 7q-14 16 -25 16q-9 0 -36.5 -16.5t-70.5 -16.5q-84 0 -137 53.5t-53 136.5zM143 730h79
q15 0 26 -16l76 -109q4 -6 -0.5 -13t-13.5 -7h-40q-18 0 -30 12l-108 112q-5 5 -1.5 13t12.5 8z" />
    <glyph glyph-name="uacute" unicode="&#xfa;" horiz-adv-x="515" 
d="M55 180v300q0 8 6 14t14 6h50q8 0 14 -6t6 -14v-300q0 -44 29.5 -72t80.5 -28q47 0 78.5 26t31.5 69v305q0 8 6 14t14 6h50q8 0 14 -6t6 -14v-460q0 -8 -6 -14t-14 -6h-44q-7 0 -14 7q-14 16 -25 16q-9 0 -36.5 -16.5t-70.5 -16.5q-84 0 -137 53.5t-53 136.5zM293 730h79
q9 0 12.5 -8t-1.5 -13l-108 -112q-12 -12 -30 -12h-40q-9 0 -13.5 7t-0.5 13l76 109q11 16 26 16z" />
    <glyph glyph-name="ucircumflex" unicode="&#xfb;" horiz-adv-x="515" 
d="M55 180v300q0 8 6 14t14 6h50q8 0 14 -6t6 -14v-300q0 -44 29.5 -72t80.5 -28q47 0 78.5 26t31.5 69v305q0 8 6 14t14 6h50q8 0 14 -6t6 -14v-460q0 -8 -6 -14t-14 -6h-44q-7 0 -14 7q-14 16 -25 16q-9 0 -36.5 -16.5t-70.5 -16.5q-84 0 -137 53.5t-53 136.5zM250 650
l-50 -49q-16 -16 -31 -16h-59q-9 0 -12.5 8.5t1.5 12.5l108 112q12 12 30 12h42q17 0 29 -12l108 -112q5 -4 1.5 -12.5t-12.5 -8.5h-59q-15 0 -31 16l-51 49q-7 7 -14 0z" />
    <glyph glyph-name="udieresis" unicode="&#xfc;" horiz-adv-x="515" 
d="M55 180v300q0 8 6 14t14 6h50q8 0 14 -6t6 -14v-300q0 -44 29.5 -72t80.5 -28q47 0 78.5 26t31.5 69v305q0 8 6 14t14 6h50q8 0 14 -6t6 -14v-460q0 -8 -6 -14t-14 -6h-44q-7 0 -14 7q-14 16 -25 16q-9 0 -36.5 -16.5t-70.5 -16.5q-84 0 -137 53.5t-53 136.5zM222 691
v-69q0 -16 -16 -16h-68q-16 0 -16 16v69q0 6 4.5 11t11.5 5h68q7 0 11.5 -5t4.5 -11zM393 691v-69q0 -16 -16 -16h-68q-16 0 -16 16v69q0 6 4.5 11t11.5 5h68q7 0 11.5 -5t4.5 -11z" />
    <glyph glyph-name="yacute" unicode="&#xfd;" horiz-adv-x="462" 
d="M106 485l123 -325q4 -10 8 0l116 325q5 15 19 15h59q11 0 16.5 -7.5t2.5 -15.5l-254 -662q-5 -15 -19 -15h-54q-11 0 -16.5 7.5t-2.5 15.5l74 204q3 8 1 13l-172 437q-3 8 2.5 15.5t16.5 7.5h61q14 0 19 -15zM266 730h79q9 0 12.5 -8t-1.5 -13l-108 -112q-12 -12 -30 -12
h-40q-9 0 -13.5 7t-0.5 13l76 109q11 16 26 16z" />
    <glyph glyph-name="thorn" unicode="&#xfe;" horiz-adv-x="496" 
d="M155 687v-181q0 -8 6 -14.5t16 -6.5q7 0 37 12.5t56 12.5q77 0 130.5 -55t59.5 -135q5 -70 0 -140q-6 -80 -59.5 -135t-130.5 -55q-26 0 -56 12.5t-37 12.5q-10 0 -16 -6.5t-6 -14.5v-174q0 -8 -6 -14t-14 -6h-50q-8 0 -14 6t-6 14v867q0 8 6 14t14 6h50q8 0 14 -6t6 -14
zM375 180q5 70 0 140q-3 42 -34 71t-81 29t-81 -29t-34 -71q-5 -70 0 -140q3 -42 34 -71t81 -29t81 29t34 71z" />
    <glyph glyph-name="ydieresis" unicode="&#xff;" horiz-adv-x="462" 
d="M106 485l123 -325q4 -10 8 0l116 325q5 15 19 15h59q11 0 16.5 -7.5t2.5 -15.5l-254 -662q-5 -15 -19 -15h-54q-11 0 -16.5 7.5t-2.5 15.5l74 204q3 8 1 13l-172 437q-3 8 2.5 15.5t16.5 7.5h61q14 0 19 -15zM195 691v-69q0 -16 -16 -16h-68q-16 0 -16 16v69q0 6 4.5 11
t11.5 5h68q7 0 11.5 -5t4.5 -11zM366 691v-69q0 -16 -16 -16h-68q-16 0 -16 16v69q0 6 4.5 11t11.5 5h68q7 0 11.5 -5t4.5 -11z" />
    <glyph glyph-name="Amacron" unicode="&#x100;" horiz-adv-x="488" 
d="M182 275h124q11 0 8 11l-65 279q-1 6 -4 6h-2q-3 0 -4 -6l-65 -279q-3 -11 8 -11zM390 15l-44 153q-3 14 -19 14h-166q-14 0 -19 -14l-44 -153q-5 -15 -19 -15h-55q-11 0 -16.5 6t-3.5 14l186 665q3 15 19 15h70q16 0 19 -15l186 -665q2 -8 -3.5 -14t-16.5 -6h-55
q-14 0 -19 15zM123 839h242q8 0 14 -6t6 -14v-38q0 -8 -6 -14t-14 -6h-242q-8 0 -14 6t-6 14v38q0 8 6 14t14 6z" />
    <glyph glyph-name="amacron" unicode="&#x101;" horiz-adv-x="487" 
d="M338 220h-130q-75 0 -75 -69q0 -37 23 -57.5t66 -20.5q67 0 96.5 26t29.5 79v32q0 10 -10 10zM247 430q-33 0 -63 -15.5t-30 -47.5q0 -17 -23 -17h-45q-20 0 -20 20q0 65 55.5 102.5t125.5 37.5q183 0 183 -160v-330q0 -8 -6 -14t-14 -6h-34q-8 0 -14 7q-1 2 -5 8.5
t-7 9.5t-8 3q-6 0 -20 -9.5t-39.5 -19t-57.5 -9.5q-88 0 -135 46t-47 114q0 65 44.5 108.5t120.5 43.5h122q10 0 10 10v38q0 39 -25 59.5t-68 20.5zM122 694h242q8 0 14 -6t6 -14v-38q0 -8 -6 -14t-14 -6h-242q-8 0 -14 6t-6 14v38q0 8 6 14t14 6z" />
    <glyph glyph-name="Abreve" unicode="&#x102;" horiz-adv-x="488" 
d="M182 275h124q11 0 8 11l-65 279q-1 6 -4 6h-2q-3 0 -4 -6l-65 -279q-3 -11 8 -11zM390 15l-44 153q-3 14 -19 14h-166q-14 0 -19 -14l-44 -153q-5 -15 -19 -15h-55q-11 0 -16.5 6t-3.5 14l186 665q3 15 19 15h70q16 0 19 -15l186 -665q2 -8 -3.5 -14t-16.5 -6h-55
q-14 0 -19 15zM304 878q0 7 5 12t12 5h43q7 0 12 -5t5 -12q0 -54 -39 -91t-98 -37q-60 0 -99 37t-39 91q0 7 5 12t12 5h43q7 0 12 -5t5 -12q0 -23 18.5 -39.5t42.5 -16.5t42 16.5t18 39.5z" />
    <glyph glyph-name="abreve" unicode="&#x103;" horiz-adv-x="487" 
d="M338 220h-130q-75 0 -75 -69q0 -37 23 -57.5t66 -20.5q67 0 96.5 26t29.5 79v32q0 10 -10 10zM247 430q-33 0 -63 -15.5t-30 -47.5q0 -17 -23 -17h-45q-20 0 -20 20q0 65 55.5 102.5t125.5 37.5q183 0 183 -160v-330q0 -8 -6 -14t-14 -6h-34q-8 0 -14 7q-1 2 -5 8.5
t-7 9.5t-8 3q-6 0 -20 -9.5t-39.5 -19t-57.5 -9.5q-88 0 -135 46t-47 114q0 65 44.5 108.5t120.5 43.5h122q10 0 10 10v38q0 39 -25 59.5t-68 20.5zM314 713q0 7 5 12t12 5h43q7 0 12 -5t5 -12q0 -54 -39 -91t-98 -37q-60 0 -99 37t-39 91q0 7 5 12t12 5h43q7 0 12 -5t5 -12
q0 -23 18.5 -39.5t42.5 -16.5t42 16.5t18 39.5z" />
    <glyph glyph-name="Aogonek" unicode="&#x104;" horiz-adv-x="488" 
d="M327 182h-166q-14 0 -19 -14l-44 -153q-5 -15 -19 -15h-55q-11 0 -16.5 6t-3.5 14l186 665q3 15 19 15h70q16 0 19 -15l186 -665q2 -8 -3.5 -14t-16.5 -6h-7q-34 -2 -54 -20t-20 -49q0 -66 76 -66q8 0 14 -6t6 -14v-35q0 -8 -6 -14t-14 -6q-72 0 -115.5 35t-43.5 101
q0 83 79 126l-33 116q-3 14 -19 14zM182 275h124q11 0 8 11l-65 279q-1 6 -4 6h-2q-3 0 -4 -6l-65 -279q-3 -11 8 -11z" />
    <glyph glyph-name="aogonek" unicode="&#x105;" horiz-adv-x="487" 
d="M247 430q-33 0 -63 -15.5t-30 -47.5q0 -17 -23 -17h-45q-20 0 -20 20q0 65 55.5 102.5t125.5 37.5q79 0 131 -40.5t52 -119.5v-330q0 -8 -6 -14t-14 -6q-36 0 -58.5 -18.5t-22.5 -50.5q0 -66 76 -66q8 0 14 -6t6 -14v-35q0 -8 -6 -14t-14 -6q-72 0 -115.5 35t-43.5 101
q0 19 10 42t23 35q-24 -13 -54 -13q-88 0 -135 46t-47 114q0 65 44.5 108.5t120.5 43.5h122q10 0 10 10v38q0 39 -25 59.5t-68 20.5zM338 220h-130q-75 0 -75 -69q0 -37 23 -57.5t66 -20.5q67 0 96.5 26t29.5 79v32q0 10 -10 10z" />
    <glyph glyph-name="Cacute" unicode="&#x106;" horiz-adv-x="543" 
d="M503 214v-14q0 -85 -64 -146.5t-161 -61.5q-91 0 -152 56t-73 152q-7 61 -7 150.5t7 149.5q10 87 70.5 147.5t154.5 60.5t159.5 -57t65.5 -151v-14q0 -8 -6 -14t-14 -6h-55q-8 0 -14 6t-6 14v14q0 46 -36 79t-94 34q-51 0 -87 -30t-43 -83q-8 -62 -8 -150.5t8 -149.5
q6 -47 40.5 -80t89.5 -33q53 0 91.5 30.5t38.5 82.5v14q0 8 6 14t14 6h55q8 0 14 -6t6 -14zM341 895h79q9 0 12.5 -8.5t-1.5 -12.5l-108 -112q-12 -12 -30 -12h-40q-9 0 -13.5 7t-0.5 13l76 109q11 16 26 16z" />
    <glyph glyph-name="cacute" unicode="&#x107;" horiz-adv-x="478" 
d="M347 163q0 17 19 17h52q8 0 14 -6t6 -14q0 -73 -54.5 -121.5t-138.5 -48.5q-87 0 -140.5 54t-59.5 136q-5 70 0 140q6 82 59.5 136t140.5 54q84 0 138.5 -48.5t54.5 -121.5q0 -20 -17 -20h-54q-19 0 -19 16q0 36 -28.5 60t-74.5 24q-49 0 -78 -29t-32 -71q-5 -70 0 -140
q3 -42 32 -71t78 -29q45 0 73.5 23.5t28.5 59.5zM284 730h79q9 0 12.5 -8t-1.5 -13l-108 -112q-12 -12 -30 -12h-40q-9 0 -13.5 7t-0.5 13l76 109q11 16 26 16z" />
    <glyph glyph-name="Ccircumflex" unicode="&#x108;" horiz-adv-x="543" 
d="M503 214v-14q0 -85 -64 -146.5t-161 -61.5q-91 0 -152 56t-73 152q-7 61 -7 150.5t7 149.5q10 87 70.5 147.5t154.5 60.5t159.5 -57t65.5 -151v-14q0 -8 -6 -14t-14 -6h-55q-8 0 -14 6t-6 14v14q0 46 -36 79t-94 34q-51 0 -87 -30t-43 -83q-8 -62 -8 -150.5t8 -149.5
q6 -47 40.5 -80t89.5 -33q53 0 91.5 30.5t38.5 82.5v14q0 8 6 14t14 6h55q8 0 14 -6t6 -14zM279 815l-50 -49q-16 -16 -31 -16h-59q-9 0 -12.5 8t1.5 13l108 112q12 12 30 12h42q17 0 29 -12l108 -112q5 -5 1.5 -13t-12.5 -8h-59q-15 0 -31 16l-51 49q-7 7 -14 0z" />
    <glyph glyph-name="ccircumflex" unicode="&#x109;" horiz-adv-x="478" 
d="M347 163q0 17 19 17h52q8 0 14 -6t6 -14q0 -73 -54.5 -121.5t-138.5 -48.5q-87 0 -140.5 54t-59.5 136q-5 70 0 140q6 82 59.5 136t140.5 54q84 0 138.5 -48.5t54.5 -121.5q0 -20 -17 -20h-54q-19 0 -19 16q0 36 -28.5 60t-74.5 24q-49 0 -78 -29t-32 -71q-5 -70 0 -140
q3 -42 32 -71t78 -29q45 0 73.5 23.5t28.5 59.5zM242 650l-50 -49q-16 -16 -31 -16h-59q-9 0 -12.5 8.5t1.5 12.5l108 112q12 12 30 12h42q17 0 29 -12l108 -112q5 -4 1.5 -12.5t-12.5 -8.5h-59q-15 0 -31 16l-51 49q-7 7 -14 0z" />
    <glyph glyph-name="Cdotaccent" unicode="&#x10a;" horiz-adv-x="543" 
d="M503 214v-14q0 -85 -64 -146.5t-161 -61.5q-91 0 -152 56t-73 152q-7 61 -7 150.5t7 149.5q10 87 70.5 147.5t154.5 60.5t159.5 -57t65.5 -151v-14q0 -8 -6 -14t-14 -6h-55q-8 0 -14 6t-6 14v14q0 46 -36 79t-94 34q-51 0 -87 -30t-43 -83q-8 -62 -8 -150.5t8 -149.5
q6 -47 40.5 -80t89.5 -33q53 0 91.5 30.5t38.5 82.5v14q0 8 6 14t14 6h55q8 0 14 -6t6 -14zM326 835v-69q0 -16 -16 -16h-68q-16 0 -16 16v69q0 6 4.5 11t11.5 5h68q7 0 11.5 -5t4.5 -11z" />
    <glyph glyph-name="cdotaccent" unicode="&#x10b;" horiz-adv-x="478" 
d="M347 163q0 17 19 17h52q8 0 14 -6t6 -14q0 -73 -54.5 -121.5t-138.5 -48.5q-87 0 -140.5 54t-59.5 136q-5 70 0 140q6 82 59.5 136t140.5 54q84 0 138.5 -48.5t54.5 -121.5q0 -20 -17 -20h-54q-19 0 -19 16q0 36 -28.5 60t-74.5 24q-49 0 -78 -29t-32 -71q-5 -70 0 -140
q3 -42 32 -71t78 -29q45 0 73.5 23.5t28.5 59.5zM289 691v-69q0 -16 -16 -16h-68q-16 0 -16 16v69q0 6 4.5 11t11.5 5h68q7 0 11.5 -5t4.5 -11z" />
    <glyph glyph-name="Ccaron" unicode="&#x10c;" horiz-adv-x="543" 
d="M503 214v-14q0 -85 -64 -146.5t-161 -61.5q-91 0 -152 56t-73 152q-7 61 -7 150.5t7 149.5q10 87 70.5 147.5t154.5 60.5t159.5 -57t65.5 -151v-14q0 -8 -6 -14t-14 -6h-55q-8 0 -14 6t-6 14v14q0 46 -36 79t-94 34q-51 0 -87 -30t-43 -83q-8 -62 -8 -150.5t8 -149.5
q6 -47 40.5 -80t89.5 -33q53 0 91.5 30.5t38.5 82.5v14q0 8 6 14t14 6h55q8 0 14 -6t6 -14zM224 879l50 -49q7 -7 14 0l51 49q16 16 31 16h59q9 0 12.5 -8.5t-1.5 -12.5l-108 -112q-12 -12 -29 -12h-42q-18 0 -30 12l-108 112q-5 4 -1.5 12.5t12.5 8.5h59q15 0 31 -16z" />
    <glyph glyph-name="ccaron" unicode="&#x10d;" horiz-adv-x="478" 
d="M347 163q0 17 19 17h52q8 0 14 -6t6 -14q0 -73 -54.5 -121.5t-138.5 -48.5q-87 0 -140.5 54t-59.5 136q-5 70 0 140q6 82 59.5 136t140.5 54q84 0 138.5 -48.5t54.5 -121.5q0 -20 -17 -20h-54q-19 0 -19 16q0 36 -28.5 60t-74.5 24q-49 0 -78 -29t-32 -71q-5 -70 0 -140
q3 -42 32 -71t78 -29q45 0 73.5 23.5t28.5 59.5zM181 714l50 -49q7 -7 14 0l51 49q16 16 31 16h59q9 0 12.5 -8t-1.5 -13l-108 -112q-12 -12 -29 -12h-42q-18 0 -30 12l-108 112q-5 5 -1.5 13t12.5 8h59q15 0 31 -16z" />
    <glyph glyph-name="Dcaron" unicode="&#x10e;" horiz-adv-x="538" 
d="M275 605h-105q-10 0 -10 -10v-490q0 -10 10 -10h105q44 0 77 34t38 81q8 60 8 140t-8 140q-5 47 -38 81t-77 34zM85 700h190q85 0 142 -60t68 -150q17 -133 0 -280q-10 -89 -67.5 -149.5t-142.5 -60.5h-190q-8 0 -14 6t-6 14v660q0 8 6 14t14 6zM191 879l50 -49
q7 -7 14 0l51 49q16 16 31 16h59q9 0 12.5 -8.5t-1.5 -12.5l-108 -112q-12 -12 -29 -12h-42q-18 0 -30 12l-108 112q-5 4 -1.5 12.5t12.5 8.5h59q15 0 31 -16z" />
    <glyph glyph-name="dcaron" unicode="&#x10f;" horiz-adv-x="573" 
d="M130 320q-5 -70 0 -140q3 -42 34 -71t81 -29t81 29t34 71q5 70 0 140q-3 42 -34 71t-81 29t-81 -29t-34 -71zM235 -10q-77 0 -130.5 55t-59.5 135q-5 70 0 140q6 80 59.5 135t130.5 55q26 0 56 -12.5t37 -12.5q22 0 22 25v177q0 8 6 14t14 6h50q8 0 14 -6t6 -14v-667
q0 -8 -6 -14t-14 -6h-34q-7 0 -14 7q-14 16 -25 16q-9 0 -39 -16.5t-73 -16.5zM533 496q-14 0 -19 11t1 22l31 57q3 5 -0.5 9t-8.5 4h-7q-8 0 -14 6t-6 14v61q0 8 6 14t14 6h70q8 0 14 -6t6 -14v-61q0 -34 -20 -62l-32 -46q-10 -15 -26 -15h-9z" />
    <glyph glyph-name="Dcroat" unicode="&#x110;" horiz-adv-x="538" 
d="M160 300v-195q0 -10 10 -10h105q44 0 77 34t38 81q8 60 8 140t-8 140q-5 47 -38 81t-77 34h-105q-10 0 -10 -10v-180q0 -10 10 -10h100q8 0 14 -6t6 -14v-55q0 -8 -6 -14t-14 -6h-100q-10 0 -10 -10zM85 700h190q85 0 142 -60t68 -150q17 -133 0 -280
q-10 -89 -67.5 -149.5t-142.5 -60.5h-190q-8 0 -14 6t-6 14v280q0 10 -10 10h-32q-8 0 -14 6t-6 14v55q0 8 6 14t14 6h32q10 0 10 10v265q0 8 6 14t14 6z" />
    <glyph glyph-name="dcroat" unicode="&#x111;" horiz-adv-x="505" 
d="M130 320q-5 -70 0 -140q3 -42 34 -71t81 -29t81 29t34 71q5 70 0 140q-3 42 -34 71t-81 29t-81 -29t-34 -71zM440 687v-40q0 -10 10 -10h35q8 0 14 -6t6 -14v-40q0 -8 -6 -14t-14 -6h-35q-10 0 -10 -10v-527q0 -8 -6 -14t-14 -6h-34q-7 0 -14 7q-14 16 -25 16
q-9 0 -39 -16.5t-73 -16.5q-77 0 -130.5 55t-59.5 135q-5 70 0 140q6 80 59.5 135t130.5 55q26 0 56 -12.5t37 -12.5q22 0 22 25v37q0 10 -10 10h-70q-8 0 -14 6t-6 14v40q0 8 6 14t14 6h70q10 0 10 10v40q0 8 6 14t14 6h50q8 0 14 -6t6 -14z" />
    <glyph glyph-name="Emacron" unicode="&#x112;" horiz-adv-x="470" 
d="M160 300v-195q0 -10 10 -10h240q8 0 14 -6t6 -14v-55q0 -8 -6 -14t-14 -6h-325q-8 0 -14 6t-6 14v660q0 8 6 14t14 6h323q8 0 14 -6t6 -14v-55q0 -8 -6 -14t-14 -6h-238q-10 0 -10 -10v-180q0 -10 10 -10h227q8 0 14 -6t6 -14v-55q0 -8 -6 -14t-14 -6h-227q-10 0 -10 -10
zM124 838h242q8 0 14 -6t6 -14v-38q0 -8 -6 -14t-14 -6h-242q-8 0 -14 6t-6 14v38q0 8 6 14t14 6z" />
    <glyph glyph-name="emacron" unicode="&#x113;" horiz-adv-x="492" 
d="M251 420q-51 0 -83 -31t-32 -78q0 -10 10 -10h208q10 0 10 10q0 50 -32.5 79.5t-80.5 29.5zM430 221h-286q-10 0 -10 -10q0 -66 31 -98.5t85 -32.5q38 0 66 17.5t37 45.5q5 17 23 17h51q20 0 17 -20q-9 -66 -63 -108t-131 -42q-87 0 -143 54.5t-62 135.5q-5 70 0 140
q6 81 62 135.5t143 54.5q91 0 145.5 -53.5t54.5 -146.5v-69q0 -8 -6 -14t-14 -6zM125 694h242q8 0 14 -6t6 -14v-38q0 -8 -6 -14t-14 -6h-242q-8 0 -14 6t-6 14v38q0 8 6 14t14 6z" />
    <glyph glyph-name="Ebreve" unicode="&#x114;" horiz-adv-x="470" 
d="M160 300v-195q0 -10 10 -10h240q8 0 14 -6t6 -14v-55q0 -8 -6 -14t-14 -6h-325q-8 0 -14 6t-6 14v660q0 8 6 14t14 6h323q8 0 14 -6t6 -14v-55q0 -8 -6 -14t-14 -6h-238q-10 0 -10 -10v-180q0 -10 10 -10h227q8 0 14 -6t6 -14v-55q0 -8 -6 -14t-14 -6h-227q-10 0 -10 -10
zM307 879q0 7 5 12t12 5h43q7 0 12 -5t5 -12q0 -54 -39 -91t-98 -37q-60 0 -99 37t-39 91q0 7 5 12t12 5h43q7 0 12 -5t5 -12q0 -23 18.5 -39.5t42.5 -16.5t42 16.5t18 39.5z" />
    <glyph glyph-name="ebreve" unicode="&#x115;" horiz-adv-x="492" 
d="M251 420q-51 0 -83 -31t-32 -78q0 -10 10 -10h208q10 0 10 10q0 50 -32.5 79.5t-80.5 29.5zM430 221h-286q-10 0 -10 -10q0 -66 31 -98.5t85 -32.5q38 0 66 17.5t37 45.5q5 17 23 17h51q20 0 17 -20q-9 -66 -63 -108t-131 -42q-87 0 -143 54.5t-62 135.5q-5 70 0 140
q6 81 62 135.5t143 54.5q91 0 145.5 -53.5t54.5 -146.5v-69q0 -8 -6 -14t-14 -6zM306 713q0 7 5 12t12 5h43q7 0 12 -5t5 -12q0 -54 -39 -91t-98 -37q-60 0 -99 37t-39 91q0 7 5 12t12 5h43q7 0 12 -5t5 -12q0 -23 18.5 -39.5t42.5 -16.5t42 16.5t18 39.5z" />
    <glyph glyph-name="Edotaccent" unicode="&#x116;" horiz-adv-x="470" 
d="M160 300v-195q0 -10 10 -10h240q8 0 14 -6t6 -14v-55q0 -8 -6 -14t-14 -6h-325q-8 0 -14 6t-6 14v660q0 8 6 14t14 6h323q8 0 14 -6t6 -14v-55q0 -8 -6 -14t-14 -6h-238q-10 0 -10 -10v-180q0 -10 10 -10h227q8 0 14 -6t6 -14v-55q0 -8 -6 -14t-14 -6h-227q-10 0 -10 -10
zM296 835v-69q0 -16 -16 -16h-68q-16 0 -16 16v69q0 6 4.5 11t11.5 5h68q7 0 11.5 -5t4.5 -11z" />
    <glyph glyph-name="edotaccent" unicode="&#x117;" horiz-adv-x="492" 
d="M251 420q-51 0 -83 -31t-32 -78q0 -10 10 -10h208q10 0 10 10q0 50 -32.5 79.5t-80.5 29.5zM430 221h-286q-10 0 -10 -10q0 -66 31 -98.5t85 -32.5q38 0 66 17.5t37 45.5q5 17 23 17h51q20 0 17 -20q-9 -66 -63 -108t-131 -42q-87 0 -143 54.5t-62 135.5q-5 70 0 140
q6 81 62 135.5t143 54.5q91 0 145.5 -53.5t54.5 -146.5v-69q0 -8 -6 -14t-14 -6zM306 691v-69q0 -16 -16 -16h-68q-16 0 -16 16v69q0 6 4.5 11t11.5 5h68q7 0 11.5 -5t4.5 -11z" />
    <glyph glyph-name="Eogonek" unicode="&#x118;" horiz-adv-x="470" 
d="M160 595v-180q0 -10 10 -10h227q8 0 14 -6t6 -14v-55q0 -8 -6 -14t-14 -6h-227q-10 0 -10 -10v-195q0 -10 10 -10h240q8 0 14 -6t6 -14v-55q0 -8 -6 -14t-14 -6h-1q-35 0 -57.5 -18t-22.5 -51q0 -66 76 -66q8 0 14 -6t6 -14v-35q0 -8 -6 -14t-14 -6q-71 0 -115 37t-44 99
q0 46 26 74h-187q-8 0 -14 6t-6 14v660q0 8 6 14t14 6h323q8 0 14 -6t6 -14v-55q0 -8 -6 -14t-14 -6h-238q-10 0 -10 -10z" />
    <glyph glyph-name="eogonek" unicode="&#x119;" horiz-adv-x="492" 
d="M403 52q-3 -4 -14.5 -16.5t-16 -17.5t-13.5 -16t-13 -17.5t-9 -16.5t-7 -19t-2 -18q0 -66 81 -66q8 0 14 -6t6 -14v-35q0 -8 -6 -14t-14 -6q-78 0 -121 34.5t-43 101.5q0 30 20 65q-5 -1 -15 -1q-87 0 -143 54.5t-62 135.5q-5 70 0 140q6 81 62 135.5t143 54.5
q91 0 145.5 -53.5t54.5 -146.5v-69q0 -8 -6 -14t-14 -6h-286q-10 0 -10 -10q0 -66 31 -98.5t85 -32.5q38 0 66 17.5t37 45.5q5 17 23 17h51q20 0 17 -20q-8 -52 -41 -88zM136 311q0 -10 10 -10h208q10 0 10 10q0 50 -32.5 79.5t-80.5 29.5q-51 0 -83 -31t-32 -78z" />
    <glyph glyph-name="Ecaron" unicode="&#x11a;" horiz-adv-x="470" 
d="M160 300v-195q0 -10 10 -10h240q8 0 14 -6t6 -14v-55q0 -8 -6 -14t-14 -6h-325q-8 0 -14 6t-6 14v660q0 8 6 14t14 6h323q8 0 14 -6t6 -14v-55q0 -8 -6 -14t-14 -6h-238q-10 0 -10 -10v-180q0 -10 10 -10h227q8 0 14 -6t6 -14v-55q0 -8 -6 -14t-14 -6h-227q-10 0 -10 -10
zM185 879l50 -49q7 -7 14 0l51 49q16 16 31 16h59q9 0 12.5 -8.5t-1.5 -12.5l-108 -112q-12 -12 -29 -12h-42q-18 0 -30 12l-108 112q-5 4 -1.5 12.5t12.5 8.5h59q15 0 31 -16z" />
    <glyph glyph-name="ecaron" unicode="&#x11b;" horiz-adv-x="492" 
d="M251 420q-51 0 -83 -31t-32 -78q0 -10 10 -10h208q10 0 10 10q0 50 -32.5 79.5t-80.5 29.5zM430 221h-286q-10 0 -10 -10q0 -66 31 -98.5t85 -32.5q38 0 66 17.5t37 45.5q5 17 23 17h51q20 0 17 -20q-9 -66 -63 -108t-131 -42q-87 0 -143 54.5t-62 135.5q-5 70 0 140
q6 81 62 135.5t143 54.5q91 0 145.5 -53.5t54.5 -146.5v-69q0 -8 -6 -14t-14 -6zM193 714l50 -49q7 -7 14 0l51 49q16 16 31 16h59q9 0 12.5 -8t-1.5 -13l-108 -112q-12 -12 -29 -12h-42q-18 0 -30 12l-108 112q-5 5 -1.5 13t12.5 8h59q15 0 31 -16z" />
    <glyph glyph-name="Gcircumflex" unicode="&#x11c;" horiz-adv-x="546" 
d="M408 200v84q0 10 -10 10h-91q-8 0 -14 6t-6 14v55q0 8 6 14t14 6h176q8 0 14 -6t6 -14v-169q0 -88 -63.5 -148t-161.5 -60q-91 0 -152 56t-73 152q-7 61 -7 150.5t7 149.5q10 87 70.5 147.5t154.5 60.5t159.5 -57t65.5 -151v-14q0 -8 -6 -14t-14 -6h-55q-8 0 -14 6t-6 14
v14q0 46 -36 79t-94 34q-51 0 -87 -30t-43 -83q-8 -62 -8 -150.5t8 -149.5q6 -47 40.5 -80t89.5 -33t92.5 29t37.5 84zM270 815l-50 -49q-16 -16 -31 -16h-59q-9 0 -12.5 8t1.5 13l108 112q12 12 30 12h42q17 0 29 -12l108 -112q5 -5 1.5 -13t-12.5 -8h-59q-15 0 -31 16
l-51 49q-7 7 -14 0z" />
    <glyph glyph-name="gcircumflex" unicode="&#x11d;" horiz-adv-x="502" 
d="M360 180q5 70 0 140q-3 42 -34 71t-81 29t-81 -29t-34 -71q-5 -70 0 -140q3 -42 34 -71t81 -29t81 29t34 71zM235 510q43 0 73 -16.5t39 -16.5q11 0 25 16q7 7 14 7h34q8 0 14 -6t6 -14v-510q0 -74 -52.5 -127t-130.5 -53q-70 0 -121 36t-61 101q-3 23 18 23h48
q13 0 17.5 -4t7.5 -13q0 -1 0.5 -1.5t0.5 -1.5q20 -50 90 -50q39 0 66 25t27 65v22q0 25 -22 23q-6 0 -36 -12.5t-57 -12.5q-77 0 -130.5 55t-59.5 135q-5 70 0 140q6 80 59.5 135t130.5 55zM254 650l-50 -49q-16 -16 -31 -16h-59q-9 0 -12.5 8.5t1.5 12.5l108 112
q12 12 30 12h42q17 0 29 -12l108 -112q5 -4 1.5 -12.5t-12.5 -8.5h-59q-15 0 -31 16l-51 49q-7 7 -14 0z" />
    <glyph glyph-name="Gbreve" unicode="&#x11e;" horiz-adv-x="546" 
d="M408 200v84q0 10 -10 10h-91q-8 0 -14 6t-6 14v55q0 8 6 14t14 6h176q8 0 14 -6t6 -14v-169q0 -88 -63.5 -148t-161.5 -60q-91 0 -152 56t-73 152q-7 61 -7 150.5t7 149.5q10 87 70.5 147.5t154.5 60.5t159.5 -57t65.5 -151v-14q0 -8 -6 -14t-14 -6h-55q-8 0 -14 6t-6 14
v14q0 46 -36 79t-94 34q-51 0 -87 -30t-43 -83q-8 -62 -8 -150.5t8 -149.5q6 -47 40.5 -80t89.5 -33t92.5 29t37.5 84zM333 878q0 7 5 12t12 5h43q7 0 12 -5t5 -12q0 -54 -39 -91t-98 -37q-60 0 -99 37t-39 91q0 7 5 12t12 5h43q7 0 12 -5t5 -12q0 -23 18.5 -39.5
t42.5 -16.5t42 16.5t18 39.5z" />
    <glyph glyph-name="gbreve" unicode="&#x11f;" horiz-adv-x="502" 
d="M360 180q5 70 0 140q-3 42 -34 71t-81 29t-81 -29t-34 -71q-5 -70 0 -140q3 -42 34 -71t81 -29t81 29t34 71zM235 510q43 0 73 -16.5t39 -16.5q11 0 25 16q7 7 14 7h34q8 0 14 -6t6 -14v-510q0 -74 -52.5 -127t-130.5 -53q-70 0 -121 36t-61 101q-3 23 18 23h48
q13 0 17.5 -4t7.5 -13q0 -1 0.5 -1.5t0.5 -1.5q20 -50 90 -50q39 0 66 25t27 65v22q0 25 -22 23q-6 0 -36 -12.5t-57 -12.5q-77 0 -130.5 55t-59.5 135q-5 70 0 140q6 80 59.5 135t130.5 55zM311 713q0 7 5 12t12 5h43q7 0 12 -5t5 -12q0 -54 -39 -91t-98 -37q-60 0 -99 37
t-39 91q0 7 5 12t12 5h43q7 0 12 -5t5 -12q0 -23 18.5 -39.5t42.5 -16.5t42 16.5t18 39.5z" />
    <glyph glyph-name="Gdotaccent" unicode="&#x120;" horiz-adv-x="546" 
d="M408 200v84q0 10 -10 10h-91q-8 0 -14 6t-6 14v55q0 8 6 14t14 6h176q8 0 14 -6t6 -14v-169q0 -88 -63.5 -148t-161.5 -60q-91 0 -152 56t-73 152q-7 61 -7 150.5t7 149.5q10 87 70.5 147.5t154.5 60.5t159.5 -57t65.5 -151v-14q0 -8 -6 -14t-14 -6h-55q-8 0 -14 6t-6 14
v14q0 46 -36 79t-94 34q-51 0 -87 -30t-43 -83q-8 -62 -8 -150.5t8 -149.5q6 -47 40.5 -80t89.5 -33t92.5 29t37.5 84zM330 835v-69q0 -16 -16 -16h-68q-16 0 -16 16v69q0 6 4.5 11t11.5 5h68q7 0 11.5 -5t4.5 -11z" />
    <glyph glyph-name="gdotaccent" unicode="&#x121;" horiz-adv-x="502" 
d="M360 180q5 70 0 140q-3 42 -34 71t-81 29t-81 -29t-34 -71q-5 -70 0 -140q3 -42 34 -71t81 -29t81 29t34 71zM235 510q43 0 73 -16.5t39 -16.5q11 0 25 16q7 7 14 7h34q8 0 14 -6t6 -14v-510q0 -74 -52.5 -127t-130.5 -53q-70 0 -121 36t-61 101q-3 23 18 23h48
q13 0 17.5 -4t7.5 -13q0 -1 0.5 -1.5t0.5 -1.5q20 -50 90 -50q39 0 66 25t27 65v22q0 25 -22 23q-6 0 -36 -12.5t-57 -12.5q-77 0 -130.5 55t-59.5 135q-5 70 0 140q6 80 59.5 135t130.5 55zM301 691v-69q0 -16 -16 -16h-68q-16 0 -16 16v69q0 6 4.5 11t11.5 5h68
q7 0 11.5 -5t4.5 -11z" />
    <glyph glyph-name="Gcommaaccent" unicode="&#x122;" horiz-adv-x="546" 
d="M408 200v84q0 10 -10 10h-91q-8 0 -14 6t-6 14v55q0 8 6 14t14 6h176q8 0 14 -6t6 -14v-169q0 -88 -63.5 -148t-161.5 -60q-91 0 -152 56t-73 152q-7 61 -7 150.5t7 149.5q10 87 70.5 147.5t154.5 60.5t159.5 -57t65.5 -151v-14q0 -8 -6 -14t-14 -6h-55q-8 0 -14 6t-6 14
v14q0 46 -36 79t-94 34q-51 0 -87 -30t-43 -83q-8 -62 -8 -150.5t8 -149.5q6 -47 40.5 -80t89.5 -33t92.5 29t37.5 84zM342 -65v-61q0 -34 -20 -62l-32 -46q-10 -15 -26 -15h-9q-14 0 -19 11t1 22l31 57q3 5 -0.5 9t-8.5 4h-7q-8 0 -14 6t-6 14v61q0 8 6 14t14 6h70
q8 0 14 -6t6 -14z" />
    <glyph glyph-name="gcommaaccent" unicode="&#x123;" horiz-adv-x="502" 
d="M360 180q5 70 0 140q-3 42 -34 71t-81 29t-81 -29t-34 -71q-5 -70 0 -140q3 -42 34 -71t81 -29t81 29t34 71zM235 510q43 0 73 -16.5t39 -16.5q11 0 25 16q7 7 14 7h34q8 0 14 -6t6 -14v-510q0 -74 -52.5 -127t-130.5 -53q-70 0 -121 36t-61 101q-3 23 18 23h48
q13 0 17.5 -4t7.5 -13q0 -1 0.5 -1.5t0.5 -1.5q20 -50 90 -50q39 0 66 25t27 65v22q0 25 -22 23q-6 0 -36 -12.5t-57 -12.5q-77 0 -130.5 55t-59.5 135q-5 70 0 140q6 80 59.5 135t130.5 55zM277 780q14 0 19 -11t-1 -22l-31 -57q-3 -5 0.5 -9t8.5 -4h7q8 0 14 -6t6 -14v-61
q0 -8 -6 -14t-14 -6h-70q-8 0 -14 6t-6 14v61q0 34 20 62l32 46q10 15 26 15h9z" />
    <glyph glyph-name="Hcircumflex" unicode="&#x124;" horiz-adv-x="560" 
d="M400 680q0 8 6 14t14 6h55q8 0 14 -6t6 -14v-660q0 -8 -6 -14t-14 -6h-55q-8 0 -14 6t-6 14v280q0 10 -10 10h-220q-10 0 -10 -10v-280q0 -8 -6 -14t-14 -6h-55q-8 0 -14 6t-6 14v660q0 8 6 14t14 6h55q8 0 14 -6t6 -14v-265q0 -10 10 -10h220q10 0 10 10v265zM272 815
l-50 -49q-16 -16 -31 -16h-59q-9 0 -12.5 8t1.5 13l108 112q12 12 30 12h42q17 0 29 -12l108 -112q5 -5 1.5 -13t-12.5 -8h-59q-15 0 -31 16l-51 49q-7 7 -14 0z" />
    <glyph glyph-name="hcircumflex" unicode="&#x125;" horiz-adv-x="514" 
d="M369 20v300q0 40 -31 70t-76 30q-46 0 -76.5 -27.5t-30.5 -67.5v-305q0 -8 -6 -14t-14 -6h-50q-8 0 -14 6t-6 14v667q0 8 6 14t14 6h50q8 0 14 -6t6 -14v-181q0 -8 6 -14.5t16 -6.5q7 0 36.5 12.5t55.5 12.5q79 0 134.5 -55.5t55.5 -134.5v-300q0 -8 -6 -14t-14 -6h-50
q-8 0 -14 6t-6 14zM229 815l-50 -49q-16 -16 -31 -16h-59q-9 0 -12.5 8t1.5 13l108 112q12 12 30 12h42q17 0 29 -12l108 -112q5 -5 1.5 -13t-12.5 -8h-59q-15 0 -31 16l-51 49q-7 7 -14 0z" />
    <glyph glyph-name="Hbar" unicode="&#x126;" horiz-adv-x="560" 
d="M400 680q0 8 6 14t14 6h55q8 0 14 -6t6 -14v-660q0 -8 -6 -14t-14 -6h-55q-8 0 -14 6t-6 14v280q0 10 -10 10h-220q-10 0 -10 -10v-280q0 -8 -6 -14t-14 -6h-55q-8 0 -14 6t-6 14v660q0 8 6 14t14 6h55q8 0 14 -6t6 -14v-80q0 -10 10 -10h220q10 0 10 10v80zM170 505
q-10 0 -10 -10v-80q0 -10 10 -10h220q10 0 10 10v80q0 10 -10 10h-220z" />
    <glyph glyph-name="hbar" unicode="&#x127;" horiz-adv-x="514" 
d="M165 557q-10 0 -10 -10v-41q0 -8 6 -14.5t16 -6.5q7 0 36.5 12.5t55.5 12.5q79 0 134.5 -55.5t55.5 -134.5v-300q0 -8 -6 -14t-14 -6h-50q-8 0 -14 6t-6 14v300q0 40 -31 70t-76 30q-46 0 -76.5 -27.5t-30.5 -67.5v-305q0 -8 -6 -14t-14 -6h-50q-8 0 -14 6t-6 14v527
q0 10 -10 10h-35q-8 0 -14 6t-6 14v40q0 8 6 14t14 6h35q10 0 10 10v40q0 8 6 14t14 6h50q8 0 14 -6t6 -14v-40q0 -10 10 -10h70q8 0 14 -6t6 -14v-40q0 -8 -6 -14t-14 -6h-70z" />
    <glyph glyph-name="Itilde" unicode="&#x128;" horiz-adv-x="225" 
d="M160 680v-660q0 -8 -6 -14t-14 -6h-55q-8 0 -14 6t-6 14v660q0 8 6 14t14 6h55q8 0 14 -6t6 -14zM184 840q29 0 46 21q6 8 15.5 4t9.5 -18v-40q0 -20 -21 -35.5t-50 -15.5q-32 0 -69 12.5t-71 12.5q-28 0 -46 -21q-6 -8 -15.5 -3.5t-9.5 17.5v40q0 20 21 35.5t50 15.5
q32 0 69 -12.5t71 -12.5z" />
    <glyph glyph-name="itilde" unicode="&#x129;" horiz-adv-x="230" 
d="M185 684q29 0 46 21q6 8 15.5 4t9.5 -18v-40q0 -20 -21 -35.5t-50 -15.5q-31 0 -68 12.5t-72 12.5q-28 0 -46 -21q-6 -8 -15.5 -3.5t-9.5 17.5v40q0 20 21 35.5t50 15.5q32 0 68.5 -12.5t71.5 -12.5zM162 480v-460q0 -8 -6 -14t-14 -6h-52q-8 0 -14 6t-6 14v460q0 8 6 14
t14 6h52q8 0 14 -6t6 -14z" />
    <glyph glyph-name="Imacron" unicode="&#x12a;" horiz-adv-x="225" 
d="M160 680v-660q0 -8 -6 -14t-14 -6h-55q-8 0 -14 6t-6 14v660q0 8 6 14t14 6h55q8 0 14 -6t6 -14zM-8 839h242q8 0 14 -6t6 -14v-38q0 -8 -6 -14t-14 -6h-242q-8 0 -14 6t-6 14v38q0 8 6 14t14 6z" />
    <glyph glyph-name="imacron" unicode="&#x12b;" horiz-adv-x="230" 
d="M-6 694h242q8 0 14 -6t6 -14v-38q0 -8 -6 -14t-14 -6h-242q-8 0 -14 6t-6 14v38q0 8 6 14t14 6zM162 480v-460q0 -8 -6 -14t-14 -6h-52q-8 0 -14 6t-6 14v460q0 8 6 14t14 6h52q8 0 14 -6t6 -14z" />
    <glyph glyph-name="Ibreve" unicode="&#x12c;" horiz-adv-x="225" 
d="M160 680v-660q0 -8 -6 -14t-14 -6h-55q-8 0 -14 6t-6 14v660q0 8 6 14t14 6h55q8 0 14 -6t6 -14zM173 878q0 7 5 12t12 5h43q7 0 12 -5t5 -12q0 -54 -39 -91t-98 -37q-60 0 -99 37t-39 91q0 7 5 12t12 5h43q7 0 12 -5t5 -12q0 -23 18.5 -39.5t42.5 -16.5t42 16.5t18 39.5
z" />
    <glyph glyph-name="ibreve" unicode="&#x12d;" horiz-adv-x="230" 
d="M176 713q0 7 5 12t12 5h43q7 0 12 -5t5 -12q0 -54 -39 -91t-98 -37q-60 0 -99 37t-39 91q0 7 5 12t12 5h43q7 0 12 -5t5 -12q0 -23 18.5 -39.5t42.5 -16.5t42 16.5t18 39.5zM162 480v-460q0 -8 -6 -14t-14 -6h-52q-8 0 -14 6t-6 14v460q0 8 6 14t14 6h52q8 0 14 -6t6 -14
z" />
    <glyph glyph-name="Iogonek" unicode="&#x12e;" horiz-adv-x="225" 
d="M140 0q-36 0 -58.5 -18.5t-22.5 -50.5q0 -66 81 -66q8 0 14 -6t6 -14v-35q0 -8 -6 -14t-14 -6q-74 0 -119 35t-45 101q0 89 89 131v623q0 8 6 14t14 6h55q8 0 14 -6t6 -14v-660q0 -8 -6 -14t-14 -6z" />
    <glyph glyph-name="iogonek" unicode="&#x12f;" horiz-adv-x="230" 
d="M165 691v-69q0 -16 -16 -16h-68q-16 0 -16 16v69q0 6 4.5 11t11.5 5h68q7 0 11.5 -5t4.5 -11zM142 0h-7q-34 -2 -54 -20t-20 -49q0 -66 81 -66q8 0 14 -6t6 -14v-35q0 -8 -6 -14t-14 -6q-74 0 -119 35t-45 101q0 46 25.5 80t66.5 53v421q0 8 6 14t14 6h52q8 0 14 -6
t6 -14v-460q0 -8 -6 -14t-14 -6z" />
    <glyph glyph-name="Idotaccent" unicode="&#x130;" horiz-adv-x="225" 
d="M160 680v-660q0 -8 -6 -14t-14 -6h-55q-8 0 -14 6t-6 14v660q0 8 6 14t14 6h55q8 0 14 -6t6 -14zM163 835v-69q0 -16 -16 -16h-68q-16 0 -16 16v69q0 6 4.5 11t11.5 5h68q7 0 11.5 -5t4.5 -11z" />
    <glyph glyph-name="dotlessi" unicode="&#x131;" horiz-adv-x="230" 
d="M162 480v-460q0 -8 -6 -14t-14 -6h-52q-8 0 -14 6t-6 14v460q0 8 6 14t14 6h52q8 0 14 -6t6 -14z" />
    <glyph glyph-name="Jcircumflex" unicode="&#x134;" horiz-adv-x="479" 
d="M5 200v14q0 8 6 14t14 6h55q8 0 14 -6t6 -14v-14q0 -47 34 -80t81 -33q50 0 82.5 32.5t32.5 90.5v470q0 8 6 14t14 6h55q8 0 14 -6t6 -14v-480q0 -92 -60.5 -150t-149.5 -58q-87 0 -148.5 60.5t-61.5 147.5zM369 815l-50 -49q-16 -16 -31 -16h-59q-9 0 -12.5 8t1.5 13
l108 112q12 12 30 12h42q17 0 29 -12l108 -112q5 -5 1.5 -13t-12.5 -8h-59q-15 0 -31 16l-51 49q-7 7 -14 0z" />
    <glyph glyph-name="jcircumflex" unicode="&#x135;" horiz-adv-x="264" 
d="M102 -30v510q0 8 6 14t14 6h53q8 0 14 -6t6 -14v-510q0 -74 -52.5 -127t-130.5 -53h-52q-8 0 -14 6t-6 14v50q0 8 6 14t14 6h52q38 0 64 25t26 65zM142 650l-50 -49q-16 -16 -31 -16h-59q-9 0 -12.5 8.5t1.5 12.5l108 112q12 12 30 12h42q17 0 29 -12l108 -112
q5 -4 1.5 -12.5t-12.5 -8.5h-59q-15 0 -31 16l-51 49q-7 7 -14 0z" />
    <glyph glyph-name="Kcommaaccent" unicode="&#x136;" horiz-adv-x="499" 
d="M281 -65v-61q0 -34 -20 -62l-32 -46q-10 -15 -26 -15h-9q-14 0 -19 11t1 22l31 57q3 5 -0.5 9t-8.5 4h-7q-8 0 -14 6t-6 14v61q0 8 6 14t14 6h70q8 0 14 -6t6 -14zM380 10l-212 265q-2 2 -5 2t-3 -4v-253q0 -8 -6 -14t-14 -6h-55q-8 0 -14 6t-6 14v660q0 8 6 14t14 6h55
q8 0 14 -6t6 -14v-240q0 -4 3 -4t5 2l194 252q8 10 22 10h55q14 0 19.5 -12.5t-2.5 -23.5l-228 -291q-10 -14 -1 -24l256 -312q9 -10 3.5 -23.5t-21.5 -13.5h-63q-12 0 -22 10z" />
    <glyph glyph-name="kcommaaccent" unicode="&#x137;" horiz-adv-x="439" 
d="M404 467l-181 -193q-11 -11 0 -24l200 -217q9 -10 3.5 -21.5t-19.5 -11.5h-67q-11 0 -26 15l-151 164q-2 2 -5 2t-3 -4v-157q0 -8 -6 -14t-14 -6h-50q-8 0 -14 6t-6 14v667q0 8 6 14t14 6h50q8 0 14 -6t6 -14v-348q0 -4 3 -4.5t5 2.5l143 150q13 13 25 13h57
q15 0 19.5 -13t-3.5 -20zM205 -249q-14 0 -19 11t1 22l31 57q3 5 -0.5 9t-8.5 4h-7q-8 0 -14 6t-6 14v61q0 8 6 14t14 6h70q8 0 14 -6t6 -14v-61q0 -34 -20 -62l-32 -46q-10 -15 -26 -15h-9z" />
    <glyph glyph-name="kgreenlandic" unicode="&#x138;" horiz-adv-x="433" 
d="M409 467l-191 -193q-11 -11 0 -24l215 -217q8 -11 3 -22t-19 -11h-72q-11 0 -26 15l-161 167q-2 2 -5 2t-3 -4v-160q0 -8 -6 -14t-14 -6h-50q-8 0 -14 6t-6 14v460q0 8 6 14t14 6h50q8 0 14 -6t6 -14v-146q0 -4 3 -4.5t5 2.5l153 155q13 13 25 13h57q15 0 19.5 -12.5
t-3.5 -20.5z" />
    <glyph glyph-name="Lacute" unicode="&#x139;" horiz-adv-x="424" 
d="M160 680v-575q0 -10 10 -10h224q8 0 14 -6t6 -14v-55q0 -8 -6 -14t-14 -6h-309q-8 0 -14 6t-6 14v660q0 8 6 14t14 6h55q8 0 14 -6t6 -14zM217 895h79q9 0 12.5 -8.5t-1.5 -12.5l-108 -112q-12 -12 -30 -12h-40q-9 0 -13.5 7t-0.5 13l76 109q11 16 26 16z" />
    <glyph glyph-name="lacute" unicode="&#x13a;" horiz-adv-x="220" 
d="M155 687v-667q0 -8 -6 -14t-14 -6h-50q-8 0 -14 6t-6 14v667q0 8 6 14t14 6h50q8 0 14 -6t6 -14zM156 895h79q9 0 12.5 -8.5t-1.5 -12.5l-108 -112q-12 -12 -30 -12h-40q-9 0 -13.5 7t-0.5 13l76 109q11 16 26 16z" />
    <glyph glyph-name="Lcommaaccent" unicode="&#x13b;" horiz-adv-x="424" 
d="M281 -65v-61q0 -34 -20 -62l-32 -46q-10 -15 -26 -15h-9q-14 0 -19 11t1 22l31 57q3 5 -0.5 9t-8.5 4h-7q-8 0 -14 6t-6 14v61q0 8 6 14t14 6h70q8 0 14 -6t6 -14zM160 680v-575q0 -10 10 -10h224q8 0 14 -6t6 -14v-55q0 -8 -6 -14t-14 -6h-309q-8 0 -14 6t-6 14v660
q0 8 6 14t14 6h55q8 0 14 -6t6 -14z" />
    <glyph glyph-name="lcommaaccent" unicode="&#x13c;" horiz-adv-x="220" 
d="M155 687v-667q0 -8 -6 -14t-14 -6h-50q-8 0 -14 6t-6 14v667q0 8 6 14t14 6h50q8 0 14 -6t6 -14zM79 -249q-14 0 -19 11t1 22l31 57q3 5 -0.5 9t-8.5 4h-7q-8 0 -14 6t-6 14v61q0 8 6 14t14 6h70q8 0 14 -6t6 -14v-61q0 -34 -20 -62l-32 -46q-10 -15 -26 -15h-9z" />
    <glyph glyph-name="Lcaron" unicode="&#x13d;" horiz-adv-x="424" 
d="M350 680v-61q0 -34 -20 -62l-32 -46q-10 -15 -26 -15h-9q-14 0 -19 11t1 22l31 57q3 5 -0.5 9t-8.5 4h-7q-8 0 -14 6t-6 14v61q0 8 6 14t14 6h70q8 0 14 -6t6 -14zM160 680v-575q0 -10 10 -10h224q8 0 14 -6t6 -14v-55q0 -8 -6 -14t-14 -6h-309q-8 0 -14 6t-6 14v660
q0 8 6 14t14 6h55q8 0 14 -6t6 -14z" />
    <glyph glyph-name="lcaron" unicode="&#x13e;" horiz-adv-x="380" 
d="M155 687v-667q0 -8 -6 -14t-14 -6h-50q-8 0 -14 6t-6 14v667q0 8 6 14t14 6h50q8 0 14 -6t6 -14zM248 496q-14 0 -19 11t1 22l31 57q3 5 -0.5 9t-8.5 4h-7q-8 0 -14 6t-6 14v61q0 8 6 14t14 6h70q8 0 14 -6t6 -14v-61q0 -34 -20 -62l-32 -46q-10 -15 -26 -15h-9z" />
    <glyph glyph-name="Ldot" unicode="&#x13f;" horiz-adv-x="424" 
d="M160 680v-575q0 -10 10 -10h224q8 0 14 -6t6 -14v-55q0 -8 -6 -14t-14 -6h-309q-8 0 -14 6t-6 14v660q0 8 6 14t14 6h55q8 0 14 -6t6 -14zM348 335v-69q0 -16 -16 -16h-68q-16 0 -16 16v69q0 6 4.5 11t11.5 5h68q7 0 11.5 -5t4.5 -11z" />
    <glyph glyph-name="ldot" unicode="&#x140;" horiz-adv-x="354" 
d="M155 687v-667q0 -8 -6 -14t-14 -6h-50q-8 0 -14 6t-6 14v667q0 8 6 14t14 6h50q8 0 14 -6t6 -14zM308 335v-69q0 -16 -16 -16h-68q-16 0 -16 16v69q0 6 4.5 11t11.5 5h68q7 0 11.5 -5t4.5 -11z" />
    <glyph glyph-name="Lslash" unicode="&#x141;" horiz-adv-x="424" 
d="M169 404l116 82q7 5 16 0.5t9 -14.5v-52q0 -14 -20 -30l-124 -88q-6 -4 -6 -10v-187q0 -10 10 -10h224q8 0 14 -6t6 -14v-55q0 -8 -6 -14t-14 -6h-309q-8 0 -14 6t-6 14v200q0 4 -3.5 5.5t-5.5 -0.5l-33 -23q-7 -6 -17.5 -1.5t-10.5 15.5v48q0 18 15 28l47 33q8 6 8 14
v341q0 8 6 14t14 6h55q8 0 14 -6t6 -14v-272q0 -3 3 -4.5t6 0.5z" />
    <glyph glyph-name="lslash" unicode="&#x142;" horiz-adv-x="220" 
d="M155 687v-279q0 -3 3 -4.5t6 0.5l51 36q7 5 16 0.5t9 -14.5v-52q0 -14 -20 -30l-59 -42q-6 -4 -6 -10v-272q0 -8 -6 -14t-14 -6h-50q-8 0 -14 6t-6 14v200q0 4 -3.5 5.5t-5.5 -0.5l-33 -23q-7 -6 -17.5 -1.5t-10.5 15.5v48q0 16 15 28l47 33q8 6 8 14v348q0 8 6 14t14 6
h50q8 0 14 -6t6 -14z" />
    <glyph glyph-name="Nacute" unicode="&#x143;" 
d="M465 0h-83q-15 0 -21 17l-197 495q-2 3 -5 2.5t-3 -4.5v-490q0 -8 -6 -14t-14 -6h-51q-8 0 -14 6t-6 14v660q0 8 6 14t14 6h83q15 0 21 -17l197 -493q2 -3 5 -2.5t3 4.5v488q0 8 6 14t14 6h51q8 0 14 -6t6 -14v-660q0 -8 -6 -14t-14 -6zM320 895h79q9 0 12.5 -8.5
t-1.5 -12.5l-108 -112q-12 -12 -30 -12h-40q-9 0 -13.5 7t-0.5 13l76 109q11 16 26 16z" />
    <glyph glyph-name="nacute" unicode="&#x144;" horiz-adv-x="515" 
d="M460 320v-300q0 -8 -6 -14t-14 -6h-50q-8 0 -14 6t-6 14v300q0 47 -31 73.5t-79 26.5q-47 0 -78.5 -26t-31.5 -69v-305q0 -8 -6 -14t-14 -6h-50q-8 0 -14 6t-6 14v460q0 8 6 14t14 6h44q7 0 14 -7q14 -16 25 -16q9 0 38 16.5t69 16.5q85 0 137.5 -51.5t52.5 -138.5z
M293 730h79q9 0 12.5 -8t-1.5 -13l-108 -112q-12 -12 -30 -12h-40q-9 0 -13.5 7t-0.5 13l76 109q11 16 26 16z" />
    <glyph glyph-name="Ncommaaccent" unicode="&#x145;" 
d="M465 0h-83q-15 0 -21 17l-197 495q-2 3 -5 2.5t-3 -4.5v-490q0 -8 -6 -14t-14 -6h-51q-8 0 -14 6t-6 14v660q0 8 6 14t14 6h83q15 0 21 -17l197 -493q2 -3 5 -2.5t3 4.5v488q0 8 6 14t14 6h51q8 0 14 -6t6 -14v-660q0 -8 -6 -14t-14 -6zM244 -249q-14 0 -19 11t1 22
l31 57q3 5 -0.5 9t-8.5 4h-7q-8 0 -14 6t-6 14v61q0 8 6 14t14 6h70q8 0 14 -6t6 -14v-61q0 -34 -20 -62l-32 -46q-10 -15 -26 -15h-9z" />
    <glyph glyph-name="ncommaaccent" unicode="&#x146;" horiz-adv-x="515" 
d="M460 320v-300q0 -8 -6 -14t-14 -6h-50q-8 0 -14 6t-6 14v300q0 47 -31 73.5t-79 26.5q-47 0 -78.5 -26t-31.5 -69v-305q0 -8 -6 -14t-14 -6h-50q-8 0 -14 6t-6 14v460q0 8 6 14t14 6h44q7 0 14 -7q14 -16 25 -16q9 0 38 16.5t69 16.5q85 0 137.5 -51.5t52.5 -138.5z
M227 -249q-14 0 -19 11t1 22l31 57q3 5 -0.5 9t-8.5 4h-7q-8 0 -14 6t-6 14v61q0 8 6 14t14 6h70q8 0 14 -6t6 -14v-61q0 -34 -20 -62l-32 -46q-10 -15 -26 -15h-9z" />
    <glyph glyph-name="Ncaron" unicode="&#x147;" 
d="M465 0h-83q-15 0 -21 17l-197 495q-2 3 -5 2.5t-3 -4.5v-490q0 -8 -6 -14t-14 -6h-51q-8 0 -14 6t-6 14v660q0 8 6 14t14 6h83q15 0 21 -17l197 -493q2 -3 5 -2.5t3 4.5v488q0 8 6 14t14 6h51q8 0 14 -6t6 -14v-660q0 -8 -6 -14t-14 -6zM217 880l50 -49q7 -7 14 0l51 49
q16 16 31 16h59q9 0 12.5 -8t-1.5 -13l-108 -112q-12 -12 -29 -12h-42q-18 0 -30 12l-108 112q-5 5 -1.5 13t12.5 8h59q15 0 31 -16z" />
    <glyph glyph-name="ncaron" unicode="&#x148;" horiz-adv-x="515" 
d="M460 320v-300q0 -8 -6 -14t-14 -6h-50q-8 0 -14 6t-6 14v300q0 47 -31 73.5t-79 26.5q-47 0 -78.5 -26t-31.5 -69v-305q0 -8 -6 -14t-14 -6h-50q-8 0 -14 6t-6 14v460q0 8 6 14t14 6h44q7 0 14 -7q14 -16 25 -16q9 0 38 16.5t69 16.5q85 0 137.5 -51.5t52.5 -138.5z
M200 714l50 -49q7 -7 14 0l51 49q16 16 31 16h59q9 0 12.5 -8t-1.5 -13l-108 -112q-12 -12 -29 -12h-42q-18 0 -30 12l-108 112q-5 5 -1.5 13t12.5 8h59q15 0 31 -16z" />
    <glyph glyph-name="Eng" unicode="&#x14a;" 
d="M395 0l-231 512q-2 3 -5 2.5t-3 -4.5v-490q0 -8 -6 -14t-14 -6h-51q-8 0 -14 6t-6 14v660q0 8 6 14t14 6h75q15 0 21 -17l205 -447q2 -3 5 -2.5t3 4.5v442q0 8 6 14t14 6h51q8 0 14 -6t6 -14v-710q0 -74 -48 -127t-120 -53q-8 0 -14 6t-6 14v50q0 8 6 14t14 6
q32 0 55 25.5t23 64.5v30z" />
    <glyph glyph-name="eng" unicode="&#x14b;" horiz-adv-x="515" 
d="M292 -120q32 0 55 25.5t23 64.5v350q0 47 -31 73.5t-79 26.5q-47 0 -78.5 -26t-31.5 -69v-305q0 -8 -6 -14t-14 -6h-50q-8 0 -14 6t-6 14v460q0 8 6 14t14 6h44q7 0 14 -7q14 -16 25 -16q9 0 38 16.5t69 16.5q85 0 137.5 -51.5t52.5 -138.5v-350q0 -74 -48 -127t-120 -53
q-8 0 -14 6t-6 14v50q0 8 6 14t14 6z" />
    <glyph glyph-name="Omacron" unicode="&#x14c;" horiz-adv-x="556" 
d="M278 87q51 0 87 30t43 83q9 63 8.5 150t-8.5 150q-6 48 -40 80.5t-90 32.5q-51 0 -87 -30t-43 -83q-8 -62 -8 -150.5t8 -149.5q6 -47 40.5 -80t89.5 -33zM278 708q91 0 152 -56t73 -152q7 -62 7 -150t-7 -150q-10 -87 -70 -147.5t-155 -60.5q-91 0 -152 56t-73 152
q-7 61 -7 150.5t7 149.5q10 87 70.5 147.5t154.5 60.5zM157 838h242q8 0 14 -6t6 -14v-38q0 -8 -6 -14t-14 -6h-242q-8 0 -14 6t-6 14v38q0 8 6 14t14 6z" />
    <glyph glyph-name="omacron" unicode="&#x14d;" horiz-adv-x="500" 
d="M135 320q-5 -70 0 -140q3 -42 34 -71t81 -29t81 29t34 71q5 70 0 140q-3 42 -34 71t-81 29t-81 -29t-34 -71zM45 180q-5 70 0 140q6 81 62 135.5t143 54.5t143 -54.5t62 -135.5q5 -70 0 -140q-6 -81 -62 -135.5t-143 -54.5t-143 54.5t-62 135.5zM129 694h242q8 0 14 -6
t6 -14v-38q0 -8 -6 -14t-14 -6h-242q-8 0 -14 6t-6 14v38q0 8 6 14t14 6z" />
    <glyph glyph-name="Obreve" unicode="&#x14e;" horiz-adv-x="556" 
d="M278 87q51 0 87 30t43 83q9 63 8.5 150t-8.5 150q-6 48 -40 80.5t-90 32.5q-51 0 -87 -30t-43 -83q-8 -62 -8 -150.5t8 -149.5q6 -47 40.5 -80t89.5 -33zM278 708q91 0 152 -56t73 -152q7 -62 7 -150t-7 -150q-10 -87 -70 -147.5t-155 -60.5q-91 0 -152 56t-73 152
q-7 61 -7 150.5t7 149.5q10 87 70.5 147.5t154.5 60.5zM338 878q0 7 5 12t12 5h43q7 0 12 -5t5 -12q0 -54 -39 -91t-98 -37q-60 0 -99 37t-39 91q0 7 5 12t12 5h43q7 0 12 -5t5 -12q0 -23 18.5 -39.5t42.5 -16.5t42 16.5t18 39.5z" />
    <glyph glyph-name="obreve" unicode="&#x14f;" horiz-adv-x="500" 
d="M135 320q-5 -70 0 -140q3 -42 34 -71t81 -29t81 29t34 71q5 70 0 140q-3 42 -34 71t-81 29t-81 -29t-34 -71zM45 180q-5 70 0 140q6 81 62 135.5t143 54.5t143 -54.5t62 -135.5q5 -70 0 -140q-6 -81 -62 -135.5t-143 -54.5t-143 54.5t-62 135.5zM310 713q0 7 5 12t12 5
h43q7 0 12 -5t5 -12q0 -54 -39 -91t-98 -37q-60 0 -99 37t-39 91q0 7 5 12t12 5h43q7 0 12 -5t5 -12q0 -23 18.5 -39.5t42.5 -16.5t42 16.5t18 39.5z" />
    <glyph glyph-name="Ohungarumlaut" unicode="&#x150;" horiz-adv-x="556" 
d="M278 87q51 0 87 30t43 83q9 63 8.5 150t-8.5 150q-6 48 -40 80.5t-90 32.5q-51 0 -87 -30t-43 -83q-8 -62 -8 -150.5t8 -149.5q6 -47 40.5 -80t89.5 -33zM278 708q91 0 152 -56t73 -152q7 -62 7 -150t-7 -150q-10 -87 -70 -147.5t-155 -60.5q-91 0 -152 56t-73 152
q-7 61 -7 150.5t7 149.5q10 87 70.5 147.5t154.5 60.5zM238 895h79q9 0 12.5 -8.5t-1.5 -12.5l-108 -112q-12 -12 -30 -12h-40q-9 0 -13.5 7t-0.5 13l76 109q11 16 26 16zM408 895h79q9 0 12.5 -8.5t-1.5 -12.5l-108 -112q-12 -12 -30 -12h-40q-9 0 -13.5 7t-0.5 13l76 109
q11 16 26 16z" />
    <glyph glyph-name="ohungarumlaut" unicode="&#x151;" horiz-adv-x="500" 
d="M135 320q-5 -70 0 -140q3 -42 34 -71t81 -29t81 29t34 71q5 70 0 140q-3 42 -34 71t-81 29t-81 -29t-34 -71zM45 180q-5 70 0 140q6 81 62 135.5t143 54.5t143 -54.5t62 -135.5q5 -70 0 -140q-6 -81 -62 -135.5t-143 -54.5t-143 54.5t-62 135.5zM210 730h79q9 0 12.5 -8
t-1.5 -13l-108 -112q-12 -12 -30 -12h-40q-9 0 -13.5 7t-0.5 13l76 109q11 16 26 16zM380 730h79q9 0 12.5 -8t-1.5 -13l-108 -112q-12 -12 -30 -12h-40q-9 0 -13.5 7t-0.5 13l76 109q11 16 26 16z" />
    <glyph glyph-name="OE" unicode="&#x152;" horiz-adv-x="816" 
d="M278 613q-51 0 -87 -30t-43 -83q-8 -62 -8 -150.5t8 -149.5q6 -47 40.5 -80t89.5 -33q51 0 87 30t43 83q9 63 8.5 150t-8.5 150q-6 48 -40 80t-90 33zM380 15q-44 -23 -102 -23q-91 0 -152 56t-73 152q-7 61 -7 150.5t7 149.5q10 87 70.5 147.5t154.5 60.5q59 0 107 -25
q26 -13 26 -3q0 8 6 14t14 6h323q8 0 14 -6t6 -14v-55q0 -8 -6 -14t-14 -6h-238q-10 0 -10 -10v-180q0 -10 10 -10h227q8 0 14 -6t6 -14v-55q0 -8 -6 -14t-14 -6h-227q-10 0 -10 -10v-195q0 -10 10 -10h240q8 0 14 -6t6 -14v-55q0 -8 -6 -14t-14 -6h-325q-8 0 -14 6t-6 14
q0 4 -4 4.5t-10.5 -2t-9.5 -4z" />
    <glyph glyph-name="oe" unicode="&#x153;" horiz-adv-x="815" 
d="M135 320q-5 -70 0 -140q3 -42 34 -71t81 -29t81 29t34 71q5 70 0 140q-3 42 -34 71t-81 29t-81 -29t-34 -71zM574 420q-51 0 -83 -31t-32 -78q0 -10 10 -10h208q10 0 10 10q0 50 -32.5 79.5t-80.5 29.5zM430 44q-20 17 -38 0q-20 -17 -35.5 -27t-44 -18.5t-62.5 -8.5
q-87 0 -143 54.5t-62 135.5q-5 70 0 140q6 81 62 135.5t143 54.5q34 0 62.5 -8.5t44 -18.5t35.5 -27q18 -17 38 0q59 54 143 54q88 0 144 -55.5t56 -144.5v-69q0 -8 -6 -14t-14 -6h-286q-10 0 -10 -10q0 -66 31 -98.5t85 -32.5q38 0 66 17.5t37 45.5q5 17 23 17h51
q20 0 17 -20q-9 -66 -63 -108t-131 -42q-84 0 -143 54z" />
    <glyph glyph-name="Racute" unicode="&#x154;" horiz-adv-x="520" 
d="M231 280h-61q-10 0 -10 -10v-250q0 -8 -6 -14t-14 -6h-55q-8 0 -14 6t-6 14v660q0 8 6 14t14 6h180q87 0 148.5 -61.5t61.5 -148.5q0 -56 -28.5 -103.5t-75.5 -75.5q-28 -16 -17 -38l118 -243q6 -11 0.5 -20.5t-19.5 -9.5h-56q-19 0 -29 20l-118 248q-6 12 -19 12z
M265 605h-95q-10 0 -10 -10v-210q0 -10 10 -10h95q47 0 81 34t34 81t-34 81t-81 34zM280 895h79q9 0 12.5 -8.5t-1.5 -12.5l-108 -112q-12 -12 -30 -12h-40q-9 0 -13.5 7t-0.5 13l76 109q11 16 26 16z" />
    <glyph glyph-name="racute" unicode="&#x155;" horiz-adv-x="345" 
d="M320 411h-20q-65 0 -107.5 -37t-42.5 -114v-240q0 -8 -6 -14t-14 -6h-50q-8 0 -14 6t-6 14v460q0 8 6 14t14 6h34q16 0 20 -20q1 -3 1.5 -8.5t1.5 -9.5t3 -8.5t5 -6.5t7 -2q8 0 23 13.5t46.5 27.5t78.5 14h20q8 0 14 -6t6 -14v-49q0 -8 -6 -14t-14 -6zM228 730h79
q9 0 12.5 -8t-1.5 -13l-108 -112q-12 -12 -30 -12h-40q-9 0 -13.5 7t-0.5 13l76 109q11 16 26 16z" />
    <glyph glyph-name="Rcommaaccent" unicode="&#x156;" horiz-adv-x="520" 
d="M231 280h-61q-10 0 -10 -10v-250q0 -8 -6 -14t-14 -6h-55q-8 0 -14 6t-6 14v660q0 8 6 14t14 6h180q87 0 148.5 -61.5t61.5 -148.5q0 -56 -28.5 -103.5t-75.5 -75.5q-28 -16 -17 -38l118 -243q6 -11 0.5 -20.5t-19.5 -9.5h-56q-19 0 -29 20l-118 248q-6 12 -19 12z
M265 605h-95q-10 0 -10 -10v-210q0 -10 10 -10h95q47 0 81 34t34 81t-34 81t-81 34zM224 -249q-14 0 -19 11t1 22l31 57q3 5 -0.5 9t-8.5 4h-7q-8 0 -14 6t-6 14v61q0 8 6 14t14 6h70q8 0 14 -6t6 -14v-61q0 -34 -20 -62l-32 -46q-10 -15 -26 -15h-9z" />
    <glyph glyph-name="rcommaaccent" unicode="&#x157;" horiz-adv-x="345" 
d="M320 411h-20q-65 0 -107.5 -37t-42.5 -114v-240q0 -8 -6 -14t-14 -6h-50q-8 0 -14 6t-6 14v460q0 8 6 14t14 6h34q16 0 20 -20q1 -3 1.5 -8.5t1.5 -9.5t3 -8.5t5 -6.5t7 -2q8 0 23 13.5t46.5 27.5t78.5 14h20q8 0 14 -6t6 -14v-49q0 -8 -6 -14t-14 -6zM89 -249
q-14 0 -19 11t1 22l31 57q3 5 -0.5 9t-8.5 4h-7q-8 0 -14 6t-6 14v61q0 8 6 14t14 6h70q8 0 14 -6t6 -14v-61q0 -34 -20 -62l-32 -46q-10 -15 -26 -15h-9z" />
    <glyph glyph-name="Rcaron" unicode="&#x158;" horiz-adv-x="520" 
d="M231 280h-61q-10 0 -10 -10v-250q0 -8 -6 -14t-14 -6h-55q-8 0 -14 6t-6 14v660q0 8 6 14t14 6h180q87 0 148.5 -61.5t61.5 -148.5q0 -56 -28.5 -103.5t-75.5 -75.5q-28 -16 -17 -38l118 -243q6 -11 0.5 -20.5t-19.5 -9.5h-56q-19 0 -29 20l-118 248q-6 12 -19 12z
M265 605h-95q-10 0 -10 -10v-210q0 -10 10 -10h95q47 0 81 34t34 81t-34 81t-81 34zM197 879l50 -49q7 -7 14 0l51 49q16 16 31 16h59q9 0 12.5 -8.5t-1.5 -12.5l-108 -112q-12 -12 -29 -12h-42q-18 0 -30 12l-108 112q-5 4 -1.5 12.5t12.5 8.5h59q15 0 31 -16z" />
    <glyph glyph-name="rcaron" unicode="&#x159;" horiz-adv-x="345" 
d="M320 411h-20q-65 0 -107.5 -37t-42.5 -114v-240q0 -8 -6 -14t-14 -6h-50q-8 0 -14 6t-6 14v460q0 8 6 14t14 6h34q16 0 20 -20q1 -3 1.5 -8.5t1.5 -9.5t3 -8.5t5 -6.5t7 -2q8 0 23 13.5t46.5 27.5t78.5 14h20q8 0 14 -6t6 -14v-49q0 -8 -6 -14t-14 -6zM135 714l50 -49
q7 -7 14 0l51 49q16 16 31 16h59q9 0 12.5 -8t-1.5 -13l-108 -112q-12 -12 -29 -12h-42q-18 0 -30 12l-108 112q-5 5 -1.5 13t12.5 8h59q15 0 31 -16z" />
    <glyph glyph-name="Sacute" unicode="&#x15a;" horiz-adv-x="510" 
d="M384 200q0 27 -9 47t-19.5 31.5t-38 22t-43.5 15t-58 13.5q-77 17 -122 65t-45 126q0 86 62 137t144 51q88 0 146.5 -55t58.5 -133v-13q0 -8 -6 -14t-14 -6h-55q-8 0 -14 6t-6 14v13q0 46 -33 69.5t-77 23.5q-49 0 -79.5 -25.5t-30.5 -67.5q0 -18 4 -33t15 -25.5
t18.5 -17.5t27 -13.5t26.5 -9t31 -8t28 -6.5q185 -45 185 -207q0 -93 -67 -150.5t-158 -57.5q-96 0 -160.5 61t-64.5 147v16q0 8 6 14t14 6h56q8 0 14 -6t6 -14v-16q0 -49 36.5 -81t92.5 -32t92.5 32.5t36.5 80.5zM310 895h79q9 0 12.5 -8.5t-1.5 -12.5l-108 -112
q-12 -12 -30 -12h-40q-9 0 -13.5 7t-0.5 13l76 109q11 16 26 16z" />
    <glyph glyph-name="sacute" unicode="&#x15b;" horiz-adv-x="459" 
d="M265 730h79q9 0 12.5 -8t-1.5 -13l-108 -112q-12 -12 -30 -12h-40q-9 0 -13.5 7t-0.5 13l76 109q11 16 26 16zM413 360q0 -8 -6 -14t-14 -6h-50q-8 0 -14 6t-6 14q0 28 -23 46.5t-70 18.5q-43 0 -65.5 -18t-22.5 -42q0 -27 22.5 -40t65.5 -21q23 -4 29.5 -5t28.5 -6
t30.5 -8.5t27.5 -10.5t27 -14.5t21 -18.5t18.5 -24t10 -30t4.5 -37q0 -76 -57 -118t-140 -42q-82 0 -140 41t-58 119v13q0 8 6 14t14 6h50q8 0 14 -6t6 -14v-13q0 -40 32.5 -57t75.5 -17q107 0 107 74q0 15 -7.5 25.5t-25 17.5t-32.5 11t-42 10q-33 7 -51.5 11.5t-47 16.5
t-43.5 26t-27 39.5t-12 57.5q0 65 54.5 105t126.5 40q74 0 128.5 -41t54.5 -109z" />
    <glyph glyph-name="Scircumflex" unicode="&#x15c;" horiz-adv-x="510" 
d="M384 200q0 27 -9 47t-19.5 31.5t-38 22t-43.5 15t-58 13.5q-77 17 -122 65t-45 126q0 86 62 137t144 51q88 0 146.5 -55t58.5 -133v-13q0 -8 -6 -14t-14 -6h-55q-8 0 -14 6t-6 14v13q0 46 -33 69.5t-77 23.5q-49 0 -79.5 -25.5t-30.5 -67.5q0 -18 4 -33t15 -25.5
t18.5 -17.5t27 -13.5t26.5 -9t31 -8t28 -6.5q185 -45 185 -207q0 -93 -67 -150.5t-158 -57.5q-96 0 -160.5 61t-64.5 147v16q0 8 6 14t14 6h56q8 0 14 -6t6 -14v-16q0 -49 36.5 -81t92.5 -32t92.5 32.5t36.5 80.5zM248 815l-50 -49q-16 -16 -31 -16h-59q-9 0 -12.5 8t1.5 13
l108 112q12 12 30 12h42q17 0 29 -12l108 -112q5 -5 1.5 -13t-12.5 -8h-59q-15 0 -31 16l-51 49q-7 7 -14 0z" />
    <glyph glyph-name="scircumflex" unicode="&#x15d;" horiz-adv-x="459" 
d="M413 360q0 -8 -6 -14t-14 -6h-50q-8 0 -14 6t-6 14q0 28 -23 46.5t-70 18.5q-43 0 -65.5 -18t-22.5 -42q0 -27 22.5 -40t65.5 -21q23 -4 29.5 -5t28.5 -6t30.5 -8.5t27.5 -10.5t27 -14.5t21 -18.5t18.5 -24t10 -30t4.5 -37q0 -76 -57 -118t-140 -42q-82 0 -140 41
t-58 119v13q0 8 6 14t14 6h50q8 0 14 -6t6 -14v-13q0 -40 32.5 -57t75.5 -17q107 0 107 74q0 15 -7.5 25.5t-25 17.5t-32.5 11t-42 10q-33 7 -51.5 11.5t-47 16.5t-43.5 26t-27 39.5t-12 57.5q0 65 54.5 105t126.5 40q74 0 128.5 -41t54.5 -109zM222 650l-50 -49
q-16 -16 -31 -16h-59q-9 0 -12.5 8.5t1.5 12.5l108 112q12 12 30 12h42q17 0 29 -12l108 -112q5 -4 1.5 -12.5t-12.5 -8.5h-59q-15 0 -31 16l-51 49q-7 7 -14 0z" />
    <glyph glyph-name="Scedilla" unicode="&#x15e;" horiz-adv-x="510" 
d="M384 200q0 27 -9 47t-19.5 31.5t-38 22t-43.5 15t-58 13.5q-77 17 -122 65t-45 126q0 86 62 137t144 51q88 0 146.5 -55t58.5 -133v-13q0 -8 -6 -14t-14 -6h-55q-8 0 -14 6t-6 14v13q0 46 -33 69.5t-77 23.5q-49 0 -79.5 -25.5t-30.5 -67.5q0 -18 4 -33t15 -25.5
t18.5 -17.5t27 -13.5t26.5 -9t31 -8t28 -6.5q185 -45 185 -207q0 -93 -67 -150.5t-158 -57.5q-96 0 -160.5 61t-64.5 147v16q0 8 6 14t14 6h56q8 0 14 -6t6 -14v-16q0 -49 36.5 -81t92.5 -32t92.5 32.5t36.5 80.5zM229 -45h53q20 0 16 -18l-28 -121q-4 -16 -19 -16h-63
q-9 0 -13.5 5.5t-2.5 12.5l38 121q4 16 19 16z" />
    <glyph glyph-name="scedilla" unicode="&#x15f;" horiz-adv-x="459" 
d="M413 360q0 -8 -6 -14t-14 -6h-50q-8 0 -14 6t-6 14q0 28 -23 46.5t-70 18.5q-43 0 -65.5 -18t-22.5 -42q0 -27 22.5 -40t65.5 -21q23 -4 29.5 -5t28.5 -6t30.5 -8.5t27.5 -10.5t27 -14.5t21 -18.5t18.5 -24t10 -30t4.5 -37q0 -76 -57 -118t-140 -42q-82 0 -140 41
t-58 119v13q0 8 6 14t14 6h50q8 0 14 -6t6 -14v-13q0 -40 32.5 -57t75.5 -17q107 0 107 74q0 15 -7.5 25.5t-25 17.5t-32.5 11t-42 10q-33 7 -51.5 11.5t-47 16.5t-43.5 26t-27 39.5t-12 57.5q0 65 54.5 105t126.5 40q74 0 128.5 -41t54.5 -109zM204 -45h53q20 0 16 -18
l-28 -121q-4 -16 -19 -16h-63q-9 0 -13.5 5.5t-2.5 12.5l38 121q4 16 19 16z" />
    <glyph glyph-name="Scaron" unicode="&#x160;" horiz-adv-x="510" 
d="M384 200q0 27 -9 47t-19.5 31.5t-38 22t-43.5 15t-58 13.5q-77 17 -122 65t-45 126q0 86 62 137t144 51q88 0 146.5 -55t58.5 -133v-13q0 -8 -6 -14t-14 -6h-55q-8 0 -14 6t-6 14v13q0 46 -33 69.5t-77 23.5q-49 0 -79.5 -25.5t-30.5 -67.5q0 -18 4 -33t15 -25.5
t18.5 -17.5t27 -13.5t26.5 -9t31 -8t28 -6.5q185 -45 185 -207q0 -93 -67 -150.5t-158 -57.5q-96 0 -160.5 61t-64.5 147v16q0 8 6 14t14 6h56q8 0 14 -6t6 -14v-16q0 -49 36.5 -81t92.5 -32t92.5 32.5t36.5 80.5zM197 879l50 -49q7 -7 14 0l51 49q16 16 31 16h59
q9 0 12.5 -8.5t-1.5 -12.5l-108 -112q-12 -12 -29 -12h-42q-18 0 -30 12l-108 112q-5 4 -1.5 12.5t12.5 8.5h59q15 0 31 -16z" />
    <glyph glyph-name="scaron" unicode="&#x161;" horiz-adv-x="459" 
d="M413 360q0 -8 -6 -14t-14 -6h-50q-8 0 -14 6t-6 14q0 28 -23 46.5t-70 18.5q-43 0 -65.5 -18t-22.5 -42q0 -27 22.5 -40t65.5 -21q23 -4 29.5 -5t28.5 -6t30.5 -8.5t27.5 -10.5t27 -14.5t21 -18.5t18.5 -24t10 -30t4.5 -37q0 -76 -57 -118t-140 -42q-82 0 -140 41
t-58 119v13q0 8 6 14t14 6h50q8 0 14 -6t6 -14v-13q0 -40 32.5 -57t75.5 -17q107 0 107 74q0 15 -7.5 25.5t-25 17.5t-32.5 11t-42 10q-33 7 -51.5 11.5t-47 16.5t-43.5 26t-27 39.5t-12 57.5q0 65 54.5 105t126.5 40q74 0 128.5 -41t54.5 -109zM172 714l50 -49q7 -7 14 0
l51 49q16 16 31 16h59q9 0 12.5 -8t-1.5 -13l-108 -112q-12 -12 -29 -12h-42q-18 0 -30 12l-108 112q-5 5 -1.5 13t12.5 8h59q15 0 31 -16z" />
    <glyph glyph-name="Tcommaaccent" unicode="&#x162;" horiz-adv-x="424" 
d="M270 605q-10 0 -10 -10v-575q0 -8 -6 -14t-14 -6h-55q-8 0 -14 6t-6 14v575q0 10 -10 10h-133q-8 0 -14 6t-6 14v55q0 8 6 14t14 6h380q8 0 14 -6t6 -14v-55q0 -8 -6 -14t-14 -6h-132zM181 -249q-14 0 -19 11t1 22l31 57q3 5 -0.5 9t-8.5 4h-7q-8 0 -14 6t-6 14v61
q0 8 6 14t14 6h70q8 0 14 -6t6 -14v-61q0 -34 -20 -62l-32 -46q-10 -15 -26 -15h-9z" />
    <glyph glyph-name="tcommaaccent" unicode="&#x163;" horiz-adv-x="360" 
d="M205 495h115q8 0 14 -6t6 -14v-50q0 -8 -6 -14t-14 -6h-115q-10 0 -10 -10v-235q0 -73 80 -73h55q8 0 14 -6t6 -14v-47q0 -8 -6 -14t-14 -6h-55q-170 0 -170 160v235q0 10 -10 10h-70q-8 0 -14 6t-6 14v50q0 8 6 14t14 6h70q10 0 10 10v155q0 8 6 14t14 6h50q8 0 14 -6
t6 -14v-155q0 -10 10 -10zM187 -249q-14 0 -19 11t1 22l31 57q3 5 -0.5 9t-8.5 4h-7q-8 0 -14 6t-6 14v61q0 8 6 14t14 6h70q8 0 14 -6t6 -14v-61q0 -34 -20 -62l-32 -46q-10 -15 -26 -15h-9z" />
    <glyph glyph-name="Tcaron" unicode="&#x164;" horiz-adv-x="424" 
d="M270 605q-10 0 -10 -10v-575q0 -8 -6 -14t-14 -6h-55q-8 0 -14 6t-6 14v575q0 10 -10 10h-133q-8 0 -14 6t-6 14v55q0 8 6 14t14 6h380q8 0 14 -6t6 -14v-55q0 -8 -6 -14t-14 -6h-132zM155 879l50 -49q7 -7 14 0l51 49q16 16 31 16h59q9 0 12.5 -8.5t-1.5 -12.5
l-108 -112q-12 -12 -29 -12h-42q-18 0 -30 12l-108 112q-5 4 -1.5 12.5t12.5 8.5h59q15 0 31 -16z" />
    <glyph glyph-name="tcaron" unicode="&#x165;" horiz-adv-x="491" 
d="M205 495h115q8 0 14 -6t6 -14v-50q0 -8 -6 -14t-14 -6h-115q-10 0 -10 -10v-235q0 -73 80 -73h55q8 0 14 -6t6 -14v-47q0 -8 -6 -14t-14 -6h-55q-170 0 -170 160v235q0 10 -10 10h-70q-8 0 -14 6t-6 14v50q0 8 6 14t14 6h70q10 0 10 10v155q0 8 6 14t14 6h50q8 0 14 -6
t6 -14v-155q0 -10 10 -10zM386 497q-14 0 -19 11t1 22l31 57q3 5 -0.5 9t-8.5 4h-7q-8 0 -14 6t-6 14v61q0 8 6 14t14 6h70q8 0 14 -6t6 -14v-61q0 -34 -20 -62l-32 -46q-10 -15 -26 -15h-9z" />
    <glyph glyph-name="Tbar" unicode="&#x166;" horiz-adv-x="424" 
d="M165 20v380q0 10 -10 10h-113q-8 0 -14 6t-6 14v50q0 8 6 14t14 6h113q10 0 10 10v85q0 10 -10 10h-133q-8 0 -14 6t-6 14v55q0 8 6 14t14 6h380q8 0 14 -6t6 -14v-55q0 -8 -6 -14t-14 -6h-132q-10 0 -10 -10v-85q0 -10 10 -10h112q8 0 14 -6t6 -14v-50q0 -8 -6 -14
t-14 -6h-112q-10 0 -10 -10v-380q0 -8 -6 -14t-14 -6h-55q-8 0 -14 6t-6 14z" />
    <glyph glyph-name="tbar" unicode="&#x167;" horiz-adv-x="365" 
d="M105 160v61q0 10 -10 10h-65q-8 0 -14 6t-6 14v45q0 8 6 14t14 6h65q10 0 10 10v69q0 10 -10 10h-70q-8 0 -14 6t-6 14v50q0 8 6 14t14 6h70q10 0 10 10v155q0 8 6 14t14 6h50q8 0 14 -6t6 -14v-155q0 -10 10 -10h115q8 0 14 -6t6 -14v-50q0 -8 -6 -14t-14 -6h-115
q-10 0 -10 -10v-69q0 -10 10 -10h110q8 0 14 -6t6 -14v-45q0 -8 -6 -14t-14 -6h-110q-10 0 -10 -10v-61q0 -73 80 -73h55q8 0 14 -6t6 -14v-47q0 -8 -6 -14t-14 -6h-55q-170 0 -170 160z" />
    <glyph glyph-name="Utilde" unicode="&#x168;" horiz-adv-x="558" 
d="M504 680v-480q0 -89 -66.5 -148.5t-158.5 -59.5q-97 0 -161 59t-64 149v480q0 8 6 14t14 6h55q8 0 14 -6t6 -14v-480q0 -56 38 -84.5t92 -28.5q57 0 93.5 32.5t36.5 80.5v480q0 8 6 14t14 6h55q8 0 14 -6t6 -14zM351 840q29 0 46 21q6 8 15.5 4t9.5 -18v-40
q0 -20 -21 -35.5t-50 -15.5q-31 0 -68 12.5t-72 12.5q-28 0 -46 -21q-6 -8 -15.5 -3.5t-9.5 17.5v40q0 20 21 35.5t50 15.5q31 0 68 -12.5t72 -12.5z" />
    <glyph glyph-name="utilde" unicode="&#x169;" horiz-adv-x="515" 
d="M55 180v300q0 8 6 14t14 6h50q8 0 14 -6t6 -14v-300q0 -44 29.5 -72t80.5 -28q47 0 78.5 26t31.5 69v305q0 8 6 14t14 6h50q8 0 14 -6t6 -14v-460q0 -8 -6 -14t-14 -6h-44q-7 0 -14 7q-14 16 -25 16q-9 0 -36.5 -16.5t-70.5 -16.5q-84 0 -137 53.5t-53 136.5zM327 684
q29 0 46 21q6 8 15.5 4t9.5 -18v-40q0 -20 -21 -35.5t-50 -15.5q-31 0 -68 12.5t-72 12.5q-28 0 -46 -21q-6 -8 -15.5 -3.5t-9.5 17.5v40q0 20 21 35.5t50 15.5q31 0 68 -12.5t72 -12.5z" />
    <glyph glyph-name="Umacron" unicode="&#x16a;" horiz-adv-x="558" 
d="M504 680v-480q0 -89 -66.5 -148.5t-158.5 -59.5q-97 0 -161 59t-64 149v480q0 8 6 14t14 6h55q8 0 14 -6t6 -14v-480q0 -56 38 -84.5t92 -28.5q57 0 93.5 32.5t36.5 80.5v480q0 8 6 14t14 6h55q8 0 14 -6t6 -14zM158 838h242q8 0 14 -6t6 -14v-38q0 -8 -6 -14t-14 -6
h-242q-8 0 -14 6t-6 14v38q0 8 6 14t14 6z" />
    <glyph glyph-name="umacron" unicode="&#x16b;" horiz-adv-x="515" 
d="M55 180v300q0 8 6 14t14 6h50q8 0 14 -6t6 -14v-300q0 -44 29.5 -72t80.5 -28q47 0 78.5 26t31.5 69v305q0 8 6 14t14 6h50q8 0 14 -6t6 -14v-460q0 -8 -6 -14t-14 -6h-44q-7 0 -14 7q-14 16 -25 16q-9 0 -36.5 -16.5t-70.5 -16.5q-84 0 -137 53.5t-53 136.5zM136 694
h242q8 0 14 -6t6 -14v-38q0 -8 -6 -14t-14 -6h-242q-8 0 -14 6t-6 14v38q0 8 6 14t14 6z" />
    <glyph glyph-name="Ubreve" unicode="&#x16c;" horiz-adv-x="558" 
d="M504 680v-480q0 -89 -66.5 -148.5t-158.5 -59.5q-97 0 -161 59t-64 149v480q0 8 6 14t14 6h55q8 0 14 -6t6 -14v-480q0 -56 38 -84.5t92 -28.5q57 0 93.5 32.5t36.5 80.5v480q0 8 6 14t14 6h55q8 0 14 -6t6 -14zM339 878q0 7 5 12t12 5h43q7 0 12 -5t5 -12q0 -54 -39 -91
t-98 -37q-60 0 -99 37t-39 91q0 7 5 12t12 5h43q7 0 12 -5t5 -12q0 -23 18.5 -39.5t42.5 -16.5t42 16.5t18 39.5z" />
    <glyph glyph-name="ubreve" unicode="&#x16d;" horiz-adv-x="515" 
d="M55 180v300q0 8 6 14t14 6h50q8 0 14 -6t6 -14v-300q0 -44 29.5 -72t80.5 -28q47 0 78.5 26t31.5 69v305q0 8 6 14t14 6h50q8 0 14 -6t6 -14v-460q0 -8 -6 -14t-14 -6h-44q-7 0 -14 7q-14 16 -25 16q-9 0 -36.5 -16.5t-70.5 -16.5q-84 0 -137 53.5t-53 136.5zM318 713
q0 7 5 12t12 5h43q7 0 12 -5t5 -12q0 -54 -39 -91t-98 -37q-60 0 -99 37t-39 91q0 7 5 12t12 5h43q7 0 12 -5t5 -12q0 -23 18.5 -39.5t42.5 -16.5t42 16.5t18 39.5z" />
    <glyph glyph-name="Uring" unicode="&#x16e;" horiz-adv-x="558" 
d="M504 680v-480q0 -89 -66.5 -148.5t-158.5 -59.5q-97 0 -161 59t-64 149v480q0 8 6 14t14 6h55q8 0 14 -6t6 -14v-480q0 -56 38 -84.5t92 -28.5q57 0 93.5 32.5t36.5 80.5v480q0 8 6 14t14 6h55q8 0 14 -6t6 -14zM167 840q0 46 32 78t78 32t78 -32t32 -78t-32 -78t-78 -32
t-78 32t-32 78zM237 840q0 -17 11.5 -28.5t28.5 -11.5t28.5 11.5t11.5 28.5t-11.5 28.5t-28.5 11.5t-28.5 -11.5t-11.5 -28.5z" />
    <glyph glyph-name="uring" unicode="&#x16f;" horiz-adv-x="515" 
d="M55 180v300q0 8 6 14t14 6h50q8 0 14 -6t6 -14v-300q0 -44 29.5 -72t80.5 -28q47 0 78.5 26t31.5 69v305q0 8 6 14t14 6h50q8 0 14 -6t6 -14v-460q0 -8 -6 -14t-14 -6h-44q-7 0 -14 7q-14 16 -25 16q-9 0 -36.5 -16.5t-70.5 -16.5q-84 0 -137 53.5t-53 136.5zM147 670
q0 46 32 78t78 32t78 -32t32 -78t-32 -78t-78 -32t-78 32t-32 78zM217 670q0 -17 11.5 -28.5t28.5 -11.5t28.5 11.5t11.5 28.5t-11.5 28.5t-28.5 11.5t-28.5 -11.5t-11.5 -28.5z" />
    <glyph glyph-name="Uhungarumlaut" unicode="&#x170;" horiz-adv-x="558" 
d="M504 680v-480q0 -89 -66.5 -148.5t-158.5 -59.5q-97 0 -161 59t-64 149v480q0 8 6 14t14 6h55q8 0 14 -6t6 -14v-480q0 -56 38 -84.5t92 -28.5q57 0 93.5 32.5t36.5 80.5v480q0 8 6 14t14 6h55q8 0 14 -6t6 -14zM234 895h79q9 0 12.5 -8.5t-1.5 -12.5l-108 -112
q-12 -12 -30 -12h-40q-9 0 -13.5 7t-0.5 13l76 109q11 16 26 16zM404 895h79q9 0 12.5 -8.5t-1.5 -12.5l-108 -112q-12 -12 -30 -12h-40q-9 0 -13.5 7t-0.5 13l76 109q11 16 26 16z" />
    <glyph glyph-name="uhungarumlaut" unicode="&#x171;" horiz-adv-x="515" 
d="M55 180v300q0 8 6 14t14 6h50q8 0 14 -6t6 -14v-300q0 -44 29.5 -72t80.5 -28q47 0 78.5 26t31.5 69v305q0 8 6 14t14 6h50q8 0 14 -6t6 -14v-460q0 -8 -6 -14t-14 -6h-44q-7 0 -14 7q-14 16 -25 16q-9 0 -36.5 -16.5t-70.5 -16.5q-84 0 -137 53.5t-53 136.5zM208 730h79
q9 0 12.5 -8t-1.5 -13l-108 -112q-12 -12 -30 -12h-40q-9 0 -13.5 7t-0.5 13l76 109q11 16 26 16zM378 730h79q9 0 12.5 -8t-1.5 -13l-108 -112q-12 -12 -30 -12h-40q-9 0 -13.5 7t-0.5 13l76 109q11 16 26 16z" />
    <glyph glyph-name="Uogonek" unicode="&#x172;" horiz-adv-x="558" 
d="M149 680v-480q0 -56 38 -84.5t92 -28.5q57 0 93.5 32.5t36.5 80.5v480q0 8 6 14t14 6h55q8 0 14 -6t6 -14v-480q0 -89 -65 -147q-76 -68 -76 -122q0 -66 81 -66q8 0 14 -6t6 -14v-35q0 -8 -6 -14t-14 -6q-78 0 -121 34.5t-43 101.5q0 30 21 67q-5 -1 -22 -1
q-97 0 -161 59t-64 149v480q0 8 6 14t14 6h55q8 0 14 -6t6 -14z" />
    <glyph glyph-name="uogonek" unicode="&#x173;" horiz-adv-x="515" 
d="M435 0h-7q-34 -2 -54 -20t-20 -49q0 -66 76 -66q8 0 14 -6t6 -14v-35q0 -8 -6 -14t-14 -6q-72 0 -115.5 35t-43.5 101q0 39 30 73q-23 -9 -56 -9q-84 0 -137 53.5t-53 136.5v300q0 8 6 14t14 6h50q8 0 14 -6t6 -14v-300q0 -44 29.5 -72t80.5 -28q47 0 78.5 26t31.5 69
v305q0 8 6 14t14 6h50q8 0 14 -6t6 -14v-460q0 -8 -6 -14t-14 -6z" />
    <glyph glyph-name="Wcircumflex" unicode="&#x174;" horiz-adv-x="719" 
d="M262 15q-3 -15 -19 -15h-85q-16 0 -19 15l-133 665q-2 8 3.5 14t16.5 6h54q16 0 19 -15l98 -513q1 -6 6 -6h2q5 0 6 6l86 513q3 15 19 15h70q16 0 19 -15l94 -513q1 -6 6 -6h2q5 0 6 6l107 513q3 15 19 15h54q11 0 16.5 -6t3.5 -14l-142 -665q-3 -15 -19 -15h-85
q-16 0 -19 15l-92 499q-1 4 -4 4t-4 -4zM352 815l-50 -49q-16 -16 -31 -16h-59q-9 0 -12.5 8t1.5 13l108 112q12 12 30 12h42q17 0 29 -12l108 -112q5 -5 1.5 -13t-12.5 -8h-59q-15 0 -31 16l-51 49q-7 7 -14 0z" />
    <glyph glyph-name="wcircumflex" unicode="&#x175;" horiz-adv-x="668" 
d="M111 485l77 -324q2 -6 7 -6t6 6l88 324q4 15 19 15h52q15 0 19 -15l88 -324q1 -6 6 -6t7 6l77 324q4 15 19 15h57q11 0 16 -7.5t3 -15.5l-130 -462q-4 -15 -19 -15h-55q-14 0 -19 15l-91 330q-1 3 -4 3t-4 -3l-91 -330q-5 -15 -19 -15h-55q-15 0 -19 15l-130 462
q-2 8 3 15.5t16 7.5h57q15 0 19 -15zM326 650l-50 -49q-16 -16 -31 -16h-59q-9 0 -12.5 8.5t1.5 12.5l108 112q12 12 30 12h42q17 0 29 -12l108 -112q5 -4 1.5 -12.5t-12.5 -8.5h-59q-15 0 -31 16l-51 49q-7 7 -14 0z" />
    <glyph glyph-name="Ycircumflex" unicode="&#x176;" horiz-adv-x="458" 
d="M113 685l113 -311q4 -10 8 0l111 311q5 15 19 15h66q10 0 15 -8.5t1 -19.5l-168 -431v-221q0 -8 -6 -14t-14 -6h-56q-8 0 -14 6t-6 14v220l-170 432q-4 11 1 19.5t15 8.5h66q14 0 19 -15zM222 815l-50 -49q-16 -16 -31 -16h-59q-9 0 -12.5 8t1.5 13l108 112q12 12 30 12
h42q17 0 29 -12l108 -112q5 -5 1.5 -13t-12.5 -8h-59q-15 0 -31 16l-51 49q-7 7 -14 0z" />
    <glyph glyph-name="ycircumflex" unicode="&#x177;" horiz-adv-x="462" 
d="M106 485l123 -325q4 -10 8 0l116 325q5 15 19 15h59q11 0 16.5 -7.5t2.5 -15.5l-254 -662q-5 -15 -19 -15h-54q-11 0 -16.5 7.5t-2.5 15.5l74 204q3 8 1 13l-172 437q-3 8 2.5 15.5t16.5 7.5h61q14 0 19 -15zM224 650l-50 -49q-16 -16 -31 -16h-59q-9 0 -12.5 8.5
t1.5 12.5l108 112q12 12 30 12h42q17 0 29 -12l108 -112q5 -4 1.5 -12.5t-12.5 -8.5h-59q-15 0 -31 16l-51 49q-7 7 -14 0z" />
    <glyph glyph-name="Ydieresis" unicode="&#x178;" horiz-adv-x="458" 
d="M113 685l113 -311q4 -10 8 0l111 311q5 15 19 15h66q10 0 15 -8.5t1 -19.5l-168 -431v-221q0 -8 -6 -14t-14 -6h-56q-8 0 -14 6t-6 14v220l-170 432q-4 11 1 19.5t15 8.5h66q14 0 19 -15zM193 835v-69q0 -16 -16 -16h-68q-16 0 -16 16v69q0 6 4.5 11t11.5 5h68
q7 0 11.5 -5t4.5 -11zM364 835v-69q0 -16 -16 -16h-68q-16 0 -16 16v69q0 6 4.5 11t11.5 5h68q7 0 11.5 -5t4.5 -11z" />
    <glyph glyph-name="Zacute" unicode="&#x179;" horiz-adv-x="480" 
d="M431 592l-290 -489q-6 -10 6 -10h279q8 0 14 -6t6 -14v-53q0 -8 -6 -14t-14 -6h-372q-8 0 -14 6t-6 14v75q0 8 5 16l294 487q6 10 -6 10h-263q-8 0 -14 6t-6 14v52q0 8 6 14t14 6h352q8 0 14 -6t6 -14v-72q0 -8 -5 -16zM275 895h79q9 0 12.5 -8.5t-1.5 -12.5l-108 -112
q-12 -12 -30 -12h-40q-9 0 -13.5 7t-0.5 13l76 109q11 16 26 16z" />
    <glyph glyph-name="zacute" unicode="&#x17a;" horiz-adv-x="460" 
d="M43 110l263 294q3 4 1.5 7t-6.5 3h-241q-8 0 -14 6t-6 14v46q0 8 6 14t14 6h340q8 0 14 -6t6 -14v-57q0 -17 -20 -41l-252 -286q-3 -4 -1.5 -7t6.5 -3h257q8 0 14 -6t6 -14v-46q0 -8 -6 -14t-14 -6h-360q-8 0 -14 6t-6 14v59q0 16 13 31zM265 730h79q9 0 12.5 -8
t-1.5 -13l-108 -112q-12 -12 -30 -12h-40q-9 0 -13.5 7t-0.5 13l76 109q11 16 26 16z" />
    <glyph glyph-name="Zdotaccent" unicode="&#x17b;" horiz-adv-x="480" 
d="M431 592l-290 -489q-6 -10 6 -10h279q8 0 14 -6t6 -14v-53q0 -8 -6 -14t-14 -6h-372q-8 0 -14 6t-6 14v75q0 8 5 16l294 487q6 10 -6 10h-263q-8 0 -14 6t-6 14v52q0 8 6 14t14 6h352q8 0 14 -6t6 -14v-72q0 -8 -5 -16zM290 835v-69q0 -16 -16 -16h-68q-16 0 -16 16v69
q0 6 4.5 11t11.5 5h68q7 0 11.5 -5t4.5 -11z" />
    <glyph glyph-name="zdotaccent" unicode="&#x17c;" horiz-adv-x="460" 
d="M43 110l263 294q3 4 1.5 7t-6.5 3h-241q-8 0 -14 6t-6 14v46q0 8 6 14t14 6h340q8 0 14 -6t6 -14v-57q0 -17 -20 -41l-252 -286q-3 -4 -1.5 -7t6.5 -3h257q8 0 14 -6t6 -14v-46q0 -8 -6 -14t-14 -6h-360q-8 0 -14 6t-6 14v59q0 16 13 31zM280 691v-69q0 -16 -16 -16h-68
q-16 0 -16 16v69q0 6 4.5 11t11.5 5h68q7 0 11.5 -5t4.5 -11z" />
    <glyph glyph-name="Zcaron" unicode="&#x17d;" horiz-adv-x="480" 
d="M431 592l-290 -489q-6 -10 6 -10h279q8 0 14 -6t6 -14v-53q0 -8 -6 -14t-14 -6h-372q-8 0 -14 6t-6 14v75q0 8 5 16l294 487q6 10 -6 10h-263q-8 0 -14 6t-6 14v52q0 8 6 14t14 6h352q8 0 14 -6t6 -14v-72q0 -8 -5 -16zM182 879l50 -49q7 -7 14 0l51 49q16 16 31 16h59
q9 0 12.5 -8.5t-1.5 -12.5l-108 -112q-12 -12 -29 -12h-42q-18 0 -30 12l-108 112q-5 4 -1.5 12.5t12.5 8.5h59q15 0 31 -16z" />
    <glyph glyph-name="zcaron" unicode="&#x17e;" horiz-adv-x="460" 
d="M43 110l263 294q3 4 1.5 7t-6.5 3h-241q-8 0 -14 6t-6 14v46q0 8 6 14t14 6h340q8 0 14 -6t6 -14v-57q0 -17 -20 -41l-252 -286q-3 -4 -1.5 -7t6.5 -3h257q8 0 14 -6t6 -14v-46q0 -8 -6 -14t-14 -6h-360q-8 0 -14 6t-6 14v59q0 16 13 31zM172 714l50 -49q7 -7 14 0l51 49
q16 16 31 16h59q9 0 12.5 -8t-1.5 -13l-108 -112q-12 -12 -29 -12h-42q-18 0 -30 12l-108 112q-5 5 -1.5 13t12.5 8h59q15 0 31 -16z" />
    <glyph glyph-name="longs" unicode="&#x17f;" horiz-adv-x="342" 
d="M110 20v375q0 10 -10 10h-75q-8 0 -14 6t-6 14v50q0 8 6 14t14 6h75q10 0 10 10v15q0 79 53 133t132 54h10q8 0 14 -6t6 -14v-47q0 -8 -6 -14t-14 -6h-10q-39 0 -67 -30.5t-28 -69.5v-500q0 -8 -6 -14t-14 -6h-50q-8 0 -14 6t-6 14z" />
    <glyph glyph-name="florin" unicode="&#x192;" horiz-adv-x="342" 
d="M110 -30v425q0 10 -10 10h-65q-8 0 -14 6t-6 14v50q0 8 6 14t14 6h65q10 0 10 10v15q0 90 51.5 138.5t133.5 48.5h10q8 0 14 -6t6 -14v-47q0 -8 -6 -14t-14 -6h-10q-42 0 -68.5 -25t-26.5 -75v-15q0 -10 10 -10h82q8 0 14 -6t6 -14v-50q0 -8 -6 -14t-14 -6h-82
q-10 0 -10 -10v-425q0 -88 -30.5 -129t-113.5 -41h-11q-8 0 -14 6t-6 14v50q0 8 5.5 14t13.5 6h14q30 0 41 19.5t11 60.5z" />
    <glyph glyph-name="Aringacute" unicode="&#x1fa;" horiz-adv-x="488" 
d="M313 1065h79q9 0 12.5 -8.5t-1.5 -12.5l-105 -109q56 -32 56 -95q0 -46 -32 -78t-78 -32t-78 32t-32 78q0 38 22.5 67.5t58.5 38.5l72 103q11 16 26 16zM204 840q0 -17 11.5 -28.5t28.5 -11.5t28.5 11.5t11.5 28.5t-11.5 28.5t-28.5 11.5t-28.5 -11.5t-11.5 -28.5z
M306 275q11 0 8 11l-65 279q-1 6 -4 6h-2q-3 0 -4 -6l-65 -279q-3 -11 8 -11h124zM390 15l-44 153q-3 14 -19 14h-166q-14 0 -19 -14l-44 -153q-5 -15 -19 -15h-55q-11 0 -16.5 6t-3.5 14l186 665q3 15 19 15h70q16 0 19 -15l186 -665q2 -8 -3.5 -14t-16.5 -6h-55
q-14 0 -19 15z" />
    <glyph glyph-name="aringacute" unicode="&#x1fb;" horiz-adv-x="487" 
d="M313 895h79q9 0 12.5 -8.5t-1.5 -12.5l-105 -109q56 -32 56 -95q0 -46 -32 -78t-78 -32t-78 32t-32 78q0 38 22.5 67.5t58.5 38.5l72 103q11 16 26 16zM204 670q0 -17 11.5 -28.5t28.5 -11.5t28.5 11.5t11.5 28.5t-11.5 28.5t-28.5 11.5t-28.5 -11.5t-11.5 -28.5z
M338 220h-130q-75 0 -75 -69q0 -37 23 -57.5t66 -20.5q67 0 96.5 26t29.5 79v32q0 10 -10 10zM247 430q-33 0 -63 -15.5t-30 -47.5q0 -17 -23 -17h-45q-20 0 -20 20q0 65 55.5 102.5t125.5 37.5q183 0 183 -160v-330q0 -8 -6 -14t-14 -6h-34q-8 0 -14 7q-1 2 -5 8.5t-7 9.5
t-8 3q-6 0 -20 -9.5t-39.5 -19t-57.5 -9.5q-88 0 -135 46t-47 114q0 65 44.5 108.5t120.5 43.5h122q10 0 10 10v38q0 39 -25 59.5t-68 20.5z" />
    <glyph glyph-name="AEacute" unicode="&#x1fc;" horiz-adv-x="723" 
d="M221 700h440q8 0 14 -6t6 -14v-55q0 -8 -6 -14t-14 -6h-238q-10 0 -10 -10v-180q0 -10 10 -10h227q8 0 14 -6t6 -14v-55q0 -8 -6 -14t-14 -6h-227q-10 0 -10 -10v-195q0 -10 10 -10h240q8 0 14 -6t6 -14v-55q0 -8 -6 -14t-14 -6h-325q-8 0 -14 6t-6 14v146q0 16 -19 16
h-138q-16 0 -19 -14l-44 -153q-3 -15 -19 -15h-55q-11 0 -16.5 6t-3.5 14l183 654q2 9 11 17.5t23 8.5zM318 595q0 10 -10 10h-43q-11 0 -13 -10l-78 -309q-3 -11 8 -11h126q10 0 10 11v309zM437 895h79q9 0 12.5 -8.5t-1.5 -12.5l-108 -112q-12 -12 -30 -12h-40
q-9 0 -13.5 7t-0.5 13l76 109q11 16 26 16z" />
    <glyph glyph-name="aeacute" unicode="&#x1fd;" horiz-adv-x="794" 
d="M462 730h79q9 0 12.5 -8t-1.5 -13l-108 -112q-12 -12 -30 -12h-40q-9 0 -13.5 7t-0.5 13l76 109q11 16 26 16zM353 211q0 10 -10 10h-135q-37 0 -56 -18.5t-19 -51.5q0 -37 23 -57.5t66 -20.5q131 0 131 105v33zM417 451q54 59 135 59q84 0 142 -58.5t58 -141.5v-69
q-2 -20 -20 -20h-286q-10 0 -10 -10q0 -66 31 -98.5t85 -32.5q38 0 66 17.5t37 45.5q5 17 23 17h51q20 0 17 -20q-9 -66 -63 -108t-131 -42q-84 0 -140 51q-19 16 -38 -1q-59 -50 -149 -50q-88 0 -135 46t-47 114q0 65 44.5 108t120.5 43h127q10 0 10 10v34q0 41 -27.5 63
t-68.5 22q-34 0 -64.5 -14.5t-30.5 -48.5q0 -17 -23 -17h-45q-20 0 -20 20q0 65 56 102.5t127 37.5q43 0 81.5 -18t56.5 -41q5 -7 14 -7t16 7zM553 420q-51 0 -83 -31t-32 -78q0 -10 10 -10h208q10 0 10 10q0 50 -32.5 79.5t-80.5 29.5z" />
    <glyph glyph-name="Oslashacute" unicode="&#x1fe;" horiz-adv-x="556" 
d="M521 672l-45 -71q-3 -5 0 -11q20 -39 27 -90q7 -62 7 -150t-7 -150q-10 -87 -70 -147.5t-155 -60.5q-77 0 -132 39q-7 4 -11 -2l-9 -14q-9 -15 -21 -15h-52q-10 0 -16 9t0 19l41 66q6 9 0 18q-19 42 -25 88q-7 61 -7 150.5t7 149.5q10 87 70.5 147.5t154.5 60.5
q78 0 134 -41q6 -6 11 2l11 16q9 15 19 15h52q10 0 16 -9.5t0 -18.5zM278 613q-51 0 -87 -30t-43 -83q-16 -128 -3 -276q0 -6 2.5 -7.5t7.5 5.5q52 85 122 202t88 148q5 9 -1 12q-36 29 -86 29zM408 200q18 120 3 275q0 2 -1 3.5t-3.5 1t-4.5 -4.5l-206 -347q-6 -11 2 -17
q32 -24 80 -24q51 0 86.5 30t43.5 83zM332 895h79q9 0 12.5 -8.5t-1.5 -12.5l-108 -112q-12 -12 -30 -12h-40q-9 0 -13.5 7t-0.5 13l76 109q11 16 26 16z" />
    <glyph glyph-name="oslashacute" unicode="&#x1ff;" horiz-adv-x="500" 
d="M250 510q71 0 121 -36q5 -3 9 1l9 10q12 15 24 15h47q10 0 15.5 -10.5t-1.5 -19.5l-42 -51q-4 -5 -1 -14q21 -50 24 -85q5 -70 0 -140q-6 -81 -62 -135.5t-143 -54.5q-74 0 -127 40q-6 3 -9 -1l-11 -14q-12 -15 -25 -15h-48q-10 0 -16 11t2 21l49 58q4 5 1 11
q-18 36 -21 79q-5 70 0 140q6 81 62 135.5t143 54.5zM250 80q50 0 81 29t34 71q6 88 0 140q0 4 -2.5 6.5t-6.5 -1.5l-176 -215q-5 -7 1 -10q28 -20 69 -20zM250 420q-50 0 -81 -29t-34 -71q-5 -65 0 -134q0 -2 2 -3t5 1l172 210q5 7 -1 10q-29 16 -63 16zM295 730h79
q9 0 12.5 -8t-1.5 -13l-108 -112q-12 -12 -30 -12h-40q-9 0 -13.5 7t-0.5 13l76 109q11 16 26 16z" />
    <glyph glyph-name="Scommaaccent" unicode="&#x218;" horiz-adv-x="510" 
d="M384 200q0 27 -9 47t-19.5 31.5t-38 22t-43.5 15t-58 13.5q-77 17 -122 65t-45 126q0 86 62 137t144 51q88 0 146.5 -55t58.5 -133v-13q0 -8 -6 -14t-14 -6h-55q-8 0 -14 6t-6 14v13q0 46 -33 69.5t-77 23.5q-49 0 -79.5 -25.5t-30.5 -67.5q0 -18 4 -33t15 -25.5
t18.5 -17.5t27 -13.5t26.5 -9t31 -8t28 -6.5q185 -45 185 -207q0 -93 -67 -150.5t-158 -57.5q-96 0 -160.5 61t-64.5 147v16q0 8 6 14t14 6h56q8 0 14 -6t6 -14v-16q0 -49 36.5 -81t92.5 -32t92.5 32.5t36.5 80.5zM231 -249q-14 0 -19 11t1 22l31 57q3 5 -0.5 9t-8.5 4h-7
q-8 0 -14 6t-6 14v61q0 8 6 14t14 6h70q8 0 14 -6t6 -14v-61q0 -34 -20 -62l-32 -46q-10 -15 -26 -15h-9z" />
    <glyph glyph-name="scommaaccent" unicode="&#x219;" horiz-adv-x="459" 
d="M413 360q0 -8 -6 -14t-14 -6h-50q-8 0 -14 6t-6 14q0 28 -23 46.5t-70 18.5q-43 0 -65.5 -18t-22.5 -42q0 -27 22.5 -40t65.5 -21q23 -4 29.5 -5t28.5 -6t30.5 -8.5t27.5 -10.5t27 -14.5t21 -18.5t18.5 -24t10 -30t4.5 -37q0 -76 -57 -118t-140 -42q-82 0 -140 41
t-58 119v13q0 8 6 14t14 6h50q8 0 14 -6t6 -14v-13q0 -40 32.5 -57t75.5 -17q107 0 107 74q0 15 -7.5 25.5t-25 17.5t-32.5 11t-42 10q-33 7 -51.5 11.5t-47 16.5t-43.5 26t-27 39.5t-12 57.5q0 65 54.5 105t126.5 40q74 0 128.5 -41t54.5 -109zM199 -249q-14 0 -19 11t1 22
l31 57q3 5 -0.5 9t-8.5 4h-7q-8 0 -14 6t-6 14v61q0 8 6 14t14 6h70q8 0 14 -6t6 -14v-61q0 -34 -20 -62l-32 -46q-10 -15 -26 -15h-9z" />
    <glyph glyph-name="uni021A" unicode="&#x21a;" horiz-adv-x="424" 
d="M270 605q-10 0 -10 -10v-575q0 -8 -6 -14t-14 -6h-55q-8 0 -14 6t-6 14v575q0 10 -10 10h-133q-8 0 -14 6t-6 14v55q0 8 6 14t14 6h380q8 0 14 -6t6 -14v-55q0 -8 -6 -14t-14 -6h-132zM181 -249q-14 0 -19 11t1 22l31 57q3 5 -0.5 9t-8.5 4h-7q-8 0 -14 6t-6 14v61
q0 8 6 14t14 6h70q8 0 14 -6t6 -14v-61q0 -34 -20 -62l-32 -46q-10 -15 -26 -15h-9z" />
    <glyph glyph-name="uni021B" unicode="&#x21b;" horiz-adv-x="360" 
d="M205 495h115q8 0 14 -6t6 -14v-50q0 -8 -6 -14t-14 -6h-115q-10 0 -10 -10v-235q0 -73 80 -73h55q8 0 14 -6t6 -14v-47q0 -8 -6 -14t-14 -6h-55q-170 0 -170 160v235q0 10 -10 10h-70q-8 0 -14 6t-6 14v50q0 8 6 14t14 6h70q10 0 10 10v155q0 8 6 14t14 6h50q8 0 14 -6
t6 -14v-155q0 -10 10 -10zM187 -249q-14 0 -19 11t1 22l31 57q3 5 -0.5 9t-8.5 4h-7q-8 0 -14 6t-6 14v61q0 8 6 14t14 6h70q8 0 14 -6t6 -14v-61q0 -34 -20 -62l-32 -46q-10 -15 -26 -15h-9z" />
    <glyph glyph-name="apostrophemod" unicode="&#x2bc;" horiz-adv-x="207" 
d="M77 440h-14q-14 0 -19 11t1 22l46 84q3 5 -0.5 9t-8.5 4h-17q-8 0 -14 6t-6 14v90q0 8 6 14t14 6h90q8 0 14 -6t6 -14v-90q0 -34 -20 -62l-52 -73q-10 -15 -26 -15z" />
    <glyph glyph-name="circumflex" unicode="&#x2c6;" horiz-adv-x="510" 
d="M248 650l-50 -49q-16 -16 -31 -16h-59q-9 0 -12.5 8.5t1.5 12.5l108 112q12 12 30 12h42q17 0 29 -12l108 -112q5 -4 1.5 -12.5t-12.5 -8.5h-59q-15 0 -31 16l-51 49q-7 7 -14 0z" />
    <glyph glyph-name="caron" unicode="&#x2c7;" horiz-adv-x="450" 
d="M168 714l50 -49q7 -7 14 0l51 49q16 16 31 16h59q9 0 12.5 -8t-1.5 -13l-108 -112q-12 -12 -29 -12h-42q-18 0 -30 12l-108 112q-5 5 -1.5 13t12.5 8h59q15 0 31 -16z" />
    <glyph glyph-name="breve" unicode="&#x2d8;" horiz-adv-x="476" 
d="M294 713q0 7 5 12t12 5h43q7 0 12 -5t5 -12q0 -54 -39 -91t-98 -37q-60 0 -99 37t-39 91q0 7 5 12t12 5h43q7 0 12 -5t5 -12q0 -23 18.5 -39.5t42.5 -16.5t42 16.5t18 39.5z" />
    <glyph glyph-name="dotaccent" unicode="&#x2d9;" horiz-adv-x="233" 
d="M165 691v-69q0 -16 -16 -16h-68q-16 0 -16 16v69q0 6 4.5 11t11.5 5h68q7 0 11.5 -5t4.5 -11z" />
    <glyph glyph-name="ring" unicode="&#x2da;" horiz-adv-x="518" 
d="M142 670q0 46 32 78t78 32t78 -32t32 -78t-32 -78t-78 -32t-78 32t-32 78zM212 670q0 -17 11.5 -28.5t28.5 -11.5t28.5 11.5t11.5 28.5t-11.5 28.5t-28.5 11.5t-28.5 -11.5t-11.5 -28.5z" />
    <glyph glyph-name="ogonek" unicode="&#x2db;" horiz-adv-x="318" 
d="M244 55v-35q0 -8 -6 -14t-14 -6q-36 0 -58.5 -18.5t-22.5 -50.5q0 -66 81 -66q8 0 14 -6t6 -14v-35q0 -8 -6 -14t-14 -6q-74 0 -119 35t-45 101q0 67 51.5 108t112.5 41q8 0 14 -6t6 -14z" />
    <glyph glyph-name="tilde" unicode="&#x2dc;" horiz-adv-x="504" 
d="M322 684q29 0 46 21q6 8 15.5 4t9.5 -18v-40q0 -20 -21 -35.5t-50 -15.5q-32 0 -69 12.5t-71 12.5q-28 0 -46 -21q-6 -8 -15.5 -3.5t-9.5 17.5v40q0 20 21 35.5t50 15.5q32 0 69 -12.5t71 -12.5z" />
    <glyph glyph-name="hungarumlaut" unicode="&#x2dd;" horiz-adv-x="467" 
d="M154 730h79q9 0 12.5 -8t-1.5 -13l-108 -112q-12 -12 -30 -12h-40q-9 0 -13.5 7t-0.5 13l76 109q11 16 26 16zM324 730h79q9 0 12.5 -8t-1.5 -13l-108 -112q-12 -12 -30 -12h-40q-9 0 -13.5 7t-0.5 13l76 109q11 16 26 16z" />
    <glyph glyph-name="Delta" unicode="&#x394;" horiz-adv-x="676" 
d="M606 0h-536q-8 0 -14 6t-6 14v51q0 11 7 29l230 525q6 15 19 15h64q13 0 19 -15l230 -525q7 -18 7 -29v-51q0 -8 -6 -14t-14 -6zM158 85h360q11 0 6 12l-179 423q-3 6 -6 6h-2q-3 0 -6 -6l-179 -423q-5 -12 6 -12z" />
    <glyph glyph-name="Omega" unicode="&#x3a9;" horiz-adv-x="683" 
d="M518 102q-9 -5 -6.5 -13.5t13.5 -8.5h67q8 0 14 -6t6 -14v-40q0 -8 -6 -14t-14 -6h-176q-8 0 -14 6t-6 14v59q0 29 25 46q44 29 83.5 96t39.5 160q0 96 -57 168t-146 72t-145.5 -72t-56.5 -168q0 -93 39.5 -160t83.5 -96q25 -17 25 -46v-59q0 -8 -6 -14t-14 -6h-176
q-8 0 -14 6t-6 14v40q0 8 6 14t14 6h67q11 0 13.5 8t-5.5 13q-55 38 -85.5 118t-30.5 163q0 132 82.5 226.5t208.5 94.5t209 -94.5t83 -226.5q0 -83 -30 -162.5t-85 -117.5z" />
    <glyph glyph-name="mu" unicode="&#x3bc;" horiz-adv-x="522" 
d="M62 -180v660q0 8 6 14t14 6h50q8 0 14 -6t6 -14v-300q0 -43 31.5 -71.5t78.5 -28.5t78.5 26t31.5 69v305q0 8 6 14t14 6h50q8 0 14 -6t6 -14v-460q0 -8 -6 -14t-14 -6h-44q-7 0 -14 7q-14 16 -25 16q-9 0 -36.5 -16.5t-70.5 -16.5q-34 0 -78 29q-7 5 -15.5 1.5
t-8.5 -14.5v-186q0 -8 -6 -14t-14 -6h-48q-8 0 -14 6t-6 14z" />
    <glyph glyph-name="pi" unicode="&#x3c0;" horiz-adv-x="539" 
d="M495 410h-85q-10 0 -10 -10v-210q0 -41 29.5 -70.5t70.5 -29.5q8 0 14 -6t6 -14v-50q0 -8 -6 -14t-14 -6q-79 0 -134.5 55.5t-55.5 134.5v210q0 10 -8 10h-97q-10 0 -10 -10v-380q0 -8 -6 -14t-14 -6h-50q-8 0 -14 6t-6 14v380q0 10 -10 10h-60q-8 0 -14 6t-6 14v50
q0 8 6 14t14 6h460q8 0 14 -6t6 -14v-50q0 -8 -6 -14t-14 -6z" />
    <glyph glyph-name="Wgrave" unicode="&#x1e80;" horiz-adv-x="719" 
d="M262 15q-3 -15 -19 -15h-85q-16 0 -19 15l-133 665q-2 8 3.5 14t16.5 6h54q16 0 19 -15l98 -513q1 -6 6 -6h2q5 0 6 6l86 513q3 15 19 15h70q16 0 19 -15l94 -513q1 -6 6 -6h2q5 0 6 6l107 513q3 15 19 15h54q11 0 16.5 -6t3.5 -14l-142 -665q-3 -15 -19 -15h-85
q-16 0 -19 15l-92 499q-1 4 -4 4t-4 -4zM225 895h79q15 0 26 -16l76 -109q4 -6 -0.5 -13t-13.5 -7h-40q-18 0 -30 12l-108 112q-5 4 -1.5 12.5t12.5 8.5z" />
    <glyph glyph-name="wgrave" unicode="&#x1e81;" horiz-adv-x="668" 
d="M111 485l77 -324q2 -6 7 -6t6 6l88 324q4 15 19 15h52q15 0 19 -15l88 -324q1 -6 6 -6t7 6l77 324q4 15 19 15h57q11 0 16 -7.5t3 -15.5l-130 -462q-4 -15 -19 -15h-55q-14 0 -19 15l-91 330q-1 3 -4 3t-4 -3l-91 -330q-5 -15 -19 -15h-55q-15 0 -19 15l-130 462
q-2 8 3 15.5t16 7.5h57q15 0 19 -15zM209 730h79q15 0 26 -16l76 -109q4 -6 -0.5 -13t-13.5 -7h-40q-18 0 -30 12l-108 112q-5 5 -1.5 13t12.5 8z" />
    <glyph glyph-name="Wacute" unicode="&#x1e82;" horiz-adv-x="719" 
d="M262 15q-3 -15 -19 -15h-85q-16 0 -19 15l-133 665q-2 8 3.5 14t16.5 6h54q16 0 19 -15l98 -513q1 -6 6 -6h2q5 0 6 6l86 513q3 15 19 15h70q16 0 19 -15l94 -513q1 -6 6 -6h2q5 0 6 6l107 513q3 15 19 15h54q11 0 16.5 -6t3.5 -14l-142 -665q-3 -15 -19 -15h-85
q-16 0 -19 15l-92 499q-1 4 -4 4t-4 -4zM415 895h79q9 0 12.5 -8.5t-1.5 -12.5l-108 -112q-12 -12 -30 -12h-40q-9 0 -13.5 7t-0.5 13l76 109q11 16 26 16z" />
    <glyph glyph-name="wacute" unicode="&#x1e83;" horiz-adv-x="668" 
d="M111 485l77 -324q2 -6 7 -6t6 6l88 324q4 15 19 15h52q15 0 19 -15l88 -324q1 -6 6 -6t7 6l77 324q4 15 19 15h57q11 0 16 -7.5t3 -15.5l-130 -462q-4 -15 -19 -15h-55q-14 0 -19 15l-91 330q-1 3 -4 3t-4 -3l-91 -330q-5 -15 -19 -15h-55q-15 0 -19 15l-130 462
q-2 8 3 15.5t16 7.5h57q15 0 19 -15zM379 730h79q9 0 12.5 -8t-1.5 -13l-108 -112q-12 -12 -30 -12h-40q-9 0 -13.5 7t-0.5 13l76 109q11 16 26 16z" />
    <glyph glyph-name="Wdieresis" unicode="&#x1e84;" horiz-adv-x="719" 
d="M262 15q-3 -15 -19 -15h-85q-16 0 -19 15l-133 665q-2 8 3.5 14t16.5 6h54q16 0 19 -15l98 -513q1 -6 6 -6h2q5 0 6 6l86 513q3 15 19 15h70q16 0 19 -15l94 -513q1 -6 6 -6h2q5 0 6 6l107 513q3 15 19 15h54q11 0 16.5 -6t3.5 -14l-142 -665q-3 -15 -19 -15h-85
q-16 0 -19 15l-92 499q-1 4 -4 4t-4 -4zM324 835v-69q0 -16 -16 -16h-68q-16 0 -16 16v69q0 6 4.5 11t11.5 5h68q7 0 11.5 -5t4.5 -11zM495 835v-69q0 -16 -16 -16h-68q-16 0 -16 16v69q0 6 4.5 11t11.5 5h68q7 0 11.5 -5t4.5 -11z" />
    <glyph glyph-name="wdieresis" unicode="&#x1e85;" horiz-adv-x="668" 
d="M111 485l77 -324q2 -6 7 -6t6 6l88 324q4 15 19 15h52q15 0 19 -15l88 -324q1 -6 6 -6t7 6l77 324q4 15 19 15h57q11 0 16 -7.5t3 -15.5l-130 -462q-4 -15 -19 -15h-55q-14 0 -19 15l-91 330q-1 3 -4 3t-4 -3l-91 -330q-5 -15 -19 -15h-55q-15 0 -19 15l-130 462
q-2 8 3 15.5t16 7.5h57q15 0 19 -15zM298 691v-69q0 -16 -16 -16h-68q-16 0 -16 16v69q0 6 4.5 11t11.5 5h68q7 0 11.5 -5t4.5 -11zM469 691v-69q0 -16 -16 -16h-68q-16 0 -16 16v69q0 6 4.5 11t11.5 5h68q7 0 11.5 -5t4.5 -11z" />
    <glyph glyph-name="Ygrave" unicode="&#x1ef2;" horiz-adv-x="458" 
d="M113 685l113 -311q4 -10 8 0l111 311q5 15 19 15h66q10 0 15 -8.5t1 -19.5l-168 -431v-221q0 -8 -6 -14t-14 -6h-56q-8 0 -14 6t-6 14v220l-170 432q-4 11 1 19.5t15 8.5h66q14 0 19 -15zM94 895h79q15 0 26 -16l76 -109q4 -6 -0.5 -13t-13.5 -7h-40q-18 0 -30 12
l-108 112q-5 4 -1.5 12.5t12.5 8.5z" />
    <glyph glyph-name="ygrave" unicode="&#x1ef3;" horiz-adv-x="462" 
d="M106 485l123 -325q4 -10 8 0l116 325q5 15 19 15h59q11 0 16.5 -7.5t2.5 -15.5l-254 -662q-5 -15 -19 -15h-54q-11 0 -16.5 7.5t-2.5 15.5l74 204q3 8 1 13l-172 437q-3 8 2.5 15.5t16.5 7.5h61q14 0 19 -15zM116 730h79q15 0 26 -16l76 -109q4 -6 -0.5 -13t-13.5 -7h-40
q-18 0 -30 12l-108 112q-5 5 -1.5 13t12.5 8z" />
    <glyph glyph-name="endash" unicode="&#x2013;" horiz-adv-x="560" 
d="M90 308h380q8 0 14 -6t6 -14v-55q0 -8 -6 -14t-14 -6h-380q-8 0 -14 6t-6 14v55q0 8 6 14t14 6z" />
    <glyph glyph-name="emdash" unicode="&#x2014;" horiz-adv-x="710" 
d="M90 308h530q8 0 14 -6t6 -14v-55q0 -8 -6 -14t-14 -6h-530q-8 0 -14 6t-6 14v55q0 8 6 14t14 6z" />
    <glyph glyph-name="quoteleft" unicode="&#x2018;" horiz-adv-x="207" 
d="M154 700q14 0 19 -11t-1 -22l-46 -84q-3 -5 0.5 -9t8.5 -4h17q8 0 14 -6t6 -14v-90q0 -8 -6 -14t-14 -6h-90q-8 0 -14 6t-6 14v90q0 34 20 62l52 73q10 15 26 15h14z" />
    <glyph glyph-name="quoteright" unicode="&#x2019;" horiz-adv-x="207" 
d="M77 440h-14q-14 0 -19 11t1 22l46 84q3 5 -0.5 9t-8.5 4h-17q-8 0 -14 6t-6 14v90q0 8 6 14t14 6h90q8 0 14 -6t6 -14v-90q0 -34 -20 -62l-52 -73q-10 -15 -26 -15z" />
    <glyph glyph-name="quotesinglbase" unicode="&#x201a;" horiz-adv-x="269" 
d="M107 -130h-14q-14 0 -19 11t1 22l46 84q3 5 -0.5 9t-8.5 4h-17q-8 0 -14 6t-6 14v90q0 8 6 14t14 6h90q8 0 14 -6t6 -14v-90q0 -34 -20 -62l-52 -73q-10 -15 -26 -15z" />
    <glyph glyph-name="quotedblleft" unicode="&#x201c;" horiz-adv-x="407" 
d="M154 700q14 0 19 -11t-1 -22l-46 -84q-3 -5 0.5 -9t8.5 -4h17q8 0 14 -6t6 -14v-90q0 -8 -6 -14t-14 -6h-90q-8 0 -14 6t-6 14v90q0 34 20 62l52 73q10 15 26 15h14zM354 700q14 0 19 -11t-1 -22l-46 -84q-3 -5 0.5 -9t8.5 -4h17q8 0 14 -6t6 -14v-90q0 -8 -6 -14t-14 -6
h-90q-8 0 -14 6t-6 14v90q0 34 20 62l52 73q10 15 26 15h14z" />
    <glyph glyph-name="quotedblright" unicode="&#x201d;" horiz-adv-x="407" 
d="M277 440h-14q-14 0 -19 11t1 22l46 84q3 5 -0.5 9t-8.5 4h-17q-8 0 -14 6t-6 14v90q0 8 6 14t14 6h90q8 0 14 -6t6 -14v-90q0 -34 -20 -62l-52 -73q-10 -15 -26 -15zM77 440h-14q-14 0 -19 11t1 22l46 84q3 5 -0.5 9t-8.5 4h-17q-8 0 -14 6t-6 14v90q0 8 6 14t14 6h90
q8 0 14 -6t6 -14v-90q0 -34 -20 -62l-52 -73q-10 -15 -26 -15z" />
    <glyph glyph-name="quotedblbase" unicode="&#x201e;" horiz-adv-x="457" 
d="M83 -130q-14 0 -19 11t1 22l46 84q3 5 -0.5 9t-8.5 4h-17q-8 0 -14 6t-6 14v90q0 8 6 14t14 6h90q8 0 14 -6t6 -14v-90q0 -34 -20 -62l-52 -73q-10 -15 -26 -15h-14zM283 -130q-14 0 -19 11t1 22l46 84q3 5 -0.5 9t-8.5 4h-17q-8 0 -14 6t-6 14v90q0 8 6 14t14 6h90
q8 0 14 -6t6 -14v-90q0 -34 -20 -62l-52 -73q-10 -15 -26 -15h-14z" />
    <glyph glyph-name="dagger" unicode="&#x2020;" horiz-adv-x="450" 
d="M180 -100v490q0 10 -10 10h-130q-8 0 -14 6t-6 14v50q0 8 6 14t14 6h130q10 0 10 10v180q0 8 6 14t14 6h50q8 0 14 -6t6 -14v-180q0 -10 10 -10h130q8 0 14 -6t6 -14v-50q0 -8 -6 -14t-14 -6h-130q-10 0 -10 -10v-490q0 -8 -6 -14t-14 -6h-50q-8 0 -14 6t-6 14z" />
    <glyph glyph-name="daggerdbl" unicode="&#x2021;" horiz-adv-x="468" 
d="M44 532h138q10 0 10 10v138q0 8 6 14t14 6h44q8 0 14 -6t6 -14v-138q0 -10 10 -10h138q8 0 14 -6t6 -14v-48q0 -8 -6 -14t-14 -6h-138q-10 0 -10 -10v-168q0 -10 10 -10h138q8 0 14 -6t6 -14v-48q0 -8 -6 -14t-14 -6h-138q-10 0 -10 -10v-138q0 -8 -6 -14t-14 -6h-44
q-8 0 -14 6t-6 14v138q0 10 -10 10h-138q-8 0 -14 6t-6 14v48q0 8 6 14t14 6h138q10 0 10 10v168q0 10 -10 10h-138q-8 0 -14 6t-6 14v48q0 8 6 14t14 6z" />
    <glyph glyph-name="bullet" unicode="&#x2022;" horiz-adv-x="377" 
d="M294 375v-170q0 -8 -6 -14t-14 -6h-170q-8 0 -14 6t-6 14v170q0 8 6 14t14 6h170q8 0 14 -6t6 -14z" />
    <glyph glyph-name="ellipsis" unicode="&#x2026;" horiz-adv-x="689" 
d="M183 110v-90q0 -8 -6 -14t-14 -6h-90q-8 0 -14 6t-6 14v90q0 8 6 14t14 6h90q8 0 14 -6t6 -14zM409 110v-90q0 -8 -6 -14t-14 -6h-90q-8 0 -14 6t-6 14v90q0 8 6 14t14 6h90q8 0 14 -6t6 -14zM636 110v-90q0 -8 -6 -14t-14 -6h-90q-8 0 -14 6t-6 14v90q0 8 6 14t14 6h90
q8 0 14 -6t6 -14z" />
    <glyph glyph-name="perthousand" unicode="&#x2030;" horiz-adv-x="906" 
d="M575 672l-426 -657q-9 -15 -21 -15h-40q-10 0 -16 9t0 19l427 657q9 15 22 15h38q10 0 16 -9t0 -19zM177 454q16 0 28 10.5t14 27.5q6 42 0 86q-2 15 -13 25.5t-29 10.5q-37 0 -42 -36q-5 -44 0 -86q2 -16 13 -27t29 -11zM177 690q45 0 75.5 -28.5t36.5 -76.5
q6 -50 0 -100q-5 -44 -35 -74.5t-77 -30.5q-45 0 -76 28.5t-37 76.5q-6 50 0 100q6 43 36 74t77 31zM471 84q16 0 28 10.5t14 27.5q6 42 0 86q-2 15 -13 25.5t-29 10.5q-37 0 -42 -36q-5 -44 0 -86q2 -16 13 -27t29 -11zM471 320q45 0 75.5 -28.5t36.5 -76.5q6 -50 0 -100
q-5 -44 -35 -74.5t-77 -30.5q-45 0 -76 28.5t-37 76.5q-6 50 0 100q6 43 36 74t77 31zM747 84q16 0 28 10.5t14 27.5q6 42 0 86q-2 15 -13 25.5t-29 10.5q-37 0 -42 -36q-5 -44 0 -86q2 -16 13 -27t29 -11zM747 320q45 0 75.5 -28.5t36.5 -76.5q6 -50 0 -100
q-5 -44 -35 -74.5t-77 -30.5q-45 0 -76 28.5t-37 76.5q-6 50 0 100q6 43 36 74t77 31z" />
    <glyph glyph-name="guilsinglleft" unicode="&#x2039;" horiz-adv-x="314" 
d="M56 274l96 161q9 15 25 15h45q15 0 19.5 -8.5t-3.5 -24.5l-85 -145q-8 -11 0 -24l85 -145q8 -16 3.5 -24.5t-19.5 -8.5h-45q-16 0 -25 15l-96 161q-9 14 0 28z" />
    <glyph glyph-name="guilsinglright" unicode="&#x203a;" horiz-adv-x="314" 
d="M162 435l96 -161q9 -14 0 -28l-96 -161q-9 -15 -25 -15h-45q-15 0 -19.5 8.5t3.5 24.5l85 145q8 13 0 24l-85 145q-8 16 -3.5 24.5t19.5 8.5h45q16 0 25 -15z" />
    <glyph glyph-name="fraction" unicode="&#x2044;" horiz-adv-x="161" 
d="M332 672l-426 -657q-9 -15 -21 -15h-40q-10 0 -16 9t0 19l427 657q9 15 22 15h38q10 0 16 -9t0 -19z" />
    <glyph glyph-name="Euro" unicode="&#x20ac;" horiz-adv-x="572" 
d="M452 200v14q0 8 6 14t14 6h55q8 0 14 -6t6 -14v-14q0 -85 -64 -146.5t-161 -61.5q-105 0 -166.5 68.5t-61.5 170.5q0 9 -10 9h-42q-8 0 -14 6t-6 14v42q0 8 6 14t14 6h39q8 0 8 8v57q0 7 -7 7h-40q-8 0 -14 6t-6 14v42q0 8 6 14t14 6h44q9 0 9 7q0 99 64 162t163 63
q94 0 159.5 -57t65.5 -151v-14q0 -8 -6 -14t-14 -6h-55q-8 0 -14 6t-6 14v14q0 46 -36 79t-94 34q-55 0 -93.5 -31.5t-38.5 -98.5q0 -7 4 -7h168q8 0 14 -6t6 -14v-42q0 -8 -6 -14t-14 -6h-171q-7 0 -7 -8v-54q0 -10 8 -10h170q8 0 14 -6t6 -14v-42q0 -8 -6 -14t-14 -6h-166
q-7 0 -7 -9q0 -65 33.5 -104.5t99.5 -39.5q53 0 91.5 30.5t38.5 82.5z" />
    <glyph glyph-name="afii61289" unicode="&#x2113;" horiz-adv-x="493" 
d="M98 272h-48q-8 0 -14 6t-6 14v50q0 8 6 14t14 6h48v148q0 80 53.5 135t131.5 55t129 -55t51 -135q0 -92 -73.5 -155.5t-196.5 -76.5v-53q0 -78 35.5 -111.5t120.5 -33.5h36q8 0 14 -6t6 -14v-50q0 -8 -6 -14t-14 -6h-36q-133 0 -192 57.5t-59 175.5v49zM193 510v-143
q81 9 128 45t47 98q0 42 -23 71t-62 29t-64.5 -29.5t-25.5 -70.5z" />
    <glyph glyph-name="afii61352" unicode="&#x2116;" horiz-adv-x="983" 
d="M465 0h-83q-15 0 -21 17l-197 495q-2 3 -5 2.5t-3 -4.5v-490q0 -8 -6 -14t-14 -6h-51q-8 0 -14 6t-6 14v660q0 8 6 14t14 6h83q15 0 21 -17l197 -493q2 -3 5 -2.5t3 4.5v488q0 8 6 14t14 6h51q8 0 14 -6t6 -14v-660q0 -8 -6 -14t-14 -6zM646 411q-3 -51 0 -102
q3 -36 29.5 -61t69.5 -25t69.5 25t29.5 61q3 51 0 102q-3 36 -29.5 61t-69.5 25t-69.5 -25t-29.5 -61zM560 306q-4 54 0 108q5 73 55.5 122t129.5 49t129.5 -49t55.5 -122q4 -54 0 -108q-5 -74 -55.5 -123t-129.5 -49t-129.5 49t-55.5 123zM900 0h-304q-8 0 -14 6t-6 14v43
q0 8 6 14t14 6h304q8 0 14 -6t6 -14v-43q0 -8 -6 -14t-14 -6z" />
    <glyph glyph-name="trademark" unicode="&#x2122;" horiz-adv-x="732" 
d="M210 627v-267q0 -10 -10 -10h-48q-10 0 -10 10v267q0 5 -5 5h-76q-10 0 -10 10v48q0 10 10 10h230q10 0 10 -10v-48q0 -10 -10 -10h-76q-5 0 -5 -5zM430 691l60 -209q1 -2 2.5 -2t2.5 2l60 209q1 9 10 9h78q10 0 10 -10v-330q0 -10 -10 -10h-44q-10 0 -10 10v220
q-1 3 -4 1l-72 -223q-3 -8 -10 -8h-21q-8 0 -11 8l-71 223q-1 2 -2.5 1.5t-1.5 -2.5v-220q0 -10 -10 -10h-45q-10 0 -10 10v330q0 10 10 10h78q8 0 11 -9z" />
    <glyph glyph-name="uni2126" unicode="&#x2126;" horiz-adv-x="683" 
d="M518 102q-9 -5 -6.5 -13.5t13.5 -8.5h67q8 0 14 -6t6 -14v-40q0 -8 -6 -14t-14 -6h-176q-8 0 -14 6t-6 14v59q0 29 25 46q44 29 83.5 96t39.5 160q0 96 -57 168t-146 72t-145.5 -72t-56.5 -168q0 -93 39.5 -160t83.5 -96q25 -17 25 -46v-59q0 -8 -6 -14t-14 -6h-176
q-8 0 -14 6t-6 14v40q0 8 6 14t14 6h67q11 0 13.5 8t-5.5 13q-55 38 -85.5 118t-30.5 163q0 132 82.5 226.5t208.5 94.5t209 -94.5t83 -226.5q0 -83 -30 -162.5t-85 -117.5z" />
    <glyph glyph-name="estimated" unicode="&#x212e;" horiz-adv-x="594" 
d="M306 80q53 0 90.5 17t52.5 46q5 17 23 17h46q18 0 17 -20q-9 -66 -72.5 -108t-156.5 -42q-98 0 -163 49t-85 147q-8 39 -8 93.5t8 93.5q45 207 248 207q50 0 90.5 -12t75 -39t53.5 -76.5t19 -118.5v-63q0 -8 -6 -14t-14 -6h-369q-10 0 -10 -10q3 -39 13 -63
q23 -55 59 -76.5t89 -21.5zM148 362l-2 -21q0 -10 10 -10h288q10 0 10 10v21q0 68 -42 103t-108 35q-62 0 -106 -34.5t-50 -103.5z" />
    <glyph glyph-name="arrowleft" unicode="&#x2190;" horiz-adv-x="653" 
d="M201 298h382q18 -2 20 -20v-47q-2 -18 -20 -20h-384l94 -94q12 -13 12 -25v-65q0 -9 -8.5 -13t-15.5 3l-225 225q-12 12 1 27l217 217q9 9 20 3.5t11 -17.5v-62q0 -8 -15 -23z" />
    <glyph glyph-name="arrowup" unicode="&#x2191;" horiz-adv-x="580" 
d="M244 20v382l-89 -89q-15 -15 -23 -15h-62q-12 0 -17.5 11t3.5 20l217 217q15 13 27 1l225 -225q7 -8 3 -16t-13 -8h-65q-12 0 -25 12l-94 94v-384q0 -8 -6.5 -14t-13.5 -6h-47q-8 0 -14 6t-6 14z" />
    <glyph glyph-name="arrowright" unicode="&#x2192;" horiz-adv-x="653" 
d="M70 296h382l-89 89q-15 15 -15 23v62q0 12 11 17.5t20 -3.5l217 -217q13 -15 1 -27l-225 -225q-8 -7 -16 -3t-8 13v65q0 12 12 25l94 94h-384q-8 0 -14 6.5t-6 13.5v47q0 8 6 14t14 6z" />
    <glyph glyph-name="arrowdown" unicode="&#x2193;" horiz-adv-x="580" 
d="M244 129v382q0 7 6 13.5t14 6.5h47q7 0 13.5 -6.5t6.5 -13.5v-384l94 94q13 12 25 12h65q9 0 13 -8.5t-3 -15.5l-225 -225q-12 -12 -27 1l-217 217q-9 9 -3.5 20t17.5 11h62q8 0 23 -15z" />
    <glyph glyph-name="uni2196" unicode="&#x2196;" horiz-adv-x="518" 
d="M401 44l-270 270v-126q0 -21 -6 -27l-44 -44q-8 -9 -19.5 -4.5t-11.5 16.5v307q0 20 18 20h318q10 0 13 -9t-3 -15l-46 -46q-9 -9 -26 -9l-133 -1l271 -271q12 -14 0 -28l-33 -33q-15 -13 -28 0z" />
    <glyph glyph-name="uni2197" unicode="&#x2197;" horiz-adv-x="518" 
d="M387 314l-270 -270q-13 -13 -28 0l-33 33q-12 14 0 28l271 271l-133 1q-17 0 -26 9l-46 46q-6 6 -3 15t13 9h318q18 0 18 -20v-307q0 -12 -11.5 -16.5t-19.5 4.5l-44 44q-6 6 -6 27v126z" />
    <glyph glyph-name="uni2198" unicode="&#x2198;" horiz-adv-x="518" 
d="M117 459l270 -270v126q0 21 6 27l44 44q8 9 19.5 4.5t11.5 -16.5v-307q0 -20 -18 -20h-318q-10 0 -13 9t3 15l46 46q9 9 26 9l133 1l-271 271q-12 14 0 28l33 33q14 12 28 0z" />
    <glyph glyph-name="uni2199" unicode="&#x2199;" horiz-adv-x="833" 
d="M131 189l270 270q14 12 28 0l33 -33q12 -14 0 -28l-271 -271l133 -1q17 0 26 -9l46 -46q6 -6 3 -15t-13 -9h-318q-18 0 -18 20v307q0 12 11.5 16.5t19.5 -4.5l44 -44q6 -6 6 -27v-126z" />
    <glyph glyph-name="partialdiff" unicode="&#x2202;" horiz-adv-x="508" 
d="M251 80q50 0 81 29t34 71q3 45 0 90q-3 42 -34 71t-81 29t-81 -29t-34 -71q-3 -45 0 -90q3 -42 34 -71t81 -29zM210 610h-36q-8 0 -14 6t-6 14v50q0 8 6 14t14 6h36q113 0 168 -74t70 -206q15 -131 3 -240q-9 -83 -61.5 -136.5t-138.5 -53.5q-87 0 -143 54.5t-62 135.5
q-3 45 0 90q6 81 62 135.5t143 54.5q45 0 87 -24q4 -2 6.5 -2t3.5 1.5t1 4.5q-7 78 -42 124t-97 46z" />
    <glyph glyph-name="uni2206" unicode="&#x2206;" horiz-adv-x="676" 
d="M606 0h-536q-8 0 -14 6t-6 14v51q0 11 7 29l230 525q6 15 19 15h64q13 0 19 -15l230 -525q7 -18 7 -29v-51q0 -8 -6 -14t-14 -6zM158 85h360q11 0 6 12l-179 423q-3 6 -6 6h-2q-3 0 -6 -6l-179 -423q-5 -12 6 -12z" />
    <glyph glyph-name="product" unicode="&#x220f;" horiz-adv-x="569" 
d="M413 -180v778q0 10 -10 10h-236q-10 0 -10 -10v-778q0 -8 -6 -14t-14 -6h-52q-8 0 -14 6t-6 14v860q0 8 6 14t14 6h400q8 0 14 -6t6 -14v-860q0 -8 -6 -14t-14 -6h-52q-8 0 -14 6t-6 14z" />
    <glyph glyph-name="summation" unicode="&#x2211;" horiz-adv-x="493" 
d="M249 270l-175 320q-9 22 -9 30v60q0 8 6 14t14 6h373q8 0 14 -6t6 -14v-51q0 -8 -6 -14t-14 -6h-270q-7 0 -9.5 -4t0.5 -8l172 -317q11 -20 0 -40l-182 -336q-1 -3 -1 -5.5t3 -5t7 -2.5h282q8 0 14 -6t6 -14v-51q0 -8 -6 -14t-14 -6h-385q-8 0 -14 6t-6 14v60q0 8 9 30
l185 339q6 11 0 21z" />
    <glyph glyph-name="minus" unicode="&#x2212;" horiz-adv-x="520" 
d="M70 308h380q8 0 14 -6t6 -14v-55q0 -8 -6 -14t-14 -6h-380q-8 0 -14 6t-6 14v55q0 8 6 14t14 6z" />
    <glyph glyph-name="radical" unicode="&#x221a;" horiz-adv-x="505" 
d="M398 860h163q8 0 14 -6t6 -14v-30q0 -8 -6 -14t-14 -6h-117l-230 -775q-4 -15 -19 -15h-56q-15 0 -19 15l-118 371q-3 8 2.5 16t16.5 8h45q14 0 19 -15l75 -268q2 -6 6 -6h2q4 0 6 6l205 718q4 15 19 15z" />
    <glyph glyph-name="infinity" unicode="&#x221e;" horiz-adv-x="771" 
d="M740 259q0 -75 -47 -122.5t-122 -47.5q-95 0 -178 92q-9 11 -20 0q-94 -92 -175 -92q-75 0 -122 47.5t-47 122.5t47 122t122 47q83 0 177 -92q9 -9 18 0q96 92 178 92q76 0 122.5 -47t46.5 -122zM654 259q0 37 -25 59.5t-57 22.5q-54 0 -134 -82q82 -82 134 -82
q32 0 57 22.5t25 59.5zM331 259q-80 82 -134 82q-32 0 -56.5 -22.5t-24.5 -59.5q0 -38 24.5 -60t56.5 -22q54 0 134 82z" />
    <glyph glyph-name="integral" unicode="&#x222b;" horiz-adv-x="371" 
d="M139 -23v553q0 78 52.5 127.5t132.5 49.5h10q8 0 14 -6t6 -14v-47q0 -8 -6 -14t-14 -6h-10q-40 0 -67.5 -26t-27.5 -64v-553q0 -78 -52.5 -127.5t-132.5 -49.5h-10q-8 0 -14 6t-6 14v47q0 8 6 14t14 6h10q40 0 67.5 26t27.5 64z" />
    <glyph glyph-name="approxequal" unicode="&#x2248;" horiz-adv-x="510" 
d="M141 315q-17 0 -35.5 -8t-26.5 -18q-5 -6 -12 -8t-12 3t-5 14v50q0 27 26.5 44t64.5 17q51 0 112 -22.5t116 -22.5q17 0 35.5 8t26.5 18q5 6 12 8t12 -3t5 -14v-50q0 -27 -26.5 -44t-64.5 -17q-51 0 -112 22.5t-116 22.5zM141 130q-17 0 -35.5 -8t-26.5 -18q-5 -6 -12 -8
t-12 3t-5 14v50q0 27 26.5 44t64.5 17q51 0 112 -22.5t116 -22.5q17 0 35.5 8t26.5 18q5 6 12 8t12 -3t5 -14v-50q0 -27 -26.5 -44t-64.5 -17q-51 0 -112 22.5t-116 22.5z" />
    <glyph glyph-name="notequal" unicode="&#x2260;" horiz-adv-x="540" 
d="M126 112h-56q-8 0 -14 6t-6 14v52q0 8 6 14t14 6h117q9 0 14 7l54 78q5 7 -5 7h-180q-8 0 -14 6t-6 14v52q0 8 6 14t14 6h242q9 0 14 7l47 68q11 15 19 15h52q10 0 16 -9t0 -19l-38 -55q-5 -7 5 -7h43q8 0 14 -6t6 -14v-52q0 -8 -6 -14t-14 -6h-104q-9 0 -14 -7l-53 -78
q-5 -7 5 -7h166q8 0 14 -6t6 -14v-52q0 -8 -6 -14t-14 -6h-227q-9 0 -14 -7l-42 -62q-11 -15 -24 -15h-49q-10 0 -16 9t0 19l33 49q5 7 -5 7z" />
    <glyph glyph-name="lessequal" unicode="&#x2264;" horiz-adv-x="534" 
d="M170 416l267 -146q15 -9 15 -21v-60q0 -11 -7.5 -16.5t-15.5 -2.5l-362 204q-15 8 -15 22v49q0 14 15 22l362 203q7 4 15 -2t8 -17v-60q0 -12 -15 -21l-267 -146q-3 -1 -3 -4t3 -4zM70 92h394q8 0 14 -6t6 -14v-52q0 -8 -6 -14t-14 -6h-394q-8 0 -14 6t-6 14v52q0 8 6 14
t14 6z" />
    <glyph glyph-name="greaterequal" unicode="&#x2265;" horiz-adv-x="534" 
d="M97 270l267 146q8 4 0 8l-267 146q-15 9 -15 21v60q0 11 8 17t15 2l362 -203q15 -8 15 -22v-49q0 -14 -15 -22l-362 -204q-7 -4 -15 2t-8 17v60q0 12 15 21zM70 92h394q8 0 14 -6t6 -14v-52q0 -8 -6 -14t-14 -6h-394q-8 0 -14 6t-6 14v52q0 8 6 14t14 6z" />
    <glyph glyph-name="lozenge" unicode="&#x25ca;" horiz-adv-x="604" 
d="M255 16l-203 332q-3 6 0 13l203 332q8 15 22 15h49q14 0 22 -15l204 -332q3 -8 0 -13l-204 -332q-8 -15 -22 -15h-49q-14 0 -22 15zM451 354l-145 236q-4 8 -8 0l-145 -236l145 -235q4 -8 8 0z" />
    <glyph glyph-name="commaaccent" unicode="&#xf6c3;" horiz-adv-x="230" 
d="M84 -249q-14 0 -19 11t1 22l31 57q3 5 -0.5 9t-8.5 4h-7q-8 0 -14 6t-6 14v61q0 8 6 14t14 6h70q8 0 14 -6t6 -14v-61q0 -34 -20 -62l-32 -46q-10 -15 -26 -15h-9z" />
    <glyph glyph-name="apple" unicode="&#xf8ff;" 
d="M184 120q-12 0 -18.5 -9t-9.5 -19.5t-12.5 -19.5t-27.5 -9q-21 0 -36.5 13.5t-15.5 31.5q0 22 21 44t21 53q0 17 -8 27.5t-20 10.5q-8 0 -15.5 -3.5t-14.5 -3.5q-14 0 -22 15.5t-8 36.5q0 14 9.5 26.5t23.5 12.5q7 0 14.5 -5.5t12.5 -5.5q13 0 20 13.5t7 26.5
q0 8 -5 24.5t-5 24.5q0 37 40 37q9 0 9 8q0 3 -4 11t-4 13t5.5 9.5t10.5 4.5q11 0 22 -17.5t20 -17.5q11 0 15 8.5t4.5 19t7.5 19t22 8.5q21 0 37 -24t35 -24q20 0 27.5 11t7.5 37q0 27 14.5 40t38.5 13q22 0 34.5 -13t12.5 -35q0 -18 -12 -31t-24 -21t-12 -17q0 -12 12 -22
t27 -16t27 -21t12 -37q0 -20 -16 -38t-16 -34q0 -26 44 -26q40 0 40 -45q0 -22 -15 -37t-37 -15q-15 0 -35 25t-37 25q-25 0 -25 -21q0 -10 10 -21t10 -28q0 -14 -9 -23.5t-26 -9.5q-10 0 -35 15t-45 15q-26 0 -26 -31q0 -27 -24 -27q-8 0 -13 7.5t-7 16.5t-10.5 16.5
t-23.5 7.5zM298 340q0 -16 12 -28t28 -12q17 0 30 12t13 28q0 17 -13.5 32t-29.5 15t-28 -15t-12 -32zM281 226q-26 0 -48 20q-5 5 -7 0q-1 -3 2 -7q18 -29 53 -29q30 0 44 34q2 4 -1 6t-5 -2q-12 -22 -38 -22zM214 335q0 21 14 21t14 -21t-14 -21t-14 21zM310 340
q0 21 14 21t14 -21t-14 -21t-14 21zM178 340q0 -21 10 -35.5t26 -14.5q17 0 28.5 14.5t11.5 35.5t-11.5 35.5t-28.5 14.5q-16 0 -26 -14.5t-10 -35.5zM85 520q0 14 8.5 24t20.5 10q10 0 17 -10t7 -24t-7 -24t-17 -10q-12 0 -20.5 10t-8.5 24z" />
    <glyph glyph-name="ffi" unicode="&#xfb03;" horiz-adv-x="845" 
d="M764 620h-165q-39 0 -67 -30.5t-28 -69.5v-15q0 -10 10 -10h243q8 0 14 -6t6 -14v-455q0 -8 -6 -14t-14 -6h-52q-8 0 -14 6t-6 14v375q0 10 -10 10h-161q-10 0 -10 -10v-375q0 -8 -6 -14t-14 -6h-50q-8 0 -14 6t-6 14v375q0 10 -10 10h-194q-10 0 -10 -10v-375
q0 -8 -6 -14t-14 -6h-50q-8 0 -14 6t-6 14v375q0 10 -10 10h-75q-8 0 -14 6t-6 14v50q0 8 6 14t14 6h75q10 0 10 10v15q0 79 53 133t132 54h10q8 0 14 -6t6 -14v-47q0 -8 -6 -14t-14 -6h-10q-39 0 -67 -30.5t-28 -69.5v-15q0 -10 10 -10h194q10 0 10 10v15q0 79 53 133
t132 54h165q7 0 11.5 -5t4.5 -11v-55q0 -16 -16 -16z" />
    <glyph glyph-name="ffl" unicode="&#xfb04;" horiz-adv-x="861" 
d="M706 505v182q0 8 6 14t14 6h50q8 0 14 -6t6 -14v-667q0 -8 -6 -14t-14 -6h-50q-8 0 -14 6t-6 14v375q0 10 -10 10h-182q-10 0 -10 -10v-375q0 -8 -6 -14t-14 -6h-50q-8 0 -14 6t-6 14v375q0 10 -10 10h-194q-10 0 -10 -10v-375q0 -8 -6 -14t-14 -6h-50q-8 0 -14 6t-6 14
v375q0 10 -10 10h-75q-8 0 -14 6t-6 14v50q0 8 6 14t14 6h75q10 0 10 10v15q0 79 53 133t132 54h10q8 0 14 -6t6 -14v-47q0 -8 -6 -14t-14 -6h-10q-39 0 -67 -30.5t-28 -69.5v-15q0 -10 10 -10h194q10 0 10 10v15q0 79 53 133t132 54h10q8 0 14 -6t6 -14v-47q0 -8 -6 -14
t-14 -6h-10q-39 0 -67 -30.5t-28 -69.5v-15q0 -10 10 -10h182q10 0 10 10z" />
    <glyph glyph-name="commaturn" horiz-adv-x="272" 
d="M167 780q14 0 19 -11t-1 -22l-31 -57q-3 -5 0.5 -9t8.5 -4h7q8 0 14 -6t6 -14v-61q0 -8 -6 -14t-14 -6h-70q-8 0 -14 6t-6 14v61q0 34 20 62l32 46q10 15 26 15h9z" />
    <glyph glyph-name="zero.slash" horiz-adv-x="520" 
d="M45 500q11 89 66 148.5t149 59.5q90 0 146.5 -55.5t68.5 -152.5q7 -62 7 -150t-7 -150q-10 -89 -65.5 -148.5t-149.5 -59.5q-90 0 -146.5 55.5t-68.5 152.5q-7 61 -7 150.5t7 149.5zM385 200q18 124 4 271q-2 14 -10 2l-203 -339q-9 -15 2 -23q34 -29 82 -29
q51 0 84 31.5t41 86.5zM260 618q-50 0 -84 -31.5t-41 -86.5q-16 -127 -4 -266q3 -17 11 -3l203 336q7 12 -3 22q-32 29 -82 29z" />
    <glyph glyph-name="zero.otlfslash" 
d="M60 500q11 89 66 148.5t149 59.5q90 0 146.5 -55.5t68.5 -152.5q7 -62 7 -150t-7 -150q-10 -89 -65.5 -148.5t-149.5 -59.5q-90 0 -146.5 55.5t-68.5 152.5q-8 61 -8 150.5t8 149.5zM400 200q17 131 4 271q-2 14 -10 2l-203 -339q-9 -15 2 -23q34 -29 82 -29
q51 0 84 31.5t41 86.5zM275 618q-50 0 -84 -31.5t-41 -86.5q-16 -127 -4 -266q3 -17 11 -3l203 336q7 12 -3 22q-32 29 -82 29z" />
    <glyph glyph-name="one.otlf" 
d="M262 99v450q0 4 -3.5 5.5t-5.5 -1.5l-143 -159q-5 -6 -13 -4t-8 11v78q0 18 20 41l144 171q9 9 20 9h62q8 0 14 -6t6 -14v-581q0 -10 10 -10h120q8 0 14 -6t6 -14v-49q0 -8 -6 -14t-14 -6h-380q-8 0 -14 6t-6 14v49q0 8 6 14t14 6h147q10 0 10 10z" />
    <glyph glyph-name="zero.otlf" 
d="M60 500q11 89 66 148.5t149 59.5q90 0 146.5 -55.5t68.5 -152.5q7 -62 7 -150t-7 -150q-10 -89 -65.5 -148.5t-149.5 -59.5q-90 0 -146.5 55.5t-68.5 152.5q-8 61 -8 150.5t8 149.5zM275 618q-50 0 -84 -31.5t-41 -86.5q-8 -63 -8 -150t8 -150q7 -50 38 -84t87 -34
q51 0 84 31.5t41 86.5q9 63 9 150t-9 150q-7 50 -37.5 83.5t-87.5 34.5z" />
    <glyph glyph-name="two.otlf" 
d="M371 517q0 43 -28 72t-71 29q-39 0 -68.5 -30.5t-29.5 -70.5v-15q0 -8 -6 -14t-14 -6h-52q-20 0 -20 20v15q0 80 55 135.5t135 55.5t134 -55t54 -136q0 -109 -76 -197l-188 -215q-4 -5 -1.5 -10.5t9.5 -5.5h252q20 0 20 -20v-49q0 -20 -20 -20h-362q-8 0 -14 6t-6 14v65
q0 16 9 25l226 260q62 71 62 147z" />
    <glyph glyph-name="three.otlf" 
d="M390 198q0 50 -26.5 85.5t-86.5 35.5h-12q-8 0 -14 6t-6 14v53q0 8 6 14t14 6h12q48 0 73 31.5t25 73.5q0 39 -28.5 67.5t-71.5 28.5q-44 0 -72.5 -28.5t-28.5 -67.5v-15q0 -8 -6 -14t-14 -6h-54q-8 0 -14 6t-6 14v15q0 80 56.5 135.5t138.5 55.5t138.5 -55.5
t56.5 -135.5q0 -85 -58 -137q-14 -12 -1 -24q74 -64 74 -158q0 -86 -61.5 -146t-148.5 -60q-88 0 -149.5 60t-61.5 146v7q0 8 6 14t14 6h55q8 0 14 -6t6 -14v-7q0 -46 32.5 -78.5t83.5 -32.5q50 0 82.5 32.5t32.5 78.5z" />
    <glyph glyph-name="four.otlf" 
d="M434 215h48q8 0 14 -6t6 -14v-45q0 -8 -6 -14t-14 -6h-48q-10 0 -10 -10v-100q0 -8 -6 -14t-14 -6h-47q-8 0 -14 6t-6 14v100q0 10 -10 10h-261q-8 0 -14 6t-6 14v44q0 12 16 38l259 454q8 14 21 14h62q8 0 14 -6t6 -14v-455q0 -10 10 -10zM329 541l-175 -318q-5 -8 4 -8
h169q10 0 10 10v314q0 4 -3.5 4.5t-4.5 -2.5z" />
    <glyph glyph-name="five.otlf" 
d="M434 610h-248q-10 0 -10 -10v-150q0 -9 6 -12t16 4q30 24 76 24q91 0 148.5 -69.5t57.5 -167.5q0 -99 -56.5 -168t-149.5 -69q-81 0 -142.5 53t-61.5 130q0 20 20 20h51q8 0 14 -6t6 -14q0 -40 33.5 -66.5t79.5 -26.5q54 0 85.5 41t31.5 106t-31.5 106t-85.5 41
q-30 0 -54 -16.5t-36 -43.5q-5 -11 -19 -11h-54q-8 0 -14 6t-6 14v355q0 8 6 14t14 6h323q8 0 14 -6t6 -14v-50q0 -8 -6 -14t-14 -6z" />
    <glyph glyph-name="six.otlf" 
d="M281 452q83 0 141 -59.5t64 -145.5q2 -24 0 -52q-5 -86 -63 -144.5t-142 -58.5q-85 0 -142 59t-68 149q-7 62 -7 150t7 150q10 90 65 149t139 59q80 0 136 -55.5t56 -135.5q0 -8 -6 -14t-14 -6h-52q-8 0 -14 6t-6 14q0 41 -26.5 71t-73.5 30q-50 0 -76.5 -27.5
t-37.5 -84.5q-8 -39 -6 -86q0 -6 5 -8.5t11 1.5q52 39 110 39zM169 194q6 -48 35.5 -79t76.5 -31t76.5 31t35.5 79q3 29 0 54q-6 48 -35.5 80t-76.5 32q-48 0 -77 -29t-35 -83q-3 -25 0 -54z" />
    <glyph glyph-name="seven.otlf" 
d="M131 24l245 576q4 10 -7 10h-274q-8 0 -14 6t-6 14v50q0 8 6 14t14 6h360q8 0 14 -6t6 -14v-67q0 -9 -5 -20l-242 -578q-7 -15 -19 -15h-60q-12 0 -16.5 8t-1.5 16z" />
    <glyph glyph-name="eight.otlf" 
d="M275 84q54 0 89.5 32.5t35.5 81.5t-35.5 82.5t-89.5 33.5q-55 0 -90 -33.5t-35 -82.5t35 -81.5t90 -32.5zM275 414q50 0 81 29.5t31 73.5t-31 72.5t-81 28.5t-81 -28.5t-31 -72.5t31 -73.5t81 -29.5zM276 708q87 0 144.5 -55t57.5 -136t-58 -137q-13 -13 -1 -24
q74 -64 74 -158q0 -87 -62.5 -146.5t-155.5 -59.5t-155.5 59.5t-62.5 146.5q0 94 74 158q12 11 -1 24q-57 57 -57 137q0 81 57.5 136t145.5 55z" />
    <glyph glyph-name="nine.otlf" 
d="M381 506q-6 48 -35.5 79t-76.5 31t-76.5 -31t-35.5 -79q-3 -29 0 -54q6 -48 35.5 -80t76.5 -32q48 0 77 29t35 83q3 25 0 54zM273 82q96 0 121 118q7 34 7 83q0 7 -5.5 9t-12.5 -3q-51 -41 -114 -41q-83 0 -141 59.5t-64 145.5q-2 24 0 52q5 86 63 144.5t142 58.5
q85 0 142 -59t68 -149q7 -62 7 -150t-7 -150q-10 -89 -66 -148.5t-140 -59.5q-81 0 -142 56t-61 135q0 8 6 14t14 6h52q8 0 14 -6t6 -14q0 -38 34.5 -69.5t76.5 -31.5z" />
    <glyph glyph-name="eightsuperior" horiz-adv-x="280" 
d="M140 412q20 0 32.5 11t12.5 28q0 18 -12.5 30t-32.5 12t-32 -12t-12 -30q0 -17 12 -28t32 -11zM140 557q17 0 28.5 11t11.5 27q0 15 -11.5 25t-28.5 10t-28 -10t-11 -25q0 -16 11.5 -27t27.5 -11zM140 702q46 0 78.5 -31.5t32.5 -75.5q0 -40 -20 -64q-5 -6 0 -11
q24 -25 24 -69q0 -47 -33 -79t-82 -32q-48 0 -81.5 32.5t-33.5 78.5q0 39 24 69q3 4 -1 11q-19 26 -19 64q0 44 32.5 75.5t78.5 31.5z" />
    <glyph glyph-name="twosuperior" horiz-adv-x="270" 
d="M173 596q0 14 -9 23.5t-24 9.5q-39 0 -39 -33v-9q0 -10 -10 -10h-53q-10 0 -10 10v8q0 45 32.5 76t77.5 31t76.5 -31t31.5 -76q0 -37 -29 -68l-94 -97q-3 -2 -2 -6.5t7 -4.5h107q10 0 10 -10v-53q0 -10 -10 -10h-200q-10 0 -10 10v66q0 8 4 12l134 139q10 10 10 23z" />
    <glyph glyph-name="threesuperior" horiz-adv-x="272" 
d="M174 451q0 18 -11.5 27.5t-28.5 9.5h-6q-10 0 -10 10v52q0 10 10 10h6q16 0 26 9t10 26q0 16 -10 25t-26 9t-26 -9t-10 -25v-8q0 -10 -10 -10h-53q-10 0 -10 10v8q0 44 32.5 75.5t76.5 31.5q45 0 77 -31.5t32 -75.5q0 -35 -26 -65q-5 -5 0 -8q30 -24 30 -71
q0 -46 -33 -78.5t-80 -32.5t-80 32.5t-33 78.5v6q0 10 10 10h53q10 0 10 -10v-6q0 -38 40 -38t40 38z" />
    <glyph glyph-name="foursuperior" horiz-adv-x="262" 
d="M219 476h17q10 0 10 -10v-48q0 -10 -10 -10h-17q-5 0 -5 -5v-47q0 -10 -10 -10h-51q-10 0 -10 10v47q0 5 -5 5h-114q-10 0 -10 10v59q0 6 8 20l112 192q4 7 10 7h60q10 0 10 -10v-205q0 -5 5 -5zM137 576l-50 -94q-4 -6 4 -6h47q5 0 5 5v93q0 3 -2.5 3.5t-3.5 -1.5z" />
    <glyph glyph-name="fivesuperior" horiz-adv-x="285" 
d="M35 442q0 10 10 10h53q10 0 10 -10q0 -27 40 -27t40 46q0 19 -9.5 35.5t-30.5 16.5q-19 0 -29 -12q-6 -6 -13 -6h-55q-10 0 -10 10v181q0 10 10 10h186q10 0 10 -10v-55q0 -10 -10 -10h-117q-5 0 -5 -5v-38q0 -8 9 -4q12 7 32 7q46 0 76 -33.5t30 -86.5q0 -48 -31 -84.5
t-83 -36.5q-49 0 -81 25.5t-32 76.5z" />
    <glyph glyph-name="sixsuperior" horiz-adv-x="278" 
d="M102 444q1 -16 11.5 -25.5t25.5 -9.5q16 0 25.5 9.5t11.5 25.5q1 14 0 28q-2 17 -12 27.5t-25 10.5t-25 -11t-12 -27q-1 -14 0 -28zM143 636q-25 0 -37.5 -15.5t-12.5 -39.5q0 -9 13 -7q24 4 37 4q44 0 74.5 -31.5t32.5 -76.5q1 -11 0 -24q-2 -45 -33 -75.5t-75 -30.5
q-47 0 -78.5 31.5t-36.5 78.5q-8 71 0 142q5 47 37 78.5t77 31.5q48 0 77.5 -28t29.5 -71q0 -10 -10 -10h-39q-12 0 -15 10q-10 33 -41 33z" />
    <glyph glyph-name="sevensuperior" horiz-adv-x="243" 
d="M37 358l117 260q2 5 -4 5h-125q-10 0 -10 10v53q0 10 10 10h195q10 0 10 -10v-67q0 -3 -3 -10l-112 -255q-3 -8 -9 -8h-60q-14 0 -9 12z" />
    <glyph glyph-name="ninesuperior" horiz-adv-x="278" 
d="M174 598q-1 16 -11.5 25.5t-25.5 9.5q-16 0 -25.5 -9.5t-11.5 -25.5q-1 -14 0 -28q2 -17 12 -27.5t25 -10.5t25 11t12 27q1 14 0 28zM133 406q25 0 37.5 15.5t12.5 39.5q0 9 -13 7q-24 -4 -37 -4q-44 0 -74.5 31.5t-32.5 76.5q-1 11 0 24q2 45 33 75.5t75 30.5
q47 0 78.5 -31.5t36.5 -78.5q8 -71 0 -142q-5 -47 -37 -78.5t-77 -31.5q-48 0 -77.5 28t-29.5 71q0 10 10 10h39q12 0 15 -10q10 -33 41 -33z" />
    <glyph glyph-name="zerosuperior" horiz-adv-x="282" 
d="M141 415q14 0 24 10.5t12 24.5q7 79 0 142q-1 15 -11.5 25t-24.5 10q-15 0 -24.5 -10.5t-11.5 -24.5q-8 -71 0 -142q2 -15 12 -25t24 -10zM141 702q45 0 76 -33t36 -79q8 -69 0 -138q-5 -47 -36.5 -79.5t-75.5 -32.5q-45 0 -76.5 33t-36.5 79q-8 68 0 138q5 47 37 79.5
t76 32.5z" />
    <glyph glyph-name="onesuperior" horiz-adv-x="227" 
d="M181 696q10 0 10 -10v-330q0 -10 -10 -10h-57q-10 0 -10 10v230q0 5 -4 6.5t-6 -1.5l-80 -82q-5 -5 -12 -2t-7 12v56q0 14 8 23l75 84q12 14 30 14h63z" />
    <glyph glyph-name="nsuperior" horiz-adv-x="264" 
d="M236 509v-153q0 -10 -10 -10h-51q-10 0 -10 10v154q0 23 -32 23t-32 -21v-156q0 -10 -10 -10h-51q-10 0 -10 10v230q0 10 10 10h26q7 0 10 -3q9 -9 13 -9q6 0 23 9t33 9q38 0 64.5 -27.5t26.5 -65.5z" />
    <glyph glyph-name="asuperior" horiz-adv-x="260" 
d="M158 446h-49q-22 0 -22 -23q0 -22 29 -22q47 0 47 29v11q0 5 -5 5zM125 540q-26 0 -31 -16q-3 -9 -14 -9h-40q-10 0 -10 10q0 30 26 53.5t72 23.5q47 0 75 -25t28 -69v-152q0 -10 -10 -10h-28q-4 0 -7 4q-1 1 -2 3l-1.5 3t-2.5 2t-4 1q-1 0 -19.5 -9.5t-40.5 -9.5
q-44 0 -69.5 21.5t-25.5 62.5q0 28 23 53t64 25h48q5 0 5 5v5q0 13 -10 20.5t-26 7.5z" />
    <glyph glyph-name="csuperior" horiz-adv-x="252" 
d="M164 444q2 8 10 8h50q8 0 8 -10q0 -46 -30.5 -74t-73.5 -28q-45 0 -72 26t-33 67q-6 38 0 76q6 41 33 67t72 26q44 0 74 -27.5t30 -74.5q0 -10 -9 -10h-50q-9 0 -9 8q-3 33 -37 33q-17 0 -24.5 -4.5t-8.5 -17.5q-6 -38 0 -76q3 -22 34 -22q16 0 24 6.5t12 26.5z" />
    <glyph glyph-name="dsuperior" horiz-adv-x="263" 
d="M94 509q-2 -38 0 -76q2 -24 32 -24t32 24q4 38 0 76q-1 24 -32 24q-30 0 -32 -24zM117 340q-39 0 -65 26.5t-29 66.5q-4 38 0 76q3 40 29 66.5t65 26.5q20 0 26 -4q5 -4 10.5 -1t5.5 11v83q0 10 10 10h51q10 0 10 -10v-335q0 -10 -10 -10h-28q-3 0 -7 4q-8 8 -12 8
q-5 0 -20 -9t-36 -9z" />
    <glyph glyph-name="psuperior" horiz-adv-x="260" 
d="M166 433q2 38 0 76q-2 24 -32 24t-32 -24q-4 -38 0 -76q1 -24 32 -24q30 0 32 24zM142 602q39 0 65.5 -26.5t29.5 -66.5q4 -38 0 -76q-3 -40 -29.5 -66.5t-65.5 -26.5q-19 0 -25 4q-5 3 -10.5 1t-5.5 -10v-79q0 -10 -10 -10h-51q-10 0 -10 10v330q0 10 10 10h27q3 0 7 -4
q7 -7 13 -7q4 0 19 8.5t36 8.5z" />
    <glyph glyph-name="esuperior" horiz-adv-x="250" 
d="M126 538q-39 0 -39 -24q0 -4 5 -4h68q5 0 5 4q0 24 -39 24zM219 449h-124q-8 0 -8 -8q0 -16 11.5 -25.5t28.5 -9.5q27 0 35 17q4 9 12 9h46q12 0 9 -11q-22 -81 -102 -81q-45 0 -71.5 26t-32.5 67q-6 38 0 76q6 41 32.5 67t71.5 26q46 0 74 -26t28 -73v-44q0 -10 -10 -10
z" />
    <glyph glyph-name="ssuperior" horiz-adv-x="250" 
d="M16 428q0 10 10 10h41q16 0 17 -13q2 -12 13 -20t28 -8q19 0 31.5 8.5t12.5 18.5q0 14 -40 21q-3 1 -5 1q-20 3 -34 7t-31.5 12.5t-27 23.5t-9.5 36q0 32 32 54.5t71 22.5q41 0 71 -21t30 -58q0 -13 -10 -13h-40q-10 0 -12 13q-2 11 -14.5 19t-24.5 8q-15 0 -27 -7.5
t-12 -17.5q0 -16 44 -25q3 -1 16.5 -4t18.5 -4t16.5 -4.5t16.5 -7t13.5 -9.5t12 -12.5t6.5 -16t3 -20.5q0 -35 -32 -58.5t-76 -23.5q-46 0 -77.5 22t-31.5 66z" />
    <glyph glyph-name="gsuperior" horiz-adv-x="261" 
d="M193 596h27q10 0 10 -10v-255q0 -39 -29 -66t-71 -27t-71.5 25t-28.5 61q0 10 10 10h41q8 0 10 -2.5t3 -9.5q4 -21 32 -21q14 0 24 7.5t10 22.5v4q0 16 -16 10q-10 -5 -26 -5q-39 0 -65 26.5t-29 66.5q-4 38 0 76q3 40 29 66.5t65 26.5q21 0 36 -8.5t20 -8.5t12 7
q4 4 7 4zM127 534q-31 0 -33 -25q-2 -38 0 -76q2 -25 33 -25t33 25q4 38 0 76q-1 25 -33 25z" />
    <glyph glyph-name="osuperior" horiz-adv-x="254" 
d="M94 509q-7 -33 0 -76q4 -22 33 -22q30 0 33 22q8 38 0 76q-3 22 -33 22q-17 0 -24 -4.5t-9 -17.5zM23 433q-6 38 0 76q6 41 32.5 67t71.5 26t71.5 -26t32.5 -67q6 -38 0 -76q-6 -41 -32.5 -67t-71.5 -26t-71.5 26t-32.5 67z" />
    <glyph glyph-name="bsuperior" horiz-adv-x="262" 
d="M136 408q30 0 32 25q2 38 0 76q-2 25 -32 25q-32 0 -33 -25q-4 -38 0 -76q2 -25 33 -25zM144 340q-21 0 -36 9t-19 9q-5 0 -13 -8q-4 -4 -7 -4h-27q-10 0 -10 10v335q0 10 10 10h50q10 0 10 -10v-84q0 -8 5.5 -10.5t10.5 0.5q10 5 26 5q39 0 65.5 -26.5t29.5 -66.5
q4 -38 0 -76q-3 -40 -29.5 -66.5t-65.5 -26.5z" />
    <glyph glyph-name="fsuperior" horiz-adv-x="211" 
d="M191 630h-38q-24 0 -24 -21v-9q0 -5 5 -5h62q10 0 10 -10v-45q0 -10 -10 -10h-62q-5 0 -5 -5v-169q0 -10 -10 -10h-51q-10 0 -10 10v169q0 5 -5 5h-41q-10 0 -10 10v45q0 10 10 10h41q5 0 5 5v11q0 38 28 64t67 26h38q10 0 10 -10v-51q0 -10 -10 -10z" />
    <glyph glyph-name="hsuperior" horiz-adv-x="266" 
d="M168 356v153q0 24 -32 24q-33 0 -33 -24v-153q0 -10 -10 -10h-51q-10 0 -10 10v335q0 10 10 10h51q10 0 10 -10v-83q0 -18 16 -10q8 4 25 4q40 0 67.5 -26.5t27.5 -66.5v-153q0 -10 -10 -10h-51q-10 0 -10 10z" />
    <glyph glyph-name="jsuperior" horiz-adv-x="133" 
d="M26 331v255q0 10 10 10h51q10 0 10 -10v-255q0 -39 -29 -66t-72 -27h-23q-10 0 -10 10v44q0 10 10 10h19q14 0 24 7.5t10 21.5zM100 693v-59q0 -8 -8 -8h-60q-8 0 -8 8v59q0 8 8 8h60q8 0 8 -8z" />
    <glyph glyph-name="ksuperior" horiz-adv-x="253" 
d="M239 580l-70 -92q-6 -7 0 -16l76 -109q5 -6 2 -11.5t-10 -5.5h-57q-8 0 -13 7l-58 88q-4 4 -6 -1v-84q0 -10 -10 -10h-51q-10 0 -10 10v335q0 10 10 10h51q10 0 10 -10v-174q0 -2 1.5 -3t3.5 1l54 75q4 6 13 6h56q7 0 9.5 -6t-1.5 -10z" />
    <glyph glyph-name="lsuperior" horiz-adv-x="135" 
d="M103 691v-335q0 -10 -10 -10h-51q-10 0 -10 10v335q0 10 10 10h51q10 0 10 -10z" />
    <glyph glyph-name="isuperior" horiz-adv-x="134" 
d="M105 693v-59q0 -8 -8 -8h-60q-8 0 -8 8v59q0 8 8 8h60q8 0 8 -8zM102 589v-236q0 -7 -7 -7h-56q-7 0 -7 7v236q0 7 7 7h56q7 0 7 -7z" />
    <glyph glyph-name="msuperior" horiz-adv-x="385" 
d="M290 356v154q0 23 -28 23q-31 0 -31 -24v-153q0 -10 -10 -10h-51q-10 0 -10 10v154q0 23 -28 23q-13 0 -22 -6t-9 -15v-156q0 -10 -10 -10h-51q-10 0 -10 10v230q0 10 10 10h26q7 0 10 -3q1 -1 3 -4t4 -4.5t6 -1.5q5 0 21 9.5t32 9.5q26 0 50 -17q11 -9 23 0q26 17 52 17
q39 0 66.5 -27t27.5 -66v-153q0 -10 -10 -10h-51q-10 0 -10 10z" />
    <glyph glyph-name="qsuperior" horiz-adv-x="265" 
d="M163 433q4 38 0 76q-2 24 -32 24t-32 -24q-2 -38 0 -76q2 -24 32 -24q31 0 32 24zM122 602q21 0 36 -8.5t20 -8.5t12 7q4 4 7 4h28q10 0 10 -10v-330q0 -10 -10 -10h-51q-10 0 -10 10v79q0 8 -5.5 10t-10.5 -1q-6 -4 -26 -4q-39 0 -65 26.5t-29 66.5q-4 38 0 76
q3 40 29 66.5t65 26.5z" />
    <glyph glyph-name="rsuperior" horiz-adv-x="196" 
d="M183 531h-20q-28 0 -45 -14.5t-17 -41.5v-119q0 -10 -10 -10h-51q-10 0 -10 10v230q0 10 10 10h27q9 0 11 -5q1 -2 3 -7l3 -7.5t3.5 -5t5.5 -2.5q4 0 23 13.5t48 13.5h19q10 0 10 -10v-45q0 -10 -10 -10z" />
    <glyph glyph-name="tsuperior" horiz-adv-x="207" 
d="M133 595h54q10 0 10 -10v-45q0 -10 -10 -10h-54q-5 0 -5 -5v-83q0 -11 8 -19.5t19 -8.5h37q10 0 10 -10v-48q0 -10 -10 -10h-37q-44 0 -71 26t-27 69v84q0 5 -5 5h-40q-10 0 -10 10v45q0 10 10 10h40q5 0 5 5v76q0 10 10 10h51q10 0 10 -10v-76q0 -5 5 -5z" />
    <glyph glyph-name="usuperior" horiz-adv-x="263" 
d="M27 433v153q0 10 10 10h51q10 0 10 -10v-154q0 -23 32 -23t32 21v156q0 10 10 10h51q10 0 10 -10v-230q0 -10 -10 -10h-25q-6 0 -13 5q-8 5 -11 5q-5 0 -20.5 -8t-31.5 -8q-39 0 -67 27t-28 66z" />
    <glyph glyph-name="vsuperior" horiz-adv-x="267" 
d="M136 454l47 134q3 8 10 8h55q6 0 9 -4t1 -8l-84 -230q-3 -8 -10 -8h-60q-7 0 -10 8l-85 231q-4 11 9 11h56q7 0 10 -8l46 -134q1 -3 3 -3t3 3z" />
    <glyph glyph-name="wsuperior" horiz-adv-x="365" 
d="M77 588l37 -142q0 -3 3 -2q1 0 2 2l24 143q1 7 9 7h56q9 0 10 -7l27 -143q1 -2 2.5 -2t2.5 2l36 142q3 8 10 8h51q6 0 8.5 -4t0.5 -8l-69 -231q-3 -7 -10 -7h-62q-7 0 -9 7l-23 102q0 3 -4 1l-2 -2l-18 -101q-1 -7 -9 -7h-62q-7 0 -10 8l-70 231q-4 11 9 11h51q8 0 9 -8z
" />
    <glyph glyph-name="xsuperior" horiz-adv-x="258" 
d="M167 351l-34 67q-2 6 -7 0l-35 -67q-2 -5 -11 -5h-57q-17 0 -8 16l66 108q3 6 -1 12l-56 97q-4 7 -2 12t9 5h53q6 0 11 -5l31 -59q4 -7 7 -1l32 60q2 5 11 5h52q7 0 9.5 -5t-1.5 -11l-58 -99q-4 -6 0 -12l65 -107q4 -6 1.5 -11t-9.5 -5h-57q-8 0 -11 5z" />
    <glyph glyph-name="ysuperior" horiz-adv-x="242" 
d="M80 588l39 -135q1 -5 4 -3q2 1 2 3l36 136q1 7 9 7h57q6 0 8.5 -4t0.5 -8l-115 -331q-3 -7 -9 -7h-52q-6 0 -8.5 4t-0.5 8l34 90q2 6 0 13l-82 224q-2 4 1 7.5t8 3.5h58q7 0 10 -8z" />
    <glyph glyph-name="zsuperior" horiz-adv-x="235" 
d="M22 421l107 105q2 3 -2 5h-97q-10 0 -10 10v45q0 10 10 10h175q10 0 10 -10v-48q0 -11 -10 -21l-101 -101q-5 -5 3 -5h103q10 0 10 -10v-45q0 -10 -10 -10h-185q-10 0 -10 10v50q0 9 7 15z" />
    <glyph glyph-name="plussuperior" horiz-adv-x="270" 
d="M95 436h-60q-10 0 -10 10v50q0 10 10 10h60q5 0 5 5v60q0 10 10 10h50q10 0 10 -10v-60q0 -5 5 -5h60q10 0 10 -10v-50q0 -10 -10 -10h-60q-5 0 -5 -5v-60q0 -10 -10 -10h-50q-10 0 -10 10v60q0 5 -5 5z" />
    <glyph glyph-name="equalsuperior" horiz-adv-x="270" 
d="M235 488h-200q-10 0 -10 10v48q0 10 10 10h200q10 0 10 -10v-48q0 -10 -10 -10zM235 386h-200q-10 0 -10 10v49q0 10 10 10h200q10 0 10 -10v-49q0 -10 -10 -10z" />
    <glyph glyph-name="parenleftsuperior" horiz-adv-x="184" 
d="M141 371h24q10 0 10 -10v-50q0 -10 -10 -10h-24q-46 0 -76.5 28t-36.5 77q-4 30 -4 97.5t4 97.5q6 44 35.5 74.5t77.5 30.5h25q10 0 10 -10v-50q0 -10 -10 -10h-25q-35 0 -42 -35q-6 -31 -6 -97.5t6 -97.5q6 -35 42 -35z" />
    <glyph glyph-name="parenrightsuperior" horiz-adv-x="187" 
d="M22 371h25q35 0 41 35q6 31 6 97.5t-6 97.5q-7 35 -41 35h-26q-10 0 -10 10v50q0 10 10 10h26q47 0 76.5 -30.5t35.5 -74.5q4 -30 4 -97.5t-4 -97.5q-6 -48 -36.5 -76.5t-75.5 -28.5h-25q-10 0 -10 10v50q0 10 10 10z" />
    <glyph glyph-name="minussuperior" horiz-adv-x="279" 
d="M35 511h209q10 0 10 -10v-50q0 -10 -10 -10h-209q-10 0 -10 10v50q0 10 10 10z" />
    <glyph glyph-name="eightinferior" horiz-adv-x="280" 
d="M140 -116q20 0 32.5 11t12.5 28q0 18 -12.5 30t-32.5 12t-32 -12t-12 -30q0 -17 12 -28t32 -11zM140 29q17 0 28.5 11t11.5 27q0 15 -11.5 25t-28.5 10t-28 -10t-11 -25q0 -16 11.5 -27t27.5 -11zM140 174q46 0 78.5 -31.5t32.5 -75.5q0 -40 -20 -64q-5 -6 0 -11
q24 -25 24 -69q0 -47 -33 -79t-82 -32q-48 0 -81.5 32.5t-33.5 78.5q0 39 24 69q3 4 -1 11q-19 26 -19 64q0 44 32.5 75.5t78.5 31.5z" />
    <glyph glyph-name="twoinferior" horiz-adv-x="270" 
d="M102 67v-8q0 -10 -10 -10h-54q-10 0 -10 10v8q0 45 32.5 76t77.5 31q46 0 77.5 -31t31.5 -76q0 -36 -29 -67l-94 -97q-3 -2 -2 -6.5t8 -4.5h105q10 0 10 -10v-54q0 -10 -10 -10h-200q-10 0 -10 10v67q0 8 4 12l135 140q9 9 9 20q0 14 -8.5 23.5t-23.5 9.5q-39 0 -39 -33z
" />
    <glyph glyph-name="threeinferior" horiz-adv-x="272" 
d="M95 -71v-6q0 -37 39 -37q40 0 40 37q0 36 -40 36h-6q-10 0 -10 10v53q0 10 10 10h6q16 0 26 9t10 25q0 34 -36 34q-15 0 -25 -9t-10 -25v-7q0 -10 -10 -10h-55q-10 0 -10 10v7q0 45 32.5 76.5t77.5 31.5q46 0 77.5 -31.5t31.5 -76.5q0 -35 -25 -64q-5 -5 0 -9
q30 -24 30 -70t-33.5 -78.5t-80.5 -32.5t-80 32.5t-33 78.5v6q0 10 10 10h54q10 0 10 -10z" />
    <glyph glyph-name="fourinferior" horiz-adv-x="262" 
d="M91 -51h47q5 0 5 5v91q0 2 -2.5 2.5t-4.5 -1.5l-48 -90q-4 -7 3 -7zM22 -30l111 191q3 7 11 7h60q10 0 10 -10v-204q0 -5 5 -5h17q10 0 10 -10v-49q0 -10 -10 -10h-17q-5 0 -5 -5v-47q0 -10 -10 -10h-51q-10 0 -10 10v47q0 5 -5 5h-114q-10 0 -10 10v61q0 5 8 19z" />
    <glyph glyph-name="fiveinferior" horiz-adv-x="285" 
d="M35 -86q0 10 10 10h53q10 0 10 -10q0 -27 40 -27t40 45q0 20 -9.5 36.5t-30.5 16.5q-19 0 -29 -12q-6 -6 -13 -6h-55q-10 0 -10 10v181q0 10 10 10h186q10 0 10 -10v-55q0 -10 -10 -10h-117q-5 0 -5 -5v-38q0 -8 9 -4q12 7 32 7q46 0 76 -33.5t30 -87.5q0 -48 -31 -84
t-83 -36q-49 0 -81 25.5t-32 76.5z" />
    <glyph glyph-name="sixinferior" horiz-adv-x="278" 
d="M102 -84q1 -16 11.5 -25.5t25.5 -9.5q16 0 25.5 9.5t11.5 25.5q1 14 0 28q-2 17 -12 27.5t-25 10.5t-25 -11t-12 -27q-1 -14 0 -28zM143 108q-25 0 -37.5 -15.5t-12.5 -39.5q0 -9 13 -7q24 4 37 4q44 0 74.5 -31.5t32.5 -76.5q1 -11 0 -24q-2 -45 -33 -75.5t-75 -30.5
q-47 0 -78.5 31.5t-36.5 78.5q-8 71 0 142q5 47 37 78.5t77 31.5q48 0 77.5 -28t29.5 -71q0 -10 -10 -10h-39q-12 0 -15 10q-10 33 -41 33z" />
    <glyph glyph-name="seveninferior" horiz-adv-x="243" 
d="M37 -170l116 259q3 5 -3 5h-125q-10 0 -10 10v54q0 10 10 10h196q10 0 10 -10v-68q0 -2 -3 -10l-112 -254q-3 -8 -9 -8h-61q-6 0 -8.5 4t-0.5 8z" />
    <glyph glyph-name="nineinferior" horiz-adv-x="278" 
d="M174 70q-1 16 -11.5 25.5t-25.5 9.5q-16 0 -25.5 -9.5t-11.5 -25.5q-1 -14 0 -28q2 -17 12 -27.5t25 -10.5t25 11t12 27q1 14 0 28zM133 -122q25 0 37.5 15.5t12.5 39.5q0 9 -13 7q-24 -4 -37 -4q-44 0 -74.5 31.5t-32.5 76.5q-1 11 0 24q2 45 33 75.5t75 30.5
q47 0 78.5 -31.5t36.5 -78.5q8 -71 0 -142q-5 -47 -37 -78.5t-77 -31.5q-48 0 -77.5 28t-29.5 71q0 10 10 10h39q12 0 15 -10q10 -33 41 -33z" />
    <glyph glyph-name="zeroinferior" horiz-adv-x="282" 
d="M141 -113q14 0 24 10.5t12 24.5q7 79 0 142q-1 15 -11.5 25t-24.5 10q-15 0 -24.5 -10.5t-11.5 -24.5q-8 -71 0 -142q2 -15 12 -25t24 -10zM141 174q45 0 76 -33t36 -79q8 -69 0 -138q-5 -47 -36.5 -79.5t-75.5 -32.5q-45 0 -76.5 33t-36.5 79q-8 68 0 138q5 47 37 79.5
t76 32.5z" />
    <glyph glyph-name="oneinferior" horiz-adv-x="227" 
d="M181 168q10 0 10 -10v-330q0 -10 -10 -10h-57q-10 0 -10 10v230q0 5 -4 6.5t-6 -1.5l-80 -82q-5 -5 -12 -2t-7 12v56q0 14 8 23l75 84q12 14 30 14h63z" />
    <glyph glyph-name="plusinferior" horiz-adv-x="270" 
d="M95 -92h-60q-10 0 -10 10v50q0 10 10 10h60q5 0 5 5v60q0 10 10 10h50q10 0 10 -10v-60q0 -5 5 -5h60q10 0 10 -10v-50q0 -10 -10 -10h-60q-5 0 -5 -5v-60q0 -10 -10 -10h-50q-10 0 -10 10v60q0 5 -5 5z" />
    <glyph glyph-name="equalinferior" horiz-adv-x="270" 
d="M235 -41h-200q-10 0 -10 10v49q0 10 10 10h200q10 0 10 -10v-49q0 -10 -10 -10zM235 -142h-200q-10 0 -10 10v48q0 10 10 10h200q10 0 10 -10v-48q0 -10 -10 -10z" />
    <glyph glyph-name="parenleftinferior" horiz-adv-x="184" 
d="M141 -157h24q10 0 10 -10v-50q0 -10 -10 -10h-24q-46 0 -76.5 28t-36.5 77q-4 30 -4 97.5t4 97.5q6 44 35.5 74.5t77.5 30.5h25q10 0 10 -10v-50q0 -10 -10 -10h-25q-35 0 -42 -35q-6 -31 -6 -97.5t6 -97.5q6 -35 42 -35z" />
    <glyph glyph-name="parenrightinferior" horiz-adv-x="187" 
d="M22 -157h25q35 0 41 35q6 31 6 97.5t-6 97.5q-7 35 -41 35h-26q-10 0 -10 10v50q0 10 10 10h26q47 0 76.5 -30.5t35.5 -74.5q4 -30 4 -97.5t-4 -97.5q-6 -48 -36.5 -76.5t-75.5 -28.5h-25q-10 0 -10 10v50q0 10 10 10z" />
    <glyph glyph-name="minusinferior" horiz-adv-x="279" 
d="M35 -17h209q10 0 10 -10v-50q0 -10 -10 -10h-209q-10 0 -10 10v50q0 10 10 10z" />
    <glyph glyph-name="eight.numerator" horiz-adv-x="280" 
d="M140 412q20 0 32.5 11t12.5 28q0 18 -12.5 30t-32.5 12t-32 -12t-12 -30q0 -17 12 -28t32 -11zM140 557q17 0 28.5 11t11.5 27q0 15 -11.5 25t-28.5 10t-28 -10t-11 -25q0 -16 11.5 -27t27.5 -11zM140 702q46 0 78.5 -31.5t32.5 -75.5q0 -40 -20 -64q-5 -6 0 -11
q24 -25 24 -69q0 -47 -33 -79t-82 -32q-48 0 -81.5 32.5t-33.5 78.5q0 39 24 69q3 4 -1 11q-19 26 -19 64q0 44 32.5 75.5t78.5 31.5z" />
    <glyph glyph-name="two.numerator" horiz-adv-x="270" 
d="M102 595v-8q0 -10 -10 -10h-54q-10 0 -10 10v8q0 45 32.5 76t77.5 31q46 0 77.5 -31t31.5 -76q0 -36 -29 -67l-94 -97q-3 -2 -2 -6.5t8 -4.5h105q10 0 10 -10v-54q0 -10 -10 -10h-200q-10 0 -10 10v67q0 8 4 12l135 140q9 9 9 20q0 14 -8.5 23.5t-23.5 9.5q-39 0 -39 -33
z" />
    <glyph glyph-name="three.numerator" horiz-adv-x="272" 
d="M95 457v-5q0 -38 39 -38q40 0 40 38q0 35 -40 35h-6q-10 0 -10 10v53q0 10 10 10h6q16 0 26 9t10 25q0 34 -36 34q-15 0 -25 -9t-10 -25v-7q0 -10 -10 -10h-55q-10 0 -10 10v7q0 45 32.5 76.5t77.5 31.5q46 0 77.5 -31.5t31.5 -76.5q0 -35 -25 -64q-5 -5 0 -9
q30 -24 30 -69q0 -47 -33.5 -79.5t-80.5 -32.5t-80 32.5t-33 79.5v5q0 10 10 10h54q10 0 10 -10z" />
    <glyph glyph-name="four.numerator" horiz-adv-x="262" 
d="M91 477h47q5 0 5 5v91q0 2 -2.5 2.5t-4.5 -1.5l-48 -90q-4 -7 3 -7zM22 498l111 191q3 7 11 7h60q10 0 10 -10v-204q0 -5 5 -5h17q10 0 10 -10v-49q0 -10 -10 -10h-17q-5 0 -5 -5v-47q0 -10 -10 -10h-51q-10 0 -10 10v47q0 5 -5 5h-114q-10 0 -10 10v61q0 5 8 19z" />
    <glyph glyph-name="five.numerator" horiz-adv-x="285" 
d="M35 442q0 10 10 10h53q10 0 10 -10q0 -27 40 -27t40 46q0 19 -9.5 35.5t-30.5 16.5q-19 0 -29 -12q-6 -6 -13 -6h-55q-10 0 -10 10v181q0 10 10 10h186q10 0 10 -10v-55q0 -10 -10 -10h-117q-5 0 -5 -5v-38q0 -8 9 -4q12 7 32 7q46 0 76 -33.5t30 -86.5q0 -48 -31 -84.5
t-83 -36.5q-49 0 -81 25.5t-32 76.5z" />
    <glyph glyph-name="six.numerator" horiz-adv-x="278" 
d="M102 444q1 -16 11.5 -25.5t25.5 -9.5q16 0 25.5 9.5t11.5 25.5q1 14 0 28q-2 17 -12 27.5t-25 10.5t-25 -11t-12 -27q-1 -14 0 -28zM143 636q-25 0 -37.5 -15.5t-12.5 -39.5q0 -9 13 -7q24 4 37 4q44 0 74.5 -31.5t32.5 -76.5q1 -11 0 -24q-2 -45 -33 -75.5t-75 -30.5
q-47 0 -78.5 31.5t-36.5 78.5q-8 71 0 142q5 47 37 78.5t77 31.5q48 0 77.5 -28t29.5 -71q0 -10 -10 -10h-39q-12 0 -15 10q-10 33 -41 33z" />
    <glyph glyph-name="seven.numerator" horiz-adv-x="243" 
d="M37 358l116 259q3 5 -3 5h-125q-10 0 -10 10v54q0 10 10 10h196q10 0 10 -10v-68q0 -2 -3 -10l-112 -254q-3 -8 -9 -8h-61q-6 0 -8.5 4t-0.5 8z" />
    <glyph glyph-name="nine.numerator" horiz-adv-x="278" 
d="M174 598q-1 16 -11.5 25.5t-25.5 9.5q-16 0 -25.5 -9.5t-11.5 -25.5q-1 -14 0 -28q2 -17 12 -27.5t25 -10.5t25 11t12 27q1 14 0 28zM133 406q25 0 37.5 15.5t12.5 39.5q0 9 -13 7q-24 -4 -37 -4q-44 0 -74.5 31.5t-32.5 76.5q-1 11 0 24q2 45 33 75.5t75 30.5
q47 0 78.5 -31.5t36.5 -78.5q8 -71 0 -142q-5 -47 -37 -78.5t-77 -31.5q-48 0 -77.5 28t-29.5 71q0 10 10 10h39q12 0 15 -10q10 -33 41 -33z" />
    <glyph glyph-name="zero.numerator" horiz-adv-x="282" 
d="M141 415q14 0 24 10.5t12 24.5q7 79 0 142q-1 15 -11.5 25t-24.5 10q-15 0 -24.5 -10.5t-11.5 -24.5q-8 -71 0 -142q2 -15 12 -25t24 -10zM141 702q45 0 76 -33t36 -79q8 -69 0 -138q-5 -47 -36.5 -79.5t-75.5 -32.5q-45 0 -76.5 33t-36.5 79q-8 68 0 138q5 47 37 79.5
t76 32.5z" />
    <glyph glyph-name="one.numerator" horiz-adv-x="227" 
d="M181 696q10 0 10 -10v-330q0 -10 -10 -10h-57q-10 0 -10 10v230q0 5 -4 6.5t-6 -1.5l-80 -82q-5 -5 -12 -2t-7 12v56q0 14 8 23l75 84q12 14 30 14h63z" />
    <glyph glyph-name="plus.numerator" horiz-adv-x="270" 
d="M95 436h-60q-10 0 -10 10v50q0 10 10 10h60q5 0 5 5v60q0 10 10 10h50q10 0 10 -10v-60q0 -5 5 -5h60q10 0 10 -10v-50q0 -10 -10 -10h-60q-5 0 -5 -5v-60q0 -10 -10 -10h-50q-10 0 -10 10v60q0 5 -5 5z" />
    <glyph glyph-name="equal.numerator" horiz-adv-x="270" 
d="M235 488h-200q-10 0 -10 10v48q0 10 10 10h200q10 0 10 -10v-48q0 -10 -10 -10zM235 386h-200q-10 0 -10 10v49q0 10 10 10h200q10 0 10 -10v-49q0 -10 -10 -10z" />
    <glyph glyph-name="parenleft.numerator" horiz-adv-x="184" 
d="M141 371h24q10 0 10 -10v-50q0 -10 -10 -10h-24q-46 0 -76.5 28t-36.5 77q-4 30 -4 97.5t4 97.5q6 44 35.5 74.5t77.5 30.5h25q10 0 10 -10v-50q0 -10 -10 -10h-25q-35 0 -42 -35q-6 -31 -6 -97.5t6 -97.5q6 -35 42 -35z" />
    <glyph glyph-name="parenright.numerator" horiz-adv-x="187" 
d="M22 371h25q35 0 41 35q6 31 6 97.5t-6 97.5q-7 35 -41 35h-26q-10 0 -10 10v50q0 10 10 10h26q47 0 76.5 -30.5t35.5 -74.5q4 -30 4 -97.5t-4 -97.5q-6 -48 -36.5 -76.5t-75.5 -28.5h-25q-10 0 -10 10v50q0 10 10 10z" />
    <glyph glyph-name="minus.numerator" horiz-adv-x="279" 
d="M35 511h209q10 0 10 -10v-50q0 -10 -10 -10h-209q-10 0 -10 10v50q0 10 10 10z" />
    <glyph glyph-name="eight.denominator" horiz-adv-x="280" 
d="M140 66q20 0 32.5 11t12.5 28q0 18 -12.5 30t-32.5 12t-32 -12t-12 -30q0 -17 12 -28t32 -11zM140 211q17 0 28.5 11t11.5 27q0 15 -11.5 25t-28.5 10t-28 -10t-11 -25q0 -16 11.5 -27t27.5 -11zM140 356q46 0 78.5 -31.5t32.5 -75.5q0 -40 -20 -64q-5 -6 0 -11
q24 -25 24 -69q0 -47 -33 -79t-82 -32q-48 0 -81.5 32.5t-33.5 78.5q0 39 24 69q3 4 -1 11q-19 26 -19 64q0 44 32.5 75.5t78.5 31.5z" />
    <glyph glyph-name="two.denominator" horiz-adv-x="270" 
d="M102 249v-8q0 -10 -10 -10h-54q-10 0 -10 10v8q0 45 32.5 76t77.5 31q46 0 77.5 -31t31.5 -76q0 -36 -29 -67l-94 -97q-3 -2 -2 -6.5t8 -4.5h105q10 0 10 -10v-54q0 -10 -10 -10h-200q-10 0 -10 10v67q0 8 4 12l135 140q9 9 9 20q0 14 -8.5 23.5t-23.5 9.5q-39 0 -39 -33
z" />
    <glyph glyph-name="three.denominator" horiz-adv-x="272" 
d="M95 111v-6q0 -37 39 -37q40 0 40 37q0 36 -40 36h-6q-10 0 -10 10v53q0 10 10 10h6q16 0 26 9t10 25q0 34 -36 34q-15 0 -25 -9t-10 -25v-7q0 -10 -10 -10h-55q-10 0 -10 10v7q0 45 32.5 76.5t77.5 31.5q46 0 77.5 -31.5t31.5 -76.5q0 -35 -25 -64q-5 -5 0 -9
q30 -24 30 -70t-33.5 -78.5t-80.5 -32.5t-80 32.5t-33 78.5v6q0 10 10 10h54q10 0 10 -10z" />
    <glyph glyph-name="four.denominator" horiz-adv-x="262" 
d="M91 131h47q5 0 5 5v91q0 2 -2.5 2.5t-4.5 -1.5l-48 -90q-4 -7 3 -7zM22 152l111 191q3 7 11 7h60q10 0 10 -10v-204q0 -5 5 -5h17q10 0 10 -10v-49q0 -10 -10 -10h-17q-5 0 -5 -5v-47q0 -10 -10 -10h-51q-10 0 -10 10v47q0 5 -5 5h-114q-10 0 -10 10v61q0 5 8 19z" />
    <glyph glyph-name="five.denominator" horiz-adv-x="285" 
d="M35 96q0 10 10 10h53q10 0 10 -10q0 -27 40 -27t40 45q0 20 -9.5 36.5t-30.5 16.5q-19 0 -29 -12q-6 -6 -13 -6h-55q-10 0 -10 10v181q0 10 10 10h186q10 0 10 -10v-55q0 -10 -10 -10h-117q-5 0 -5 -5v-38q0 -8 9 -4q12 7 32 7q46 0 76 -33.5t30 -87.5q0 -48 -31 -84
t-83 -36q-49 0 -81 25.5t-32 76.5z" />
    <glyph glyph-name="six.denominator" horiz-adv-x="278" 
d="M102 98q1 -16 11.5 -25.5t25.5 -9.5q16 0 25.5 9.5t11.5 25.5q1 14 0 28q-2 17 -12 27.5t-25 10.5t-25 -11t-12 -27q-1 -14 0 -28zM143 290q-25 0 -37.5 -15.5t-12.5 -39.5q0 -9 13 -7q24 4 37 4q44 0 74.5 -31.5t32.5 -76.5q1 -11 0 -24q-2 -45 -33 -75.5t-75 -30.5
q-47 0 -78.5 31.5t-36.5 78.5q-8 71 0 142q5 47 37 78.5t77 31.5q48 0 77.5 -28t29.5 -71q0 -10 -10 -10h-39q-12 0 -15 10q-10 33 -41 33z" />
    <glyph glyph-name="seven.denominator" horiz-adv-x="243" 
d="M37 12l116 259q3 5 -3 5h-125q-10 0 -10 10v54q0 10 10 10h196q10 0 10 -10v-68q0 -2 -3 -10l-112 -254q-3 -8 -9 -8h-61q-6 0 -8.5 4t-0.5 8z" />
    <glyph glyph-name="nine.denominator" horiz-adv-x="278" 
d="M174 252q-1 16 -11.5 25.5t-25.5 9.5q-16 0 -25.5 -9.5t-11.5 -25.5q-1 -14 0 -28q2 -17 12 -27.5t25 -10.5t25 11t12 27q1 14 0 28zM133 60q25 0 37.5 15.5t12.5 39.5q0 9 -13 7q-24 -4 -37 -4q-44 0 -74.5 31.5t-32.5 76.5q-1 11 0 24q2 45 33 75.5t75 30.5
q47 0 78.5 -31.5t36.5 -78.5q8 -71 0 -142q-5 -47 -37 -78.5t-77 -31.5q-48 0 -77.5 28t-29.5 71q0 10 10 10h39q12 0 15 -10q10 -33 41 -33z" />
    <glyph glyph-name="zero.denominator" horiz-adv-x="282" 
d="M141 69q14 0 24 10.5t12 24.5q7 79 0 142q-1 15 -11.5 25t-24.5 10q-15 0 -24.5 -10.5t-11.5 -24.5q-8 -71 0 -142q2 -15 12 -25t24 -10zM141 356q45 0 76 -33t36 -79q8 -69 0 -138q-5 -47 -36.5 -79.5t-75.5 -32.5q-45 0 -76.5 33t-36.5 79q-8 68 0 138q5 47 37 79.5
t76 32.5z" />
    <glyph glyph-name="one.denominator" horiz-adv-x="227" 
d="M181 350q10 0 10 -10v-330q0 -10 -10 -10h-57q-10 0 -10 10v230q0 5 -4 6.5t-6 -1.5l-80 -82q-5 -5 -12 -2t-7 12v56q0 14 8 23l75 84q12 14 30 14h63z" />
    <glyph glyph-name="plus.denominator" horiz-adv-x="270" 
d="M95 90h-60q-10 0 -10 10v50q0 10 10 10h60q5 0 5 5v60q0 10 10 10h50q10 0 10 -10v-60q0 -5 5 -5h60q10 0 10 -10v-50q0 -10 -10 -10h-60q-5 0 -5 -5v-60q0 -10 -10 -10h-50q-10 0 -10 10v60q0 5 -5 5z" />
    <glyph glyph-name="equal.denominator" horiz-adv-x="270" 
d="M235 141h-200q-10 0 -10 10v49q0 10 10 10h200q10 0 10 -10v-49q0 -10 -10 -10zM235 40h-200q-10 0 -10 10v48q0 10 10 10h200q10 0 10 -10v-48q0 -10 -10 -10z" />
    <glyph glyph-name="parenleft.denominator" horiz-adv-x="184" 
d="M141 25h24q10 0 10 -10v-50q0 -10 -10 -10h-24q-46 0 -76.5 28t-36.5 77q-4 30 -4 97.5t4 97.5q6 44 35.5 74.5t77.5 30.5h25q10 0 10 -10v-50q0 -10 -10 -10h-25q-35 0 -42 -35q-6 -31 -6 -97.5t6 -97.5q6 -35 42 -35z" />
    <glyph glyph-name="parenright.denominator" horiz-adv-x="187" 
d="M22 25h25q35 0 41 35q6 31 6 97.5t-6 97.5q-7 35 -41 35h-26q-10 0 -10 10v50q0 10 10 10h26q47 0 76.5 -30.5t35.5 -74.5q4 -30 4 -97.5t-4 -97.5q-6 -48 -36.5 -76.5t-75.5 -28.5h-25q-10 0 -10 10v50q0 10 10 10z" />
    <glyph glyph-name="minus.denominator" horiz-adv-x="279" 
d="M35 165h209q10 0 10 -10v-50q0 -10 -10 -10h-209q-10 0 -10 10v50q0 10 10 10z" />
    <glyph glyph-name="hyphen.case" horiz-adv-x="453" 
d="M90 389h273q8 0 14 -6t6 -14v-68q0 -8 -6 -14t-14 -6h-273q-8 0 -14 6t-6 14v68q0 8 6 14t14 6z" />
    <glyph glyph-name="endash.case" horiz-adv-x="560" 
d="M90 376h380q8 0 14 -6t6 -14v-55q0 -8 -6 -14t-14 -6h-380q-8 0 -14 6t-6 14v55q0 8 6 14t14 6z" />
    <glyph glyph-name="emdash.case" horiz-adv-x="710" 
d="M90 376h530q8 0 14 -6t6 -14v-55q0 -8 -6 -14t-14 -6h-530q-8 0 -14 6t-6 14v55q0 8 6 14t14 6z" />
    <glyph glyph-name="less.case" horiz-adv-x="480" 
d="M148 314l267 -146q15 -9 15 -21v-60q0 -12 -7.5 -17.5t-15.5 -1.5l-362 204q-15 8 -15 22v49q0 14 15 22l362 203q7 4 15 -2t8 -17v-60q0 -12 -15 -21l-267 -146q-8 -4 0 -8z" />
    <glyph glyph-name="guillemotleft.case" horiz-adv-x="492" 
d="M56 342l96 161q9 15 25 15h45q15 0 20 -9t-4 -24l-85 -145q-8 -11 0 -24l85 -145q9 -15 4 -24t-20 -9h-45q-16 0 -25 15l-96 161q-9 14 0 28zM234 342l96 161q9 15 25 15h45q15 0 20 -9t-4 -24l-85 -145q-8 -11 0 -24l85 -145q9 -15 4 -24t-20 -9h-45q-16 0 -25 15
l-96 161q-9 14 0 28z" />
    <glyph glyph-name="guillemotright.case" horiz-adv-x="492" 
d="M340 503l96 -161q9 -14 0 -28l-96 -161q-9 -15 -25 -15h-45q-15 0 -19.5 8.5t3.5 24.5l85 145q8 13 0 24l-85 145q-8 16 -3.5 24.5t19.5 8.5h45q16 0 25 -15zM162 503l96 -161q9 -14 0 -28l-96 -161q-9 -15 -25 -15h-45q-15 0 -19.5 8.5t3.5 24.5l85 145q8 13 0 24
l-85 145q-8 16 -3.5 24.5t19.5 8.5h45q16 0 25 -15z" />
    <glyph glyph-name="greater.case" horiz-adv-x="480" 
d="M65 168l267 146q8 4 0 8l-267 146q-15 9 -15 21v60q0 11 8 17t15 2l362 -203q15 -8 15 -22v-49q0 -14 -15 -22l-362 -204q-7 -4 -15 2t-8 17v60q0 12 15 21z" />
    <glyph glyph-name="plus.case" horiz-adv-x="540" 
d="M214 272h-144q-8 0 -14 6t-6 14v52q0 8 6 14t14 6h144q10 0 10 10v144q0 8 6 14t14 6h52q8 0 14 -6t6 -14v-144q0 -10 10 -10h144q8 0 14 -6t6 -14v-52q0 -8 -6 -14t-14 -6h-144q-10 0 -10 -10v-144q0 -8 -6 -14t-14 -6h-52q-8 0 -14 6t-6 14v144q0 10 -10 10z" />
    <glyph glyph-name="equal.case" horiz-adv-x="540" 
d="M470 364h-400q-8 0 -14 6t-6 14v52q0 8 6 14t14 6h400q8 0 14 -6t6 -14v-52q0 -8 -6 -14t-14 -6zM470 180h-400q-8 0 -14 6t-6 14v52q0 8 6 14t14 6h400q8 0 14 -6t6 -14v-52q0 -8 -6 -14t-14 -6z" />
    </font>
</defs>
</svg>
